<svg width="123" height="147" viewBox="0 0 123 147" fill="none" xmlns="http://www.w3.org/2000/svg">
<g clip-path="url(#clip0_473_3969)">
<path d="M33.3896 78.34V118.83H91.9397V78.34" fill="#1E0E00"/>
<path d="M25.2399 29.37C25.2399 29.37 7.61986 129.19 43.8499 125.88C43.8499 125.88 36.5299 102.36 46.3899 92.78C46.3899 92.78 41.0399 88.91 35.7699 82.29C35.7699 82.29 32.3599 77.58 30.8499 72.68C30.8499 72.68 26.7999 31 25.2399 29.38V29.37Z" fill="#432918"/>
<path d="M87.6198 56.21C87.6198 56.21 91.5898 50.6 94.8698 52.97C94.8698 52.97 96.8498 54.99 95.5198 60.04C95.2798 60.95 95.0798 61.88 94.9098 62.81C94.7798 63.52 94.6598 64.27 94.6198 65C94.5798 65.75 94.7998 66.56 94.5998 67.31C94.1798 68.85 93.4298 70.51 92.0698 71.43C91.4898 71.83 90.8298 72.13 90.1198 72.18C89.8198 72.2 87.5098 71.96 87.5098 71.62L87.6198 56.21Z" fill="#F6BD91"/>
<path d="M87.5998 57.9101C87.5998 57.9101 90.8098 53.3801 93.4398 55.3001C93.4398 55.3001 95.0398 56.9301 93.9698 60.9901C93.7798 61.7201 93.6198 62.4701 93.4798 63.2201C93.3698 63.7901 93.2798 64.4001 93.2498 64.9901C93.2198 65.6001 93.3998 66.2501 93.2298 66.8501C92.8898 68.1001 92.2898 69.4301 91.1998 70.1701C90.7298 70.5001 90.1998 70.7301 89.6198 70.7801C89.3798 70.7901 87.5098 70.6001 87.5098 70.3201L87.5998 57.9001V57.9101Z" fill="#EBB58B"/>
<path d="M32.7897 56.74C32.7897 56.74 28.8197 51.12 25.5397 53.5C25.5397 53.5 23.5597 55.51 24.8897 60.56C25.1297 61.47 25.3297 62.4 25.4997 63.33C25.6297 64.04 25.7497 64.79 25.7897 65.52C25.8297 66.27 25.6097 67.08 25.8097 67.83C26.2297 69.37 26.9797 71.03 28.3397 71.96C28.9197 72.36 29.5797 72.65 30.2997 72.71C30.5997 72.73 32.9097 72.48 32.9097 72.15L32.7997 56.74H32.7897Z" fill="#F6BD91"/>
<path d="M32.7996 58.44C32.7996 58.44 29.5996 53.91 26.9596 55.83C26.9596 55.83 25.3596 57.45 26.4296 61.52C26.6196 62.26 26.7796 63.01 26.9196 63.75C27.0296 64.32 27.1196 64.93 27.1496 65.52C27.1796 66.13 26.9996 66.79 27.1696 67.39C27.5096 68.63 28.1096 69.96 29.2096 70.71C29.6796 71.04 30.2196 71.27 30.7896 71.31C31.0296 71.33 32.8996 71.13 32.8996 70.86L32.8096 58.43L32.7996 58.44Z" fill="#EBB58B"/>
<path d="M48.4198 92.78C48.4198 92.78 50.9298 107.91 45.2798 113.89H77.0898C77.0898 113.89 70.5998 101.83 74.1998 91.45L48.4098 92.78H48.4198Z" fill="#F6BD91"/>
<path d="M48.7999 104.09C49.9599 105.14 51.2599 105.91 52.6499 106.53C55.9199 107.99 59.3699 108.69 62.8099 107.69C66.0999 106.74 69.3099 104.48 71.1899 101.14C72.0699 99.58 72.6099 97.82 73.2699 96.14C73.4399 95.17 73.8499 92.42 74.1899 91.44L48.3999 92.77C48.3999 92.77 49.1399 99.17 48.7799 104.08L48.7999 104.09Z" fill="#E3B087"/>
<path d="M90.67 49.16C90.67 27.02 76.79 9.07001 59.68 9.07001C42.57 9.07001 28.69 27.01 28.69 49.16C28.69 59.86 28.1 68.89 33.39 78.33C38.1 86.71 43.79 90.97 52.13 97.04C52.13 97.04 60.21 103.27 68.69 97.98C76.34 91.19 85.62 84.7 89.16 74.31C91.82 66.49 90.67 57.36 90.67 49.16Z" fill="#F6BD91"/>
<path d="M67.6797 55.78C67.6797 55.78 68.4197 55.59 69.0797 55.94C77.8797 60.86 82.6997 53.62 82.6997 53.62C75.3497 45.85 69.0697 54.14 69.0697 54.14L67.6797 55.78Z" fill="white"/>
<path d="M79.2195 54.55C78.8995 56.59 76.9995 57.99 74.9595 57.67C72.9195 57.35 71.5195 55.45 71.8395 53.41C72.1495 51.37 74.0595 49.97 76.0995 50.29C78.1395 50.6 79.5395 52.51 79.2195 54.55Z" fill="#00B1C3"/>
<path d="M78.5898 54.45C78.3198 56.13 76.7498 57.29 75.0598 57.03C73.3798 56.77 72.2198 55.18 72.4798 53.5C72.7398 51.81 74.3198 50.65 76.0098 50.92C77.6998 51.18 78.8498 52.76 78.5998 54.45H78.5898Z" fill="#70C5C7"/>
<path d="M75.5898 53.96L78.1398 52.35C78.0798 52.26 78.0198 52.17 77.9598 52.09L75.5898 53.95V53.96Z" fill="#00B1C3"/>
<path d="M75.5896 53.97L78.4096 52.9C78.3696 52.81 78.3296 52.71 78.2796 52.61L75.5796 53.96L75.5896 53.97Z" fill="#00B1C3"/>
<path d="M75.5798 53.95L77.7498 51.86C77.6798 51.78 77.5998 51.71 77.5198 51.65L75.5698 53.95H75.5798Z" fill="#00B1C3"/>
<path d="M75.5898 53.99L78.6098 54.14C78.6098 54.04 78.6098 53.93 78.6098 53.83L75.5898 53.99Z" fill="#00B1C3"/>
<path d="M75.5898 53.97L78.5798 53.5C78.5598 53.4 78.5398 53.3 78.5198 53.2L75.5998 53.97H75.5898Z" fill="#00B1C3"/>
<path d="M75.5898 54L78.2999 55.34C78.3499 55.25 78.3898 55.15 78.4198 55.05L75.5898 53.9901V54Z" fill="#00B1C3"/>
<path d="M75.5796 54.01L77.9596 55.87C78.0196 55.79 78.0796 55.7 78.1396 55.61L75.5796 54V54.01Z" fill="#00B1C3"/>
<path d="M75.5598 53.93L76.7298 51.1501C76.6298 51.1101 76.5398 51.08 76.4398 51.05L75.5498 53.92L75.5598 53.93Z" fill="#00B1C3"/>
<path d="M75.5698 53.93L77.2798 51.45C77.1998 51.39 77.1098 51.34 77.0198 51.29L75.5698 53.93Z" fill="#00B1C3"/>
<path d="M75.4796 53.95L73.2996 51.86C73.2296 51.94 73.1596 52.01 73.0996 52.1L75.4796 53.96V53.95Z" fill="#00B1C3"/>
<path d="M75.4697 53.97L72.4797 53.51C72.4597 53.61 72.4497 53.72 72.4497 53.82L75.4697 53.97Z" fill="#00B1C3"/>
<path d="M75.4895 53.94L73.7695 51.46C73.6795 51.52 73.5995 51.58 73.5195 51.65L75.4795 53.95L75.4895 53.94Z" fill="#00B1C3"/>
<path d="M75.4698 53.95L72.9098 52.35C72.8498 52.44 72.7998 52.53 72.7598 52.62L75.4698 53.96V53.95Z" fill="#00B1C3"/>
<path d="M75.5297 53.92V50.9C75.4297 50.9 75.3197 50.9 75.2197 50.92L75.5197 53.91L75.5297 53.92Z" fill="#00B1C3"/>
<path d="M75.5096 53.92L74.8996 50.97C74.7996 50.99 74.6996 51.02 74.5996 51.05L75.4996 53.93L75.5096 53.92Z" fill="#00B1C3"/>
<path d="M75.4995 53.93L74.3195 51.16C74.2195 51.2 74.1296 51.25 74.0396 51.3L75.4995 53.94V53.93Z" fill="#00B1C3"/>
<path d="M75.4698 53.96L72.6398 52.91C72.5998 53 72.5698 53.1 72.5498 53.21L75.4698 53.96Z" fill="#00B1C3"/>
<path d="M75.4697 53.9901L72.4497 54.1501C72.4497 54.2601 72.4697 54.36 72.4797 54.46L75.4697 54V53.9901Z" fill="#00B1C3"/>
<path d="M75.5099 54.04L74.6099 56.92C74.7099 56.95 74.8099 56.98 74.9099 56.99L75.5099 54.04Z" fill="#00B1C3"/>
<path d="M75.4898 54.02L73.5298 56.32C73.6098 56.39 73.6998 56.45 73.7798 56.51L75.4898 54.03V54.02Z" fill="#00B1C3"/>
<path d="M75.4998 54.03L74.0498 56.67C74.1398 56.72 74.2298 56.76 74.3298 56.8L75.5098 54.03H75.4998Z" fill="#00B1C3"/>
<path d="M75.4698 53.9901L72.5498 54.76C72.5698 54.86 72.6098 54.9601 72.6398 55.0601L75.4698 54V53.9901Z" fill="#00B1C3"/>
<path d="M75.4796 54.01L73.0996 55.87C73.1596 55.95 73.2296 56.03 73.2996 56.11L75.4796 54.02V54.01Z" fill="#00B1C3"/>
<path d="M75.4698 54L72.7598 55.34C72.8098 55.44 72.8598 55.53 72.9098 55.62L75.4598 54.01L75.4698 54Z" fill="#00B1C3"/>
<path d="M75.5796 54.02L77.5296 56.33C77.6096 56.26 77.6896 56.19 77.7596 56.11L75.5796 54.02Z" fill="#00B1C3"/>
<path d="M75.5396 53.9201L76.1395 50.9701C76.0395 50.9501 75.9395 50.9301 75.8395 50.9301L75.5396 53.9201Z" fill="#00B1C3"/>
<path d="M75.5297 54.04L75.2197 57.04C75.3197 57.06 75.4297 57.06 75.5297 57.06V54.05V54.04Z" fill="#00B1C3"/>
<path d="M75.5396 54.04L75.8395 57.04C75.9395 57.04 76.0496 57.01 76.1496 57L75.5496 54.04H75.5396Z" fill="#00B1C3"/>
<path d="M75.5596 54.03L76.4496 56.91C76.5496 56.88 76.6496 56.84 76.7396 56.8L75.5596 54.02V54.03Z" fill="#00B1C3"/>
<path d="M75.5698 54.03L77.0298 56.67C77.1198 56.62 77.2098 56.56 77.2898 56.51L75.5798 54.02L75.5698 54.03Z" fill="#00B1C3"/>
<path d="M78.5798 54.44L75.5898 54L78.5098 54.76C78.5298 54.67 78.5598 54.56 78.5698 54.46V54.44H78.5798Z" fill="#00B1C3"/>
<path d="M76.9398 54.16C76.8198 54.9 76.1298 55.42 75.3798 55.3C74.6298 55.18 74.1198 54.48 74.2298 53.74C74.3498 53 75.0498 52.48 75.7898 52.6C76.5398 52.71 77.0498 53.41 76.9298 54.16H76.9398Z" fill="#1D1D1B"/>
<path d="M77.4397 53.57C77.3797 53.92 77.0597 54.16 76.7097 54.1C76.3597 54.05 76.1297 53.72 76.1797 53.38C76.2297 53.03 76.5597 52.79 76.8997 52.85C77.2397 52.91 77.4797 53.23 77.4297 53.58L77.4397 53.57Z" fill="white"/>
<path d="M67.6797 55.78C67.6797 55.78 72.1097 50.74 76.2697 50.74C76.2697 50.74 79.6297 50.69 82.6797 53.66C82.6797 53.66 84.4497 52.83 84.8597 51.34C84.8597 51.34 83.9797 52.16 81.8097 51.34C81.8097 51.34 77.5297 48.17 73.4397 49.87C73.4397 49.87 70.0197 51.34 67.6797 55.77V55.78Z" fill="#1D1D1B"/>
<path d="M82.6696 53.66C82.6696 53.66 78.5696 60.28 71.5796 57.06C71.5796 57.06 78.2796 59.84 82.1996 53.23L82.6596 53.65L82.6696 53.66Z" fill="#1D1D1B"/>
<path d="M68.9995 52.65C68.9995 52.65 69.3395 51.63 70.3695 50.39C70.8895 49.78 71.5795 49.1 72.4695 48.58C72.8995 48.3 73.3995 48.1 73.9095 47.9C74.4195 47.71 74.9595 47.57 75.5095 47.5C76.6195 47.4 77.7395 47.5 78.7095 47.78C79.6895 48.01 80.5695 48.49 81.2095 48.98C81.5295 49.22 81.8595 49.4 82.0595 49.67C82.2795 49.91 82.4695 50.12 82.6195 50.29C82.9195 50.64 83.0895 50.84 83.0895 50.84C83.0895 50.84 82.8695 50.69 82.4795 50.45C82.2895 50.32 82.0695 50.17 81.8095 49.99C81.5695 49.8 81.2195 49.7 80.8895 49.5C80.5595 49.31 80.1895 49.15 79.7895 49.03C79.4095 48.87 78.9095 48.81 78.4795 48.7C77.5695 48.47 76.5795 48.45 75.6295 48.58C73.6895 48.75 71.9295 49.84 70.7895 50.82C69.6295 51.81 68.9795 52.65 68.9795 52.65H68.9995Z" fill="#CF8D61"/>
<path d="M80.5899 51.47C80.5899 51.47 83.4699 51.32 83.9699 49.02C83.9699 49.02 82.6899 51.53 80.3599 50.95L80.5899 51.47Z" fill="#1D1D1B"/>
<path d="M81.7495 52.0201C81.7495 52.0201 84.6295 51.8801 85.1295 49.5701C85.1295 49.5701 83.8395 52.0801 81.5195 51.5101L81.7495 52.0301V52.0201Z" fill="#1D1D1B"/>
<path d="M80.0199 51.2901C80.0199 51.2901 82.6299 50.0701 82.2199 47.7401C82.2199 47.7401 81.9799 50.55 79.6099 50.89L80.0199 51.28V51.2901Z" fill="#1D1D1B"/>
<path d="M79.1698 50.78C79.1698 50.78 81.4198 49.7301 81.0598 47.7401C81.0598 47.7401 80.8498 50.1501 78.8198 50.4501L79.1698 50.7901V50.78Z" fill="#1D1D1B"/>
<path d="M52.8398 55.78C52.8398 55.78 52.0998 55.59 51.4398 55.94C42.6398 60.86 37.8198 53.62 37.8198 53.62C45.1798 45.85 51.4498 54.14 51.4498 54.14L52.8398 55.78Z" fill="white"/>
<path d="M41.2898 54.55C41.6098 56.59 43.5098 57.99 45.5498 57.67C47.5898 57.35 48.9798 55.45 48.6698 53.41C48.3498 51.37 46.4498 49.97 44.4098 50.29C42.3698 50.6 40.9798 52.51 41.2898 54.55Z" fill="#00B1C3"/>
<path d="M41.9295 54.45C42.1895 56.13 43.7695 57.29 45.4595 57.03C47.1495 56.77 48.2995 55.18 48.0395 53.5C47.7795 51.81 46.1995 50.65 44.5195 50.92C42.8295 51.18 41.6795 52.76 41.9395 54.45H41.9295Z" fill="#70C5C7"/>
<path d="M44.9299 53.96L42.3799 52.35C42.4299 52.26 42.4999 52.17 42.5599 52.09L44.9299 53.95V53.96Z" fill="#00B1C3"/>
<path d="M44.9296 53.97L42.0996 52.9C42.1396 52.81 42.1796 52.71 42.2296 52.61L44.9296 53.96V53.97Z" fill="#00B1C3"/>
<path d="M44.9298 53.95L42.7598 51.86C42.8298 51.78 42.8998 51.71 42.9898 51.65L44.9398 53.95H44.9298Z" fill="#00B1C3"/>
<path d="M44.9297 53.99L41.9097 54.14C41.9097 54.04 41.9097 53.93 41.9097 53.83L44.9297 53.99Z" fill="#00B1C3"/>
<path d="M44.9295 53.97L41.9395 53.5C41.9495 53.4 41.9795 53.3 42.0095 53.2L44.9295 53.97Z" fill="#00B1C3"/>
<path d="M44.9296 54L42.2196 55.34C42.1696 55.25 42.1296 55.15 42.0996 55.05L44.9296 53.9901V54Z" fill="#00B1C3"/>
<path d="M44.9296 54.01L42.5496 55.87C42.4896 55.79 42.4296 55.7 42.3696 55.61L44.9296 54V54.01Z" fill="#00B1C3"/>
<path d="M44.9595 53.93L43.7896 51.1501C43.8896 51.1101 43.9796 51.08 44.0796 51.05L44.9696 53.92L44.9595 53.93Z" fill="#00B1C3"/>
<path d="M44.9497 53.93L43.2397 51.45C43.3297 51.39 43.4197 51.34 43.5097 51.29L44.9597 53.93H44.9497Z" fill="#00B1C3"/>
<path d="M45.0396 53.95L47.2196 51.86C47.2896 51.94 47.3595 52.01 47.4195 52.1L45.0396 53.96V53.95Z" fill="#00B1C3"/>
<path d="M45.0498 53.97L48.0398 53.51C48.0598 53.61 48.0598 53.72 48.0698 53.82L45.0498 53.97Z" fill="#00B1C3"/>
<path d="M45.0298 53.94L46.7398 51.46C46.8298 51.52 46.9098 51.58 46.9898 51.65L45.0298 53.95V53.94Z" fill="#00B1C3"/>
<path d="M45.0396 53.95L47.5995 52.35C47.6595 52.44 47.7095 52.53 47.7495 52.62L45.0396 53.96V53.95Z" fill="#00B1C3"/>
<path d="M44.9897 53.92V50.9C45.0897 50.9 45.1997 50.9 45.2997 50.92L44.9997 53.91L44.9897 53.92Z" fill="#00B1C3"/>
<path d="M44.9995 53.92L45.5995 50.97C45.6995 50.99 45.7995 51.02 45.8995 51.05L44.9995 53.93V53.92Z" fill="#00B1C3"/>
<path d="M45.0195 53.93L46.2095 51.16C46.2995 51.2 46.3995 51.25 46.4895 51.3L45.0295 53.94L45.0195 53.93Z" fill="#00B1C3"/>
<path d="M45.0396 53.96L47.8796 52.91C47.9096 53 47.9496 53.1 47.9696 53.21L45.0396 53.96Z" fill="#00B1C3"/>
<path d="M45.0498 53.9901L48.0698 54.1501C48.0698 54.2601 48.0598 54.36 48.0398 54.46L45.0498 54V53.9901Z" fill="#00B1C3"/>
<path d="M45.0098 54.04L45.9098 56.92C45.8098 56.95 45.7098 56.98 45.6098 56.99L45.0098 54.04Z" fill="#00B1C3"/>
<path d="M45.0298 54.02L46.9898 56.32C46.9098 56.39 46.8298 56.45 46.7398 56.51L45.0298 54.03V54.02Z" fill="#00B1C3"/>
<path d="M45.0195 54.03L46.4795 56.67C46.3895 56.72 46.2895 56.76 46.1995 56.8L45.0195 54.03Z" fill="#00B1C3"/>
<path d="M45.0498 53.9901L47.9698 54.76C47.9398 54.86 47.9098 54.9601 47.8798 55.0601L45.0498 54V53.9901Z" fill="#00B1C3"/>
<path d="M45.0396 54.01L47.4195 55.87C47.3595 55.95 47.2896 56.03 47.2196 56.11L45.0396 54.02V54.01Z" fill="#00B1C3"/>
<path d="M45.0396 54L47.7396 55.34C47.6996 55.44 47.6396 55.53 47.5896 55.62L45.0396 54.01V54Z" fill="#00B1C3"/>
<path d="M44.9295 54.02L42.9795 56.33C42.8995 56.26 42.8295 56.19 42.7495 56.11L44.9195 54.02H44.9295Z" fill="#00B1C3"/>
<path d="M44.9799 53.9201L44.3799 50.9701C44.4799 50.9501 44.5799 50.9301 44.6799 50.9301L44.9799 53.9201Z" fill="#00B1C3"/>
<path d="M44.9795 54.04L45.2895 57.04C45.1895 57.06 45.0795 57.06 44.9795 57.06V54.05V54.04Z" fill="#00B1C3"/>
<path d="M44.9796 54.04L44.6796 57.04C44.5796 57.04 44.4696 57.01 44.3696 57L44.9696 54.04H44.9796Z" fill="#00B1C3"/>
<path d="M44.9598 54.03L44.0698 56.91C43.9698 56.88 43.8698 56.84 43.7798 56.8L44.9598 54.02V54.03Z" fill="#00B1C3"/>
<path d="M44.9497 54.03L43.4897 56.67C43.3997 56.62 43.3097 56.56 43.2197 56.51L44.9297 54.02L44.9497 54.03Z" fill="#00B1C3"/>
<path d="M41.9395 54.44L44.9295 54L41.9995 54.76C41.9695 54.67 41.9495 54.56 41.9395 54.46V54.44Z" fill="#00B1C3"/>
<path d="M43.5796 54.16C43.6896 54.9 44.3896 55.42 45.1396 55.3C45.8896 55.18 46.3996 54.48 46.2796 53.74C46.1596 53 45.4696 52.48 44.7196 52.6C43.9696 52.71 43.4696 53.41 43.5796 54.16Z" fill="#1D1D1B"/>
<path d="M43.0798 53.57C43.1398 53.92 43.4598 54.16 43.8098 54.1C44.1598 54.05 44.3898 53.72 44.3398 53.38C44.2898 53.03 43.9598 52.79 43.6098 52.85C43.2698 52.91 43.0298 53.23 43.0798 53.58V53.57Z" fill="white"/>
<path d="M52.8397 55.78C52.8397 55.78 48.4197 50.74 44.2497 50.74C44.2497 50.74 40.8797 50.69 37.8397 53.66C37.8397 53.66 36.0697 52.83 35.6597 51.34C35.6597 51.34 36.5397 52.16 38.7097 51.34C38.7097 51.34 42.9897 48.17 47.0697 49.87C47.0697 49.87 50.4897 51.34 52.8297 55.77L52.8397 55.78Z" fill="#1D1D1B"/>
<path d="M37.8398 53.66C37.8398 53.66 41.9498 60.28 48.9298 57.06C48.9298 57.06 42.2298 59.84 38.2998 53.23L37.8398 53.65V53.66Z" fill="#1D1D1B"/>
<path d="M51.5094 52.65C51.5094 52.65 50.8694 51.8 49.6994 50.82C48.5494 49.84 46.7994 48.75 44.8594 48.58C43.8994 48.45 42.9094 48.48 42.0094 48.7C41.5694 48.81 41.0794 48.87 40.6994 49.03C40.2994 49.16 39.9294 49.31 39.5994 49.5C39.2794 49.69 38.9194 49.79 38.6794 49.99C38.4194 50.17 38.1894 50.32 38.0094 50.45C37.6194 50.7 37.3994 50.84 37.3994 50.84C37.3994 50.84 37.5694 50.64 37.8694 50.29C38.0294 50.12 38.2194 49.91 38.4294 49.67C38.6394 49.4 38.9594 49.22 39.2794 48.98C39.9194 48.49 40.7994 48.01 41.7794 47.78C42.7594 47.49 43.8794 47.4 44.9794 47.5C45.5394 47.57 46.0694 47.71 46.5894 47.9C47.0994 48.09 47.5994 48.3 48.0294 48.58C48.9194 49.1 49.5994 49.78 50.1294 50.39C51.1694 51.63 51.5094 52.65 51.5094 52.65Z" fill="#CF8D61"/>
<path d="M39.9298 51.47C39.9298 51.47 37.0498 51.32 36.5498 49.02C36.5498 49.02 37.8298 51.53 40.1598 50.95L39.9298 51.47Z" fill="#1D1D1B"/>
<path d="M38.7696 52.02C38.7696 52.02 35.8896 51.88 35.3896 49.57C35.3896 49.57 36.6696 52.08 38.9996 51.51L38.7696 52.03V52.02Z" fill="#1D1D1B"/>
<path d="M40.4995 51.29C40.4995 51.29 37.8795 50.07 38.2995 47.74C38.2995 47.74 38.5395 50.55 40.9095 50.89L40.4995 51.28V51.29Z" fill="#1D1D1B"/>
<path d="M41.3397 50.78C41.3397 50.78 39.0897 49.73 39.4497 47.74C39.4497 47.74 39.6597 50.15 41.6897 50.45L41.3397 50.79V50.78Z" fill="#1D1D1B"/>
<path d="M55.4998 48.68C55.3898 48.34 57.0998 58.73 55.1798 70.36C55.1798 70.36 52.4498 75.89 57.4198 75.89C57.4198 75.89 55.2998 75.44 56.2998 71.83C56.2998 71.83 59.3298 60.65 55.4998 48.69V48.68Z" fill="#EDAB7E"/>
<path d="M63.3398 70.47C63.3398 70.47 66.3898 73.74 63.3398 75.44C63.3398 75.44 65.8198 75.44 65.9398 72.95C65.9398 72.95 65.7098 70.24 63.3398 70.47Z" fill="#EDAB7E"/>
<path d="M57.98 75.43C57.98 75.43 58.32 75.26 58.92 75.37C59.06 75.42 59.23 75.46 59.38 75.58C59.54 75.66 59.7 75.88 59.79 76.02C59.87 76.13 59.94 76.17 60.02 76.25C60.1 76.31 60.15 76.3 60.2 76.31C60.27 76.27 60.34 76.31 60.45 76.2C60.55 76.13 60.67 76.09 60.76 75.97C60.86 75.86 60.97 75.78 61.08 75.69C61.18 75.6 61.4 75.44 61.54 75.4C61.84 75.28 62.09 75.34 62.25 75.36C62.41 75.39 62.5 75.42 62.5 75.42C62.5 75.42 62.41 75.47 62.27 75.53C62.13 75.57 61.96 75.7 61.8 75.84C61.71 75.92 61.7 75.93 61.63 76.07C61.55 76.21 61.46 76.36 61.35 76.51C61.15 76.79 60.8 77.12 60.23 77.19C59.94 77.17 59.66 77.07 59.47 76.9C59.29 76.75 59.16 76.52 59.09 76.35C59.01 76.21 59.04 76.14 58.95 76.05C58.9 75.95 58.8 75.89 58.72 75.81C58.35 75.54 57.99 75.4 57.99 75.4L57.98 75.43Z" fill="#EDAB7E"/>
<path d="M53.6698 43.31C53.6698 43.31 42.7998 39.7 38.6898 39.7C38.6898 39.7 35.1398 39.51 33.0498 43.97C33.0498 43.97 35.8198 41.05 39.7098 42.1L53.6698 45.69C53.6698 45.69 54.8098 44.55 53.6698 43.31Z" fill="#432918"/>
<path d="M66.1199 43.31C66.1199 43.31 76.9899 39.7 81.0999 39.7C81.0999 39.7 84.6499 39.51 86.7399 43.97C86.7399 43.97 83.9699 41.05 80.0799 42.1L66.1199 45.69C66.1199 45.69 64.9799 44.55 66.1199 43.31Z" fill="#432918"/>
<path d="M65.0199 81.57C62.1299 80.15 60.7299 81.57 60.7299 81.57C60.7299 81.57 59.3199 80.15 56.4399 81.57C56.4399 81.57 52.2299 83.47 50.3599 83.34C51.7899 83.51 59.0999 84.33 60.7399 84.01C62.3799 84.33 69.1199 83.5 70.5399 83.33C68.6699 83.45 65.0299 81.57 65.0299 81.57H65.0199Z" fill="#EE706F"/>
<path d="M50.3501 83.34C50.3501 83.34 54.9101 88.27 60.7301 88.16C60.7301 88.16 67.0101 87.93 70.5301 83.33H51.0501L50.3501 83.34Z" fill="#EE706F"/>
<path d="M51.9602 83.84C53.4402 83.95 54.9102 84.02 56.3802 84C57.1102 83.97 57.8502 83.98 58.5702 83.88C58.9302 83.82 59.3002 83.8 59.6502 83.72L60.6902 83.44L60.7702 83.42H60.8202C62.1402 83.72 63.4902 83.88 64.8402 84C65.5202 84.03 66.2002 84.09 66.8802 84.05C67.5702 84.08 68.2402 83.97 68.9202 83.91C68.2502 84.04 67.5802 84.22 66.8902 84.26C66.2002 84.34 65.5102 84.32 64.8202 84.33C63.4402 84.29 62.0702 84.12 60.7102 83.86H60.8402L59.7302 84.14C59.3602 84.22 58.9802 84.23 58.6102 84.28C58.2402 84.34 57.8602 84.34 57.4902 84.35C57.1202 84.35 56.7402 84.38 56.3702 84.35C54.8802 84.31 53.4002 84.11 51.9502 83.83L51.9602 83.84Z" fill="#EB5766"/>
<path opacity="0.2" d="M67.0199 84.96C64.7599 85.36 62.4099 85.69 60.1099 85.58C58.8799 85.53 57.6499 85.4 56.4199 85.26C55.4899 85.15 54.5699 85.07 53.6799 84.74C52.7899 84.4 51.7999 84.06 51.0299 83.49C50.9499 83.43 50.8599 83.38 50.7699 83.31C50.6399 83.31 50.5099 83.34 50.3999 83.33C50.3999 83.33 54.9599 88.26 60.7799 88.15C60.7799 88.15 66.7499 87.93 70.3099 83.65C70.2699 83.65 70.2199 83.67 70.1799 83.68C69.3199 84.42 68.1399 84.76 67.0199 84.96Z" fill="white"/>
<path d="M69.9602 83.29C66.3902 87.48 60.5102 87.7 60.5102 87.7C55.7702 87.79 51.8602 84.53 50.5802 83.32C50.5302 83.32 50.4602 83.33 50.4102 83.32C50.4102 83.32 54.9702 88.25 60.7902 88.14C60.7902 88.14 67.0802 87.91 70.6002 83.31C70.4102 83.32 70.1902 83.3 69.9602 83.28V83.29Z" fill="#EB5766"/>
<path d="M50.7299 83.65C52.7199 83.59 56.4899 81.89 56.4899 81.89C59.3799 80.48 60.7799 81.89 60.7799 81.89C60.7799 81.89 62.1899 80.48 65.0799 81.89C65.0799 81.89 68.3899 83.6 70.3199 83.64C70.4099 83.53 70.5099 83.43 70.5999 83.31C68.7299 83.43 65.0899 81.55 65.0899 81.55C62.1999 80.14 60.7899 81.55 60.7899 81.55C60.7899 81.55 59.3799 80.14 56.4999 81.55C56.4999 81.55 52.2899 83.45 50.4199 83.33C50.4199 83.33 50.5399 83.46 50.7399 83.65H50.7299Z" fill="#EB5766"/>
<path d="M67.8999 84.37C67.8999 84.37 64.0799 86.36 59.0599 85.52C59.0599 85.52 58.3999 85.98 59.0599 86.29C59.0599 86.29 64.1199 87.07 67.8999 84.37Z" fill="white"/>
<path d="M122.34 146.54C123.11 127.37 109.86 120.7 109.86 120.7L74.1699 111.06L61.2299 110.15H61.1799H61.1299L48.1899 111.06L12.4999 120.7C12.4999 120.7 -0.740112 127.37 0.0298879 146.54H122.34Z" fill="#F6BD91"/>
<path d="M42.37 25.45C42.37 25.45 33 32.27 28.66 53.3C28.66 53.3 26.91 52.08 25.22 53.95C25.22 53.95 17.34 11.88 45.14 7.27002L42.37 25.45Z" fill="#432918"/>
<path d="M85.3601 9.41002C85.2801 9.30002 85.2001 9.19002 85.1301 9.08002C85.1301 9.08002 83.7401 7.40002 81.1101 5.47002C75.9001 1.66002 65.8001 -3.04998 51.9701 2.65002C51.9701 2.65002 40.2201 7.54002 40.1701 18.03C40.0601 37.69 85.1401 46.96 85.1401 46.96L86.7301 48.89L86.7601 49.1C86.7601 49.1 92.8401 112.04 78.6401 125.79C78.6401 125.79 98.9101 127.65 103.02 113.93C103.02 113.93 116.47 41.61 85.3801 9.41002H85.3601Z" fill="#432918"/>
<path d="M41.8797 103.47H23.1597C26.0197 117.18 32.0997 126.95 43.8497 125.88C43.8497 125.88 39.6997 113.61 41.8797 103.47Z" fill="#432918"/>
<path d="M32.6299 71.83C32.6299 73.08 31.6199 74.09 30.3699 74.09C29.1199 74.09 28.1099 73.08 28.1099 71.83C28.1099 70.58 29.1199 69.57 30.3699 69.57C31.6199 69.57 32.6299 70.58 32.6299 71.83Z" fill="white"/>
<path d="M30.3699 69.57C30.1499 69.57 29.9399 69.61 29.7399 69.67C30.3599 70.03 30.8499 70.61 30.9699 71.35C31.1099 72.2 30.7799 73.15 29.8299 73.33C29.4099 73.41 29.0099 73.38 28.6499 73.27C29.0599 73.76 29.6799 74.08 30.3699 74.08C31.6199 74.08 32.6299 73.07 32.6299 71.82C32.6299 70.57 31.6199 69.56 30.3699 69.56V69.57Z" fill="#DADADA"/>
<path d="M99.1898 146.54C98.1098 144.46 94.8098 136.07 99.4698 117.67L92.2598 115.72C92.2598 115.72 88.9298 134.27 73.8198 146.54H99.1998H99.1898Z" fill="#D42A26"/>
<path d="M23.4399 146.54H48.8199C33.7099 134.27 30.3799 115.72 30.3799 115.72L23.1699 117.67C27.8299 136.07 24.5299 144.46 23.4499 146.54H23.4399Z" fill="#D42A26"/>
</g>
<defs>
<clipPath id="clip0_473_3969">
<rect width="122.37" height="146.54" fill="white"/>
</clipPath>
</defs>
</svg>
