<svg width="100%" height="auto" viewBox="0 0 488 307" fill="none" xmlns="http://www.w3.org/2000/svg">
<g filter="url(#filter0_d_16_180)">
<rect x="2" y="1" width="484" height="303" rx="8" fill="white"/>
<path d="M25.625 23.4205C25.5644 22.8826 25.3144 22.4659 24.875 22.1705C24.4356 21.8712 23.8826 21.7216 23.2159 21.7216C22.7386 21.7216 22.3258 21.7973 21.9773 21.9489C21.6288 22.0966 21.358 22.3011 21.1648 22.5625C20.9754 22.8201 20.8807 23.1136 20.8807 23.4432C20.8807 23.7197 20.9451 23.9583 21.0739 24.1591C21.2064 24.3598 21.3788 24.5284 21.5909 24.6648C21.8068 24.7973 22.0379 24.9091 22.2841 25C22.5303 25.0871 22.767 25.1591 22.9943 25.2159L24.1307 25.5114C24.5019 25.6023 24.8826 25.7254 25.2727 25.8807C25.6629 26.036 26.0246 26.2405 26.358 26.4943C26.6913 26.7481 26.9602 27.0625 27.1648 27.4375C27.3731 27.8125 27.4773 28.2614 27.4773 28.7841C27.4773 29.4432 27.3068 30.0284 26.9659 30.5398C26.6288 31.0511 26.1383 31.4545 25.4943 31.75C24.8542 32.0455 24.0795 32.1932 23.1705 32.1932C22.2992 32.1932 21.5455 32.0549 20.9091 31.7784C20.2727 31.5019 19.7746 31.1098 19.4148 30.6023C19.0549 30.0909 18.8561 29.4848 18.8182 28.7841H20.5795C20.6136 29.2045 20.75 29.5549 20.9886 29.8352C21.2311 30.1117 21.5398 30.3182 21.9148 30.4545C22.2936 30.5871 22.7083 30.6534 23.1591 30.6534C23.6553 30.6534 24.0966 30.5758 24.483 30.4205C24.8731 30.2614 25.1799 30.0417 25.4034 29.7614C25.6269 29.4773 25.7386 29.1458 25.7386 28.767C25.7386 28.4223 25.6402 28.1402 25.4432 27.9205C25.25 27.7008 24.9867 27.5189 24.6534 27.375C24.3239 27.2311 23.9508 27.1042 23.5341 26.9943L22.1591 26.6193C21.2273 26.3655 20.4886 25.9924 19.9432 25.5C19.4015 25.0076 19.1307 24.3561 19.1307 23.5455C19.1307 22.875 19.3125 22.2898 19.6761 21.7898C20.0398 21.2898 20.5322 20.9015 21.1534 20.625C21.7746 20.3447 22.4754 20.2045 23.2557 20.2045C24.0436 20.2045 24.7386 20.3428 25.3409 20.6193C25.947 20.8958 26.4242 21.2765 26.7727 21.7614C27.1212 22.2424 27.303 22.7955 27.3182 23.4205H25.625ZM31.9787 32.1932C31.4257 32.1932 30.9257 32.0909 30.4787 31.8864C30.0317 31.678 29.6776 31.3769 29.4162 30.983C29.1586 30.589 29.0298 30.1061 29.0298 29.5341C29.0298 29.0417 29.1245 28.6364 29.3139 28.3182C29.5033 28 29.759 27.7481 30.081 27.5625C30.4029 27.3769 30.7628 27.2367 31.1605 27.142C31.5582 27.0473 31.9635 26.9754 32.3764 26.9261C32.8991 26.8655 33.3234 26.8163 33.6491 26.7784C33.9749 26.7367 34.2116 26.6705 34.3594 26.5795C34.5071 26.4886 34.581 26.3409 34.581 26.1364V26.0966C34.581 25.6004 34.4408 25.2159 34.1605 24.9432C33.884 24.6705 33.4711 24.5341 32.9219 24.5341C32.3499 24.5341 31.8991 24.661 31.5696 24.9148C31.2438 25.1648 31.0185 25.4432 30.8935 25.75L29.2969 25.3864C29.4863 24.8561 29.7628 24.428 30.1264 24.1023C30.4938 23.7727 30.9162 23.5341 31.3935 23.3864C31.8707 23.2348 32.3726 23.1591 32.8991 23.1591C33.2476 23.1591 33.617 23.2008 34.0071 23.2841C34.401 23.3636 34.7685 23.5114 35.1094 23.7273C35.4541 23.9432 35.7363 24.2519 35.956 24.6534C36.1757 25.0511 36.2855 25.5682 36.2855 26.2045V32H34.6264V30.8068H34.5582C34.4484 31.0265 34.2836 31.2424 34.0639 31.4545C33.8442 31.6667 33.562 31.8428 33.2173 31.983C32.8726 32.1231 32.4598 32.1932 31.9787 32.1932ZM32.348 30.8295C32.8177 30.8295 33.2192 30.7367 33.5526 30.5511C33.8897 30.3655 34.1454 30.1231 34.3196 29.8239C34.4976 29.5208 34.5866 29.197 34.5866 28.8523V27.7273C34.526 27.7879 34.4086 27.8447 34.2344 27.8977C34.0639 27.947 33.8688 27.9905 33.6491 28.0284C33.4295 28.0625 33.2154 28.0947 33.0071 28.125C32.7988 28.1515 32.6245 28.1742 32.4844 28.1932C32.1548 28.2348 31.8537 28.3049 31.581 28.4034C31.312 28.5019 31.0961 28.6439 30.9332 28.8295C30.7741 29.0114 30.6946 29.2538 30.6946 29.5568C30.6946 29.9773 30.8499 30.2955 31.1605 30.5114C31.4711 30.7235 31.867 30.8295 32.348 30.8295ZM40.2472 20.3636V32H38.5483V20.3636H40.2472ZM46.294 32.1761C45.4342 32.1761 44.6937 31.9924 44.0724 31.625C43.455 31.2538 42.9777 30.733 42.6406 30.0625C42.3073 29.3883 42.1406 28.5985 42.1406 27.6932C42.1406 26.7992 42.3073 26.0114 42.6406 25.3295C42.9777 24.6477 43.4474 24.1155 44.0497 23.733C44.6558 23.3504 45.3641 23.1591 46.1747 23.1591C46.6671 23.1591 47.1444 23.2405 47.6065 23.4034C48.0687 23.5663 48.4834 23.822 48.8509 24.1705C49.2183 24.5189 49.508 24.9716 49.7202 25.5284C49.9323 26.0814 50.0384 26.7538 50.0384 27.5455V28.1477H43.1009V26.875H48.3736C48.3736 26.428 48.2827 26.0322 48.1009 25.6875C47.919 25.339 47.6634 25.0644 47.3338 24.8636C47.008 24.6629 46.6255 24.5625 46.1861 24.5625C45.7088 24.5625 45.2921 24.6799 44.9361 24.9148C44.5838 25.1458 44.3111 25.4489 44.1179 25.8239C43.9285 26.1951 43.8338 26.5985 43.8338 27.0341V28.0284C43.8338 28.6117 43.9361 29.108 44.1406 29.517C44.349 29.9261 44.6387 30.2386 45.0099 30.4545C45.3812 30.6667 45.8149 30.7727 46.3111 30.7727C46.633 30.7727 46.9266 30.7273 47.1918 30.6364C47.4569 30.5417 47.6861 30.4015 47.8793 30.2159C48.0724 30.0303 48.2202 29.8011 48.3224 29.5284L49.9304 29.8182C49.8016 30.2917 49.5705 30.7064 49.2372 31.0625C48.9077 31.4148 48.4929 31.6894 47.9929 31.8864C47.4967 32.0795 46.9304 32.1761 46.294 32.1761ZM58.4631 25.4034L56.9233 25.6761C56.8589 25.4792 56.7566 25.2917 56.6165 25.1136C56.4801 24.9356 56.2945 24.7898 56.0597 24.6761C55.8248 24.5625 55.5313 24.5057 55.179 24.5057C54.6979 24.5057 54.2964 24.6136 53.9744 24.8295C53.6525 25.0417 53.4915 25.3163 53.4915 25.6534C53.4915 25.9451 53.5994 26.1799 53.8153 26.358C54.0313 26.536 54.3797 26.6818 54.8608 26.7955L56.2472 27.1136C57.0502 27.2992 57.6487 27.5852 58.0426 27.9716C58.4366 28.358 58.6335 28.8598 58.6335 29.4773C58.6335 30 58.482 30.4659 58.179 30.875C57.8797 31.2803 57.4612 31.5985 56.9233 31.8295C56.3892 32.0606 55.7699 32.1761 55.0653 32.1761C54.0881 32.1761 53.2907 31.9678 52.6733 31.5511C52.0559 31.1307 51.6771 30.5341 51.5369 29.7614L53.179 29.5114C53.2813 29.9394 53.4915 30.2633 53.8097 30.483C54.1278 30.6989 54.5426 30.8068 55.054 30.8068C55.6108 30.8068 56.0559 30.6913 56.3892 30.4602C56.7225 30.2254 56.8892 29.9394 56.8892 29.6023C56.8892 29.3295 56.7869 29.1004 56.5824 28.9148C56.3816 28.7292 56.0729 28.589 55.6562 28.4943L54.179 28.1705C53.3646 27.9848 52.7623 27.6894 52.3722 27.2841C51.9858 26.8788 51.7926 26.3655 51.7926 25.7443C51.7926 25.2292 51.9366 24.7784 52.2244 24.392C52.5123 24.0057 52.91 23.7045 53.4176 23.4886C53.9252 23.2689 54.5066 23.1591 55.1619 23.1591C56.1051 23.1591 56.8475 23.3636 57.3892 23.7727C57.9309 24.178 58.2888 24.7216 58.4631 25.4034ZM65.8892 20.3636L69.1278 29.8409H69.2585L72.4972 20.3636H74.3949L70.2074 32H68.179L63.9915 20.3636H65.8892ZM78.7401 32.1761C77.9219 32.1761 77.2079 31.9886 76.598 31.6136C75.9882 31.2386 75.5147 30.714 75.1776 30.0398C74.8404 29.3655 74.6719 28.5777 74.6719 27.6761C74.6719 26.7708 74.8404 25.9792 75.1776 25.3011C75.5147 24.6231 75.9882 24.0966 76.598 23.7216C77.2079 23.3466 77.9219 23.1591 78.7401 23.1591C79.5582 23.1591 80.2723 23.3466 80.8821 23.7216C81.492 24.0966 81.9654 24.6231 82.3026 25.3011C82.6397 25.9792 82.8082 26.7708 82.8082 27.6761C82.8082 28.5777 82.6397 29.3655 82.3026 30.0398C81.9654 30.714 81.492 31.2386 80.8821 31.6136C80.2723 31.9886 79.5582 32.1761 78.7401 32.1761ZM78.7457 30.75C79.276 30.75 79.7154 30.6098 80.0639 30.3295C80.4124 30.0492 80.67 29.6761 80.8366 29.2102C81.0071 28.7443 81.0923 28.2311 81.0923 27.6705C81.0923 27.1136 81.0071 26.6023 80.8366 26.1364C80.67 25.6667 80.4124 25.2898 80.0639 25.0057C79.7154 24.7216 79.276 24.5795 78.7457 24.5795C78.2116 24.5795 77.7685 24.7216 77.4162 25.0057C77.0677 25.2898 76.8082 25.6667 76.6378 26.1364C76.4711 26.6023 76.3878 27.1136 76.3878 27.6705C76.3878 28.2311 76.4711 28.7443 76.6378 29.2102C76.8082 29.6761 77.0677 30.0492 77.4162 30.3295C77.7685 30.6098 78.2116 30.75 78.7457 30.75ZM86.4034 20.3636V32H84.7045V20.3636H86.4034ZM94.2173 28.3807V23.2727H95.9219V32H94.2514V30.4886H94.1605C93.9598 30.9545 93.6378 31.3428 93.1946 31.6534C92.7552 31.9602 92.2079 32.1136 91.5526 32.1136C90.992 32.1136 90.4957 31.9905 90.0639 31.7443C89.6359 31.4943 89.2988 31.125 89.0526 30.6364C88.8101 30.1477 88.6889 29.5436 88.6889 28.8239V23.2727H90.3878V28.6193C90.3878 29.214 90.5526 29.6875 90.8821 30.0398C91.2116 30.392 91.6397 30.5682 92.1662 30.5682C92.4844 30.5682 92.8007 30.4886 93.1151 30.3295C93.4332 30.1705 93.6965 29.9299 93.9048 29.608C94.117 29.286 94.2211 28.8769 94.2173 28.3807ZM98.2045 32V23.2727H99.8352V24.6932H99.9432C100.125 24.2121 100.422 23.8371 100.835 23.5682C101.248 23.2955 101.742 23.1591 102.318 23.1591C102.902 23.1591 103.39 23.2955 103.784 23.5682C104.182 23.8409 104.475 24.2159 104.665 24.6932H104.756C104.964 24.2273 105.295 23.8561 105.75 23.5795C106.205 23.2992 106.746 23.1591 107.375 23.1591C108.167 23.1591 108.812 23.4072 109.312 23.9034C109.816 24.3996 110.068 25.1477 110.068 26.1477V32H108.369V26.3068C108.369 25.7159 108.208 25.2879 107.886 25.0227C107.564 24.7576 107.18 24.625 106.733 24.625C106.18 24.625 105.75 24.7955 105.443 25.1364C105.136 25.4735 104.983 25.9072 104.983 26.4375V32H103.29V26.1989C103.29 25.7254 103.142 25.3447 102.847 25.0568C102.551 24.7689 102.167 24.625 101.693 24.625C101.371 24.625 101.074 24.7102 100.801 24.8807C100.532 25.0473 100.314 25.2803 100.148 25.5795C99.9848 25.8788 99.9034 26.2254 99.9034 26.6193V32H98.2045ZM116.107 32.1761C115.247 32.1761 114.506 31.9924 113.885 31.625C113.268 31.2538 112.79 30.733 112.453 30.0625C112.12 29.3883 111.953 28.5985 111.953 27.6932C111.953 26.7992 112.12 26.0114 112.453 25.3295C112.79 24.6477 113.26 24.1155 113.862 23.733C114.468 23.3504 115.177 23.1591 115.987 23.1591C116.48 23.1591 116.957 23.2405 117.419 23.4034C117.881 23.5663 118.296 23.822 118.663 24.1705C119.031 24.5189 119.321 24.9716 119.533 25.5284C119.745 26.0814 119.851 26.7538 119.851 27.5455V28.1477H112.913V26.875H118.186C118.186 26.428 118.095 26.0322 117.913 25.6875C117.732 25.339 117.476 25.0644 117.146 24.8636C116.821 24.6629 116.438 24.5625 115.999 24.5625C115.521 24.5625 115.105 24.6799 114.749 24.9148C114.396 25.1458 114.124 25.4489 113.93 25.8239C113.741 26.1951 113.646 26.5985 113.646 27.0341V28.0284C113.646 28.6117 113.749 29.108 113.953 29.517C114.161 29.9261 114.451 30.2386 114.822 30.4545C115.194 30.6667 115.627 30.7727 116.124 30.7727C116.446 30.7727 116.739 30.7273 117.004 30.6364C117.269 30.5417 117.499 30.4015 117.692 30.2159C117.885 30.0303 118.033 29.8011 118.135 29.5284L119.743 29.8182C119.614 30.2917 119.383 30.7064 119.05 31.0625C118.72 31.4148 118.305 31.6894 117.805 31.8864C117.309 32.0795 116.743 32.1761 116.107 32.1761Z" fill="#171717"/>
<path d="M21.75 52H19.0568V43.2727H21.8693C22.7159 43.2727 23.4403 43.4474 24.0426 43.7969C24.6449 44.1435 25.1065 44.642 25.4276 45.2926C25.7486 45.9403 25.9091 46.7159 25.9091 47.6193C25.9091 48.5284 25.7472 49.3111 25.4233 49.9673C25.0994 50.6207 24.6278 51.1236 24.0085 51.4759C23.3892 51.8253 22.6364 52 21.75 52ZM20.1136 51.0625H21.6818C22.4034 51.0625 23.0014 50.9233 23.4759 50.6449C23.9503 50.3665 24.304 49.9702 24.5369 49.456C24.7699 48.9418 24.8864 48.3295 24.8864 47.6193C24.8864 46.9148 24.7713 46.3082 24.5412 45.7997C24.3111 45.2884 23.9673 44.8963 23.5099 44.6236C23.0526 44.348 22.483 44.2102 21.8011 44.2102H20.1136V51.0625ZM27.5455 52V45.4545H28.5511V52H27.5455ZM28.0568 44.3636C27.8608 44.3636 27.6918 44.2969 27.5497 44.1634C27.4105 44.0298 27.3409 43.8693 27.3409 43.6818C27.3409 43.4943 27.4105 43.3338 27.5497 43.2003C27.6918 43.0668 27.8608 43 28.0568 43C28.2528 43 28.4205 43.0668 28.5597 43.2003C28.7017 43.3338 28.7727 43.4943 28.7727 43.6818C28.7727 43.8693 28.7017 44.0298 28.5597 44.1634C28.4205 44.2969 28.2528 44.3636 28.0568 44.3636ZM35.0295 46.9205L34.1261 47.1761C34.0692 47.0256 33.9854 46.8793 33.8746 46.7372C33.7667 46.5923 33.619 46.473 33.4315 46.3793C33.244 46.2855 33.0039 46.2386 32.7113 46.2386C32.3107 46.2386 31.9769 46.331 31.7099 46.5156C31.4457 46.6974 31.3136 46.929 31.3136 47.2102C31.3136 47.4602 31.4045 47.6577 31.5863 47.8026C31.7681 47.9474 32.0522 48.0682 32.4386 48.1648L33.4102 48.4034C33.9954 48.5455 34.4315 48.7628 34.7184 49.0554C35.0053 49.3452 35.1488 49.7187 35.1488 50.1761C35.1488 50.5511 35.0408 50.8864 34.8249 51.1818C34.6119 51.4773 34.3136 51.7102 33.93 51.8807C33.5465 52.0511 33.1005 52.1364 32.592 52.1364C31.9244 52.1364 31.3718 51.9915 30.9343 51.7017C30.4968 51.4119 30.2198 50.9886 30.1033 50.4318L31.0579 50.1932C31.1488 50.5455 31.3207 50.8097 31.5735 50.9858C31.8292 51.1619 32.163 51.25 32.5749 51.25C33.0437 51.25 33.4158 51.1506 33.6914 50.9517C33.9698 50.75 34.109 50.5085 34.109 50.2273C34.109 50 34.0295 49.8097 33.8704 49.6562C33.7113 49.5 33.467 49.3835 33.1374 49.3068L32.0465 49.0511C31.4471 48.9091 31.0067 48.6889 30.7255 48.3906C30.4471 48.0895 30.3079 47.7131 30.3079 47.2614C30.3079 46.892 30.4116 46.5653 30.619 46.2812C30.8292 45.9972 31.1147 45.7741 31.4755 45.6122C31.8391 45.4503 32.2511 45.3693 32.7113 45.3693C33.359 45.3693 33.8675 45.5114 34.2369 45.7955C34.609 46.0795 34.8732 46.4545 35.0295 46.9205ZM36.6626 54.4545V45.4545H37.6342V46.4943H37.7536C37.8274 46.3807 37.9297 46.2358 38.0604 46.0597C38.1939 45.8807 38.3842 45.7216 38.6314 45.5824C38.8814 45.4403 39.2195 45.3693 39.6456 45.3693C40.1967 45.3693 40.6825 45.5071 41.103 45.7827C41.5234 46.0582 41.8516 46.4489 42.0874 46.9545C42.3232 47.4602 42.4411 48.0568 42.4411 48.7443C42.4411 49.4375 42.3232 50.0384 42.0874 50.5469C41.8516 51.0526 41.5249 51.4446 41.1072 51.723C40.6896 51.9986 40.2081 52.1364 39.6626 52.1364C39.2422 52.1364 38.9055 52.0668 38.6527 51.9276C38.3999 51.7855 38.2053 51.625 38.0689 51.446C37.9325 51.2642 37.8274 51.1136 37.7536 50.9943H37.6683V54.4545H36.6626ZM37.6513 48.7273C37.6513 49.2216 37.7237 49.6577 37.8686 50.0355C38.0135 50.4105 38.2251 50.7045 38.5036 50.9176C38.782 51.1278 39.1229 51.233 39.5263 51.233C39.9467 51.233 40.2976 51.1222 40.5788 50.9006C40.8629 50.6761 41.076 50.375 41.218 49.9972C41.3629 49.6165 41.4354 49.1932 41.4354 48.7273C41.4354 48.267 41.3643 47.8523 41.2223 47.483C41.0831 47.1108 40.8714 46.8168 40.5874 46.6009C40.3061 46.3821 39.9524 46.2727 39.5263 46.2727C39.1172 46.2727 38.7734 46.3764 38.495 46.5838C38.2166 46.7884 38.0064 47.0753 37.8643 47.4446C37.7223 47.8111 37.6513 48.2386 37.6513 48.7273ZM44.9808 43.2727V52H43.9751V43.2727H44.9808ZM48.7489 52.1534C48.3342 52.1534 47.9577 52.0753 47.6197 51.919C47.2816 51.7599 47.0131 51.5312 46.8143 51.233C46.6154 50.9318 46.516 50.5682 46.516 50.142C46.516 49.767 46.5898 49.4631 46.7376 49.2301C46.8853 48.9943 47.0827 48.8097 47.3299 48.6761C47.5771 48.5426 47.8498 48.4432 48.1481 48.3778C48.4492 48.3097 48.7518 48.2557 49.0558 48.2159C49.4535 48.1648 49.7759 48.1264 50.0231 48.1009C50.2731 48.0724 50.4549 48.0256 50.5685 47.9602C50.685 47.8949 50.7433 47.7812 50.7433 47.6193V47.5852C50.7433 47.1648 50.6282 46.8381 50.3981 46.6051C50.1708 46.3722 49.8256 46.2557 49.3626 46.2557C48.8825 46.2557 48.506 46.3608 48.2333 46.571C47.9606 46.7812 47.7688 47.0057 47.658 47.2443L46.7035 46.9034C46.8739 46.5057 47.1012 46.196 47.3853 45.9744C47.6722 45.75 47.9847 45.5937 48.3228 45.5057C48.6637 45.4148 48.9989 45.3693 49.3285 45.3693C49.5387 45.3693 49.7802 45.3949 50.0529 45.446C50.3285 45.4943 50.5941 45.5952 50.8498 45.7486C51.1083 45.902 51.3228 46.1335 51.4933 46.4432C51.6637 46.7528 51.7489 47.1676 51.7489 47.6875V52H50.7433V51.1136H50.6921C50.6239 51.2557 50.5103 51.4077 50.3512 51.5696C50.1921 51.7315 49.9805 51.8693 49.7163 51.983C49.4521 52.0966 49.1296 52.1534 48.7489 52.1534ZM48.9023 51.25C49.3001 51.25 49.6353 51.1719 49.908 51.0156C50.1836 50.8594 50.391 50.6577 50.5302 50.4105C50.6722 50.1634 50.7433 49.9034 50.7433 49.6307V48.7102C50.7006 48.7614 50.6069 48.8082 50.462 48.8509C50.32 48.8906 50.1552 48.9261 49.9677 48.9574C49.783 48.9858 49.6026 49.0114 49.4265 49.0341C49.2532 49.054 49.1126 49.071 49.0046 49.0852C48.7433 49.1193 48.4989 49.1747 48.2717 49.2514C48.0472 49.3253 47.8654 49.4375 47.7262 49.5881C47.5898 49.7358 47.5217 49.9375 47.5217 50.1932C47.5217 50.5426 47.6509 50.8068 47.9094 50.9858C48.1708 51.1619 48.5018 51.25 48.9023 51.25ZM53.9979 54.4545C53.8274 54.4545 53.6754 54.4403 53.5419 54.4119C53.4084 54.3864 53.3161 54.3608 53.2649 54.3352L53.5206 53.4489C53.7649 53.5114 53.9808 53.5341 54.1683 53.517C54.3558 53.5 54.522 53.4162 54.6669 53.2656C54.8146 53.1179 54.9496 52.8778 55.0717 52.5455L55.2592 52.0341L52.8388 45.4545H53.9297L55.7365 50.6705H55.8047L57.6115 45.4545H58.7024L55.924 52.9545C55.799 53.2926 55.6442 53.5724 55.4595 53.794C55.2749 54.0185 55.0604 54.1847 54.8161 54.2926C54.5746 54.4006 54.3018 54.4545 53.9979 54.4545ZM64.6662 46.9205L63.7628 47.1761C63.706 47.0256 63.6222 46.8793 63.5114 46.7372C63.4034 46.5923 63.2557 46.473 63.0682 46.3793C62.8807 46.2855 62.6406 46.2386 62.348 46.2386C61.9474 46.2386 61.6136 46.331 61.3466 46.5156C61.0824 46.6974 60.9503 46.929 60.9503 47.2102C60.9503 47.4602 61.0412 47.6577 61.223 47.8026C61.4048 47.9474 61.6889 48.0682 62.0753 48.1648L63.0469 48.4034C63.6321 48.5455 64.0682 48.7628 64.3551 49.0554C64.642 49.3452 64.7855 49.7187 64.7855 50.1761C64.7855 50.5511 64.6776 50.8864 64.4616 51.1818C64.2486 51.4773 63.9503 51.7102 63.5668 51.8807C63.1832 52.0511 62.7372 52.1364 62.2287 52.1364C61.5611 52.1364 61.0085 51.9915 60.571 51.7017C60.1335 51.4119 59.8565 50.9886 59.7401 50.4318L60.6946 50.1932C60.7855 50.5455 60.9574 50.8097 61.2102 50.9858C61.4659 51.1619 61.7997 51.25 62.2116 51.25C62.6804 51.25 63.0526 51.1506 63.3281 50.9517C63.6065 50.75 63.7457 50.5085 63.7457 50.2273C63.7457 50 63.6662 49.8097 63.5071 49.6562C63.348 49.5 63.1037 49.3835 62.7741 49.3068L61.6832 49.0511C61.0838 48.9091 60.6435 48.6889 60.3622 48.3906C60.0838 48.0895 59.9446 47.7131 59.9446 47.2614C59.9446 46.892 60.0483 46.5653 60.2557 46.2812C60.4659 45.9972 60.7514 45.7741 61.1122 45.6122C61.4759 45.4503 61.8878 45.3693 62.348 45.3693C62.9957 45.3693 63.5043 45.5114 63.8736 45.7955C64.2457 46.0795 64.5099 46.4545 64.6662 46.9205ZM69.8107 43.2727H71.0721L74.038 50.517H74.1403L77.1062 43.2727H78.3675V52H77.3789V45.3693H77.2937L74.5664 52H73.6119L70.8846 45.3693H70.7994V52H69.8107V43.2727ZM83.0092 52.1364C82.4183 52.1364 81.8999 51.9957 81.4538 51.7145C81.0107 51.4332 80.6641 51.0398 80.4141 50.5341C80.1669 50.0284 80.0433 49.4375 80.0433 48.7614C80.0433 48.0795 80.1669 47.4844 80.4141 46.9759C80.6641 46.4673 81.0107 46.0724 81.4538 45.7912C81.8999 45.5099 82.4183 45.3693 83.0092 45.3693C83.6001 45.3693 84.1172 45.5099 84.5604 45.7912C85.0064 46.0724 85.353 46.4673 85.6001 46.9759C85.8501 47.4844 85.9751 48.0795 85.9751 48.7614C85.9751 49.4375 85.8501 50.0284 85.6001 50.5341C85.353 51.0398 85.0064 51.4332 84.5604 51.7145C84.1172 51.9957 83.6001 52.1364 83.0092 52.1364ZM83.0092 51.233C83.4581 51.233 83.8274 51.1179 84.1172 50.8878C84.407 50.6577 84.6214 50.3551 84.7607 49.9801C84.8999 49.6051 84.9695 49.1989 84.9695 48.7614C84.9695 48.3239 84.8999 47.9162 84.7607 47.5384C84.6214 47.1605 84.407 46.8551 84.1172 46.6222C83.8274 46.3892 83.4581 46.2727 83.0092 46.2727C82.5604 46.2727 82.1911 46.3892 81.9013 46.6222C81.6115 46.8551 81.397 47.1605 81.2578 47.5384C81.1186 47.9162 81.049 48.3239 81.049 48.7614C81.049 49.1989 81.1186 49.6051 81.2578 49.9801C81.397 50.3551 81.6115 50.6577 81.9013 50.8878C82.1911 51.1179 82.5604 51.233 83.0092 51.233ZM88.516 48.0625V52H87.5103V45.4545H88.4819V46.4773H88.5671C88.7205 46.1449 88.9535 45.8778 89.266 45.6761C89.5785 45.4716 89.9819 45.3693 90.4762 45.3693C90.9194 45.3693 91.3072 45.4602 91.6396 45.642C91.9719 45.821 92.2305 46.0938 92.4151 46.4602C92.5998 46.8239 92.6921 47.2841 92.6921 47.8409V52H91.6864V47.9091C91.6864 47.3949 91.5529 46.9943 91.2859 46.7074C91.0188 46.4176 90.6523 46.2727 90.1864 46.2727C89.8654 46.2727 89.5785 46.3423 89.3256 46.4815C89.0756 46.6207 88.8782 46.8239 88.7333 47.0909C88.5884 47.358 88.516 47.6818 88.516 48.0625ZM97.3764 45.4545V46.3068H93.9844V45.4545H97.3764ZM94.973 43.8864H95.9787V50.125C95.9787 50.4091 96.0199 50.6222 96.1023 50.7642C96.1875 50.9034 96.2955 50.9972 96.4261 51.0455C96.5597 51.0909 96.7003 51.1136 96.848 51.1136C96.9588 51.1136 97.0497 51.108 97.1207 51.0966C97.1918 51.0824 97.2486 51.071 97.2912 51.0625L97.4957 51.9659C97.4276 51.9915 97.3324 52.017 97.2102 52.0426C97.0881 52.071 96.9332 52.0852 96.7457 52.0852C96.4616 52.0852 96.1832 52.0241 95.9105 51.902C95.6406 51.7798 95.4162 51.5938 95.2372 51.3438C95.0611 51.0938 94.973 50.7784 94.973 50.3977V43.8864ZM100.036 48.0625V52H99.0298V43.2727H100.036V46.4773H100.121C100.274 46.1392 100.504 45.8707 100.811 45.6719C101.121 45.4702 101.533 45.3693 102.047 45.3693C102.493 45.3693 102.884 45.4588 103.219 45.6378C103.554 45.8139 103.814 46.0852 103.999 46.4517C104.186 46.8153 104.28 47.2784 104.28 47.8409V52H103.274V47.9091C103.274 47.3892 103.139 46.9872 102.869 46.7031C102.602 46.4162 102.232 46.2727 101.757 46.2727C101.428 46.2727 101.132 46.3423 100.871 46.4815C100.612 46.6207 100.408 46.8239 100.257 47.0909C100.109 47.358 100.036 47.6818 100.036 48.0625ZM107.125 43.2727V52H106.12V43.2727H107.125ZM109.615 54.4545C109.445 54.4545 109.293 54.4403 109.159 54.4119C109.026 54.3864 108.933 54.3608 108.882 54.3352L109.138 53.4489C109.382 53.5114 109.598 53.5341 109.786 53.517C109.973 53.5 110.139 53.4162 110.284 53.2656C110.432 53.1179 110.567 52.8778 110.689 52.5455L110.876 52.0341L108.456 45.4545H109.547L111.354 50.6705H111.422L113.229 45.4545H114.32L111.541 52.9545C111.416 53.2926 111.261 53.5724 111.077 53.794C110.892 54.0185 110.678 54.1847 110.433 54.2926C110.192 54.4006 109.919 54.4545 109.615 54.4545Z" fill="#525252"/>
<path d="M400.903 40.5V39.733L403.784 36.5795C404.122 36.2102 404.401 35.8892 404.619 35.6165C404.838 35.3409 405 35.0824 405.105 34.8409C405.213 34.5966 405.267 34.3409 405.267 34.0739C405.267 33.767 405.193 33.5014 405.045 33.277C404.901 33.0526 404.702 32.8793 404.449 32.7571C404.196 32.6349 403.912 32.5739 403.597 32.5739C403.261 32.5739 402.969 32.6435 402.719 32.7827C402.472 32.919 402.28 33.1108 402.143 33.358C402.01 33.6051 401.943 33.8949 401.943 34.2273H400.938C400.938 33.7159 401.055 33.267 401.291 32.8807C401.527 32.4943 401.848 32.1932 402.254 31.9773C402.663 31.7614 403.122 31.6534 403.631 31.6534C404.142 31.6534 404.595 31.7614 404.99 31.9773C405.385 32.1932 405.695 32.4844 405.919 32.8509C406.143 33.2173 406.256 33.625 406.256 34.0739C406.256 34.3949 406.197 34.7088 406.081 35.0156C405.967 35.3196 405.768 35.6591 405.484 36.0341C405.203 36.4062 404.812 36.8608 404.312 37.3977L402.352 39.4943V39.5625H406.409V40.5H400.903ZM411.016 40.6193C410.374 40.6193 409.827 40.4446 409.375 40.0952C408.923 39.7429 408.578 39.233 408.339 38.5653C408.101 37.8949 407.982 37.0852 407.982 36.1364C407.982 35.1932 408.101 34.3878 408.339 33.7202C408.581 33.0497 408.928 32.5384 409.379 32.1861C409.834 31.831 410.379 31.6534 411.016 31.6534C411.652 31.6534 412.196 31.831 412.648 32.1861C413.102 32.5384 413.449 33.0497 413.688 33.7202C413.929 34.3878 414.05 35.1932 414.05 36.1364C414.05 37.0852 413.93 37.8949 413.692 38.5653C413.453 39.233 413.108 39.7429 412.656 40.0952C412.205 40.4446 411.658 40.6193 411.016 40.6193ZM411.016 39.6818C411.652 39.6818 412.146 39.375 412.499 38.7614C412.851 38.1477 413.027 37.2727 413.027 36.1364C413.027 35.3807 412.946 34.7372 412.784 34.206C412.625 33.6747 412.395 33.2699 412.094 32.9915C411.795 32.7131 411.436 32.5739 411.016 32.5739C410.385 32.5739 409.892 32.8849 409.537 33.5071C409.182 34.1264 409.004 35.0028 409.004 36.1364C409.004 36.892 409.084 37.5341 409.243 38.0625C409.402 38.5909 409.631 38.9929 409.929 39.2685C410.23 39.544 410.592 39.6818 411.016 39.6818ZM415.669 40.5V39.733L418.55 36.5795C418.888 36.2102 419.166 35.8892 419.385 35.6165C419.604 35.3409 419.766 35.0824 419.871 34.8409C419.979 34.5966 420.033 34.3409 420.033 34.0739C420.033 33.767 419.959 33.5014 419.811 33.277C419.666 33.0526 419.467 32.8793 419.214 32.7571C418.962 32.6349 418.678 32.5739 418.362 32.5739C418.027 32.5739 417.734 32.6435 417.484 32.7827C417.237 32.919 417.045 33.1108 416.909 33.358C416.776 33.6051 416.709 33.8949 416.709 34.2273H415.703C415.703 33.7159 415.821 33.267 416.057 32.8807C416.293 32.4943 416.614 32.1932 417.02 31.9773C417.429 31.7614 417.888 31.6534 418.396 31.6534C418.908 31.6534 419.361 31.7614 419.756 31.9773C420.151 32.1932 420.46 32.4844 420.685 32.8509C420.909 33.2173 421.021 33.625 421.021 34.0739C421.021 34.3949 420.963 34.7088 420.847 35.0156C420.733 35.3196 420.534 35.6591 420.25 36.0341C419.969 36.4062 419.578 36.8608 419.078 37.3977L417.118 39.4943V39.5625H421.175V40.5H415.669ZM426.003 31.7727V40.5H424.946V32.8807H424.895L422.764 34.2955V33.2216L424.946 31.7727H426.003Z" fill="#525252"/>
<path d="M445 34L450 39L455 34H445Z" fill="#737373"/>
<rect x="392.5" y="20.5" width="77" height="31" rx="3.5" stroke="#F5F5F5"/>
<path d="M470 87L45.4581 87" stroke="#F5F5F5" stroke-dasharray="4 4"/>
<path d="M470 117L45.4581 117" stroke="#F5F5F5" stroke-dasharray="4 4"/>
<path d="M470 147L45.4581 147" stroke="#F5F5F5" stroke-dasharray="4 4"/>
<path d="M470 177L45.4581 177" stroke="#F5F5F5" stroke-dasharray="4 4"/>
<path d="M470 207L45.4581 207" stroke="#F5F5F5" stroke-dasharray="4 4"/>
<path d="M45.458 119.974L50.5121 112.969C55.5661 105.965 65.6743 91.955 75.7824 103.252C85.8906 114.549 95.9987 151.153 106.107 161.773C116.215 172.394 126.323 157.031 136.431 152.539C146.539 148.048 156.648 154.428 166.756 161.451C176.864 168.474 186.972 176.14 197.08 168.761C207.188 161.382 217.296 138.958 227.405 140.676C237.513 142.395 247.621 168.256 257.729 165.164C267.837 162.071 277.945 130.025 288.053 130.448C298.162 130.871 308.27 163.763 318.378 180.785C328.486 197.807 340.392 202.709 350.5 204C360.608 205.291 372.5 202.5 379.027 187.826C386.426 171.19 399.243 140.964 409.351 142.893C419.459 144.822 429.567 180.399 439.675 191.282C449.784 202.165 459.892 188.355 464.946 181.45L470 174.545" stroke="#818CF8" stroke-linecap="round"/>
<path d="M45.458 115.935L50.5121 108.943C55.5662 101.952 65.6743 87.9682 75.7824 99.2441C85.8906 110.52 95.9987 147.055 106.107 157.655C116.215 168.256 126.323 132.96 136.431 128.477C146.539 123.994 156.648 130.361 166.756 137.371C176.864 144.381 186.972 152.033 197.08 144.668C207.188 137.303 213.768 124.902 223.877 126.617C233.985 128.332 247.621 164.126 257.729 161.039C267.837 157.953 277 130 288.053 126.389C309.708 119.314 320.9 143.61 325.35 162.872C330 183 327.256 201.148 348.5 210C360.5 215 375 212.5 385 196.5C394.637 181.08 399.243 156.455 409.351 158.381C419.459 160.306 426.294 200.269 439.676 206.679C456 214.5 466.554 183.705 468.5 174" stroke="#FB923C" stroke-linecap="round"/>
<path d="M49.3977 237.273H50.4545V243.511C50.4545 244.068 50.3523 244.541 50.1477 244.93C49.9432 245.32 49.6548 245.615 49.2827 245.817C48.9105 246.018 48.4716 246.119 47.9659 246.119C47.4886 246.119 47.0639 246.033 46.6918 245.859C46.3196 245.683 46.027 245.433 45.8139 245.109C45.6009 244.786 45.4943 244.401 45.4943 243.955H46.5341C46.5341 244.202 46.5952 244.418 46.7173 244.602C46.8423 244.784 47.0128 244.926 47.2287 245.028C47.4446 245.131 47.6903 245.182 47.9659 245.182C48.2699 245.182 48.5284 245.118 48.7415 244.99C48.9545 244.862 49.1165 244.675 49.2273 244.428C49.3409 244.178 49.3977 243.872 49.3977 243.511V237.273ZM54.3622 246.153C53.9474 246.153 53.571 246.075 53.233 245.919C52.8949 245.76 52.6264 245.531 52.4276 245.233C52.2287 244.932 52.1293 244.568 52.1293 244.142C52.1293 243.767 52.2031 243.463 52.3509 243.23C52.4986 242.994 52.696 242.81 52.9432 242.676C53.1903 242.543 53.4631 242.443 53.7614 242.378C54.0625 242.31 54.3651 242.256 54.669 242.216C55.0668 242.165 55.3892 242.126 55.6364 242.101C55.8864 242.072 56.0682 242.026 56.1818 241.96C56.2983 241.895 56.3565 241.781 56.3565 241.619V241.585C56.3565 241.165 56.2415 240.838 56.0114 240.605C55.7841 240.372 55.4389 240.256 54.9759 240.256C54.4957 240.256 54.1193 240.361 53.8466 240.571C53.5739 240.781 53.3821 241.006 53.2713 241.244L52.3168 240.903C52.4872 240.506 52.7145 240.196 52.9986 239.974C53.2855 239.75 53.598 239.594 53.9361 239.506C54.277 239.415 54.6122 239.369 54.9418 239.369C55.152 239.369 55.3935 239.395 55.6662 239.446C55.9418 239.494 56.2074 239.595 56.4631 239.749C56.7216 239.902 56.9361 240.134 57.1065 240.443C57.277 240.753 57.3622 241.168 57.3622 241.688V246H56.3565V245.114H56.3054C56.2372 245.256 56.1236 245.408 55.9645 245.57C55.8054 245.732 55.5938 245.869 55.3295 245.983C55.0653 246.097 54.7429 246.153 54.3622 246.153ZM54.5156 245.25C54.9134 245.25 55.2486 245.172 55.5213 245.016C55.7969 244.859 56.0043 244.658 56.1435 244.411C56.2855 244.163 56.3565 243.903 56.3565 243.631V242.71C56.3139 242.761 56.2202 242.808 56.0753 242.851C55.9332 242.891 55.7685 242.926 55.581 242.957C55.3963 242.986 55.2159 243.011 55.0398 243.034C54.8665 243.054 54.7259 243.071 54.6179 243.085C54.3565 243.119 54.1122 243.175 53.8849 243.251C53.6605 243.325 53.4787 243.437 53.3395 243.588C53.2031 243.736 53.1349 243.937 53.1349 244.193C53.1349 244.543 53.2642 244.807 53.5227 244.986C53.7841 245.162 54.1151 245.25 54.5156 245.25ZM60.2035 242.062V246H59.1978V239.455H60.1694V240.477H60.2546C60.408 240.145 60.641 239.878 60.9535 239.676C61.266 239.472 61.6694 239.369 62.1637 239.369C62.6069 239.369 62.9947 239.46 63.3271 239.642C63.6594 239.821 63.918 240.094 64.1026 240.46C64.2873 240.824 64.3796 241.284 64.3796 241.841V246H63.3739V241.909C63.3739 241.395 63.2404 240.994 62.9734 240.707C62.7063 240.418 62.3398 240.273 61.8739 240.273C61.5529 240.273 61.266 240.342 61.0131 240.482C60.7631 240.621 60.5657 240.824 60.4208 241.091C60.2759 241.358 60.2035 241.682 60.2035 242.062Z" fill="#737373"/>
<path d="M102.628 246V237.273H107.861V238.21H103.685V241.159H107.469V242.097H103.685V246H102.628ZM111.799 246.136C111.168 246.136 110.624 245.997 110.166 245.719C109.712 245.438 109.361 245.045 109.114 244.543C108.87 244.037 108.747 243.449 108.747 242.778C108.747 242.108 108.87 241.517 109.114 241.006C109.361 240.491 109.705 240.091 110.145 239.804C110.588 239.514 111.105 239.369 111.696 239.369C112.037 239.369 112.374 239.426 112.706 239.54C113.039 239.653 113.341 239.838 113.614 240.094C113.887 240.347 114.104 240.682 114.266 241.099C114.428 241.517 114.509 242.031 114.509 242.642V243.068H109.463V242.199H113.486C113.486 241.83 113.412 241.5 113.264 241.21C113.12 240.92 112.912 240.692 112.642 240.524C112.375 240.357 112.06 240.273 111.696 240.273C111.296 240.273 110.949 240.372 110.657 240.571C110.367 240.767 110.144 241.023 109.987 241.338C109.831 241.653 109.753 241.991 109.753 242.352V242.932C109.753 243.426 109.838 243.845 110.009 244.189C110.182 244.53 110.422 244.79 110.729 244.969C111.036 245.145 111.392 245.233 111.799 245.233C112.063 245.233 112.301 245.196 112.514 245.122C112.73 245.045 112.916 244.932 113.073 244.781C113.229 244.628 113.35 244.437 113.435 244.21L114.407 244.483C114.304 244.812 114.132 245.102 113.891 245.352C113.649 245.599 113.351 245.793 112.996 245.932C112.641 246.068 112.242 246.136 111.799 246.136ZM116.175 246V237.273H117.181V240.494H117.266C117.34 240.381 117.442 240.236 117.573 240.06C117.706 239.881 117.897 239.722 118.144 239.582C118.394 239.44 118.732 239.369 119.158 239.369C119.709 239.369 120.195 239.507 120.615 239.783C121.036 240.058 121.364 240.449 121.6 240.955C121.835 241.46 121.953 242.057 121.953 242.744C121.953 243.438 121.835 244.038 121.6 244.547C121.364 245.053 121.037 245.445 120.62 245.723C120.202 245.999 119.72 246.136 119.175 246.136C118.755 246.136 118.418 246.067 118.165 245.928C117.912 245.786 117.718 245.625 117.581 245.446C117.445 245.264 117.34 245.114 117.266 244.994H117.147V246H116.175ZM117.164 242.727C117.164 243.222 117.236 243.658 117.381 244.036C117.526 244.411 117.737 244.705 118.016 244.918C118.294 245.128 118.635 245.233 119.039 245.233C119.459 245.233 119.81 245.122 120.091 244.901C120.375 244.676 120.588 244.375 120.73 243.997C120.875 243.616 120.948 243.193 120.948 242.727C120.948 242.267 120.877 241.852 120.735 241.483C120.595 241.111 120.384 240.817 120.1 240.601C119.818 240.382 119.465 240.273 119.039 240.273C118.63 240.273 118.286 240.376 118.007 240.584C117.729 240.788 117.519 241.075 117.377 241.445C117.235 241.811 117.164 242.239 117.164 242.727Z" fill="#737373"/>
<path d="M159.2 237.273H160.461L163.427 244.517H163.529L166.495 237.273H167.757V246H166.768V239.369H166.683L163.956 246H163.001L160.274 239.369H160.189V246H159.2V237.273ZM171.665 246.153C171.251 246.153 170.874 246.075 170.536 245.919C170.198 245.76 169.93 245.531 169.731 245.233C169.532 244.932 169.432 244.568 169.432 244.142C169.432 243.767 169.506 243.463 169.654 243.23C169.802 242.994 169.999 242.81 170.246 242.676C170.494 242.543 170.766 242.443 171.065 242.378C171.366 242.31 171.668 242.256 171.972 242.216C172.37 242.165 172.692 242.126 172.94 242.101C173.19 242.072 173.371 242.026 173.485 241.96C173.602 241.895 173.66 241.781 173.66 241.619V241.585C173.66 241.165 173.545 240.838 173.315 240.605C173.087 240.372 172.742 240.256 172.279 240.256C171.799 240.256 171.423 240.361 171.15 240.571C170.877 240.781 170.685 241.006 170.575 241.244L169.62 240.903C169.79 240.506 170.018 240.196 170.302 239.974C170.589 239.75 170.901 239.594 171.239 239.506C171.58 239.415 171.915 239.369 172.245 239.369C172.455 239.369 172.697 239.395 172.969 239.446C173.245 239.494 173.511 239.595 173.766 239.749C174.025 239.902 174.239 240.134 174.41 240.443C174.58 240.753 174.665 241.168 174.665 241.688V246H173.66V245.114H173.609C173.54 245.256 173.427 245.408 173.268 245.57C173.109 245.732 172.897 245.869 172.633 245.983C172.369 246.097 172.046 246.153 171.665 246.153ZM171.819 245.25C172.217 245.25 172.552 245.172 172.825 245.016C173.1 244.859 173.307 244.658 173.447 244.411C173.589 244.163 173.66 243.903 173.66 243.631V242.71C173.617 242.761 173.523 242.808 173.379 242.851C173.236 242.891 173.072 242.926 172.884 242.957C172.7 242.986 172.519 243.011 172.343 243.034C172.17 243.054 172.029 243.071 171.921 243.085C171.66 243.119 171.415 243.175 171.188 243.251C170.964 243.325 170.782 243.437 170.643 243.588C170.506 243.736 170.438 243.937 170.438 244.193C170.438 244.543 170.567 244.807 170.826 244.986C171.087 245.162 171.418 245.25 171.819 245.25ZM176.501 246V239.455H177.473V240.443H177.541C177.66 240.119 177.876 239.857 178.189 239.655C178.501 239.453 178.853 239.352 179.245 239.352C179.319 239.352 179.412 239.354 179.522 239.357C179.633 239.359 179.717 239.364 179.774 239.369V240.392C179.74 240.384 179.662 240.371 179.539 240.354C179.42 240.334 179.294 240.324 179.16 240.324C178.842 240.324 178.558 240.391 178.308 240.524C178.061 240.655 177.865 240.837 177.72 241.07C177.578 241.3 177.507 241.562 177.507 241.858V246H176.501Z" fill="#737373"/>
<path d="M217.129 246H216.021L219.226 237.273H220.317L223.521 246H222.413L219.805 238.653H219.737L217.129 246ZM217.538 242.591H222.004V243.528H217.538V242.591ZM224.744 248.455V239.455H225.716V240.494H225.835C225.909 240.381 226.011 240.236 226.142 240.06C226.275 239.881 226.466 239.722 226.713 239.582C226.963 239.44 227.301 239.369 227.727 239.369C228.278 239.369 228.764 239.507 229.185 239.783C229.605 240.058 229.933 240.449 230.169 240.955C230.405 241.46 230.523 242.057 230.523 242.744C230.523 243.438 230.405 244.038 230.169 244.547C229.933 245.053 229.606 245.445 229.189 245.723C228.771 245.999 228.29 246.136 227.744 246.136C227.324 246.136 226.987 246.067 226.734 245.928C226.481 245.786 226.287 245.625 226.15 245.446C226.014 245.264 225.909 245.114 225.835 244.994H225.75V248.455H224.744ZM225.733 242.727C225.733 243.222 225.805 243.658 225.95 244.036C226.095 244.411 226.307 244.705 226.585 244.918C226.864 245.128 227.204 245.233 227.608 245.233C228.028 245.233 228.379 245.122 228.66 244.901C228.944 244.676 229.158 244.375 229.3 243.997C229.444 243.616 229.517 243.193 229.517 242.727C229.517 242.267 229.446 241.852 229.304 241.483C229.165 241.111 228.953 240.817 228.669 240.601C228.388 240.382 228.034 240.273 227.608 240.273C227.199 240.273 226.855 240.376 226.577 240.584C226.298 240.788 226.088 241.075 225.946 241.445C225.804 241.811 225.733 242.239 225.733 242.727ZM232.057 246V239.455H233.028V240.443H233.096C233.216 240.119 233.432 239.857 233.744 239.655C234.057 239.453 234.409 239.352 234.801 239.352C234.875 239.352 234.967 239.354 235.078 239.357C235.189 239.359 235.273 239.364 235.329 239.369V240.392C235.295 240.384 235.217 240.371 235.095 240.354C234.976 240.334 234.849 240.324 234.716 240.324C234.398 240.324 234.114 240.391 233.864 240.524C233.616 240.655 233.42 240.837 233.275 241.07C233.133 241.3 233.062 241.562 233.062 241.858V246H232.057Z" fill="#737373"/>
<path d="M272.342 237.273H273.604L276.57 244.517H276.672L279.638 237.273H280.899V246H279.911V239.369H279.825L277.098 246H276.144L273.416 239.369H273.331V246H272.342V237.273ZM284.808 246.153C284.393 246.153 284.017 246.075 283.679 245.919C283.341 245.76 283.072 245.531 282.873 245.233C282.674 244.932 282.575 244.568 282.575 244.142C282.575 243.767 282.649 243.463 282.797 243.23C282.944 242.994 283.142 242.81 283.389 242.676C283.636 242.543 283.909 242.443 284.207 242.378C284.508 242.31 284.811 242.256 285.115 242.216C285.513 242.165 285.835 242.126 286.082 242.101C286.332 242.072 286.514 242.026 286.628 241.96C286.744 241.895 286.802 241.781 286.802 241.619V241.585C286.802 241.165 286.687 240.838 286.457 240.605C286.23 240.372 285.885 240.256 285.422 240.256C284.942 240.256 284.565 240.361 284.292 240.571C284.02 240.781 283.828 241.006 283.717 241.244L282.763 240.903C282.933 240.506 283.16 240.196 283.444 239.974C283.731 239.75 284.044 239.594 284.382 239.506C284.723 239.415 285.058 239.369 285.388 239.369C285.598 239.369 285.839 239.395 286.112 239.446C286.388 239.494 286.653 239.595 286.909 239.749C287.167 239.902 287.382 240.134 287.552 240.443C287.723 240.753 287.808 241.168 287.808 241.688V246H286.802V245.114H286.751C286.683 245.256 286.569 245.408 286.41 245.57C286.251 245.732 286.04 245.869 285.775 245.983C285.511 246.097 285.189 246.153 284.808 246.153ZM284.961 245.25C285.359 245.25 285.694 245.172 285.967 245.016C286.243 244.859 286.45 244.658 286.589 244.411C286.731 244.163 286.802 243.903 286.802 243.631V242.71C286.76 242.761 286.666 242.808 286.521 242.851C286.379 242.891 286.214 242.926 286.027 242.957C285.842 242.986 285.662 243.011 285.486 243.034C285.312 243.054 285.172 243.071 285.064 243.085C284.802 243.119 284.558 243.175 284.331 243.251C284.106 243.325 283.924 243.437 283.785 243.588C283.649 243.736 283.581 243.937 283.581 244.193C283.581 244.543 283.71 244.807 283.969 244.986C284.23 245.162 284.561 245.25 284.961 245.25ZM290.057 248.455C289.886 248.455 289.735 248.44 289.601 248.412C289.467 248.386 289.375 248.361 289.324 248.335L289.58 247.449C289.824 247.511 290.04 247.534 290.227 247.517C290.415 247.5 290.581 247.416 290.726 247.266C290.874 247.118 291.009 246.878 291.131 246.545L291.318 246.034L288.898 239.455H289.989L291.796 244.67H291.864L293.671 239.455H294.761L291.983 246.955C291.858 247.293 291.703 247.572 291.519 247.794C291.334 248.018 291.119 248.185 290.875 248.293C290.634 248.401 290.361 248.455 290.057 248.455Z" fill="#737373"/>
<path d="M335.255 237.273H336.311V243.511C336.311 244.068 336.209 244.541 336.005 244.93C335.8 245.32 335.512 245.615 335.14 245.817C334.767 246.018 334.329 246.119 333.823 246.119C333.346 246.119 332.921 246.033 332.549 245.859C332.177 245.683 331.884 245.433 331.671 245.109C331.458 244.786 331.351 244.401 331.351 243.955H332.391C332.391 244.202 332.452 244.418 332.574 244.602C332.699 244.784 332.87 244.926 333.086 245.028C333.302 245.131 333.547 245.182 333.823 245.182C334.127 245.182 334.385 245.118 334.598 244.99C334.811 244.862 334.973 244.675 335.084 244.428C335.198 244.178 335.255 243.872 335.255 243.511V237.273ZM342.418 243.324V239.455H343.424V246H342.418V244.892H342.35C342.196 245.224 341.958 245.507 341.634 245.74C341.31 245.97 340.901 246.085 340.407 246.085C339.998 246.085 339.634 245.996 339.316 245.817C338.998 245.635 338.748 245.362 338.566 244.999C338.384 244.632 338.293 244.17 338.293 243.614V239.455H339.299V243.545C339.299 244.023 339.432 244.403 339.699 244.688C339.969 244.972 340.313 245.114 340.731 245.114C340.981 245.114 341.235 245.05 341.493 244.922C341.755 244.794 341.973 244.598 342.15 244.334C342.329 244.07 342.418 243.733 342.418 243.324ZM346.271 242.062V246H345.266V239.455H346.237V240.477H346.322C346.476 240.145 346.709 239.878 347.021 239.676C347.334 239.472 347.737 239.369 348.232 239.369C348.675 239.369 349.063 239.46 349.395 239.642C349.727 239.821 349.986 240.094 350.17 240.46C350.355 240.824 350.447 241.284 350.447 241.841V246H349.442V241.909C349.442 241.395 349.308 240.994 349.041 240.707C348.774 240.418 348.408 240.273 347.942 240.273C347.621 240.273 347.334 240.342 347.081 240.482C346.831 240.621 346.634 240.824 346.489 241.091C346.344 241.358 346.271 241.682 346.271 242.062Z" fill="#737373"/>
<path d="M391.826 237.273H392.883V243.511C392.883 244.068 392.781 244.541 392.576 244.93C392.372 245.32 392.084 245.615 391.711 245.817C391.339 246.018 390.9 246.119 390.395 246.119C389.917 246.119 389.493 246.033 389.12 245.859C388.748 245.683 388.456 245.433 388.243 245.109C388.03 244.786 387.923 244.401 387.923 243.955H388.963C388.963 244.202 389.024 244.418 389.146 244.602C389.271 244.784 389.441 244.926 389.657 245.028C389.873 245.131 390.119 245.182 390.395 245.182C390.699 245.182 390.957 245.118 391.17 244.99C391.383 244.862 391.545 244.675 391.656 244.428C391.77 244.178 391.826 243.872 391.826 243.511V237.273ZM398.99 243.324V239.455H399.995V246H398.99V244.892H398.922C398.768 245.224 398.53 245.507 398.206 245.74C397.882 245.97 397.473 246.085 396.978 246.085C396.569 246.085 396.206 245.996 395.888 245.817C395.569 245.635 395.319 245.362 395.138 244.999C394.956 244.632 394.865 244.17 394.865 243.614V239.455H395.87V243.545C395.87 244.023 396.004 244.403 396.271 244.688C396.541 244.972 396.885 245.114 397.302 245.114C397.552 245.114 397.807 245.05 398.065 244.922C398.326 244.794 398.545 244.598 398.721 244.334C398.9 244.07 398.99 243.733 398.99 243.324ZM402.843 237.273V246H401.837V237.273H402.843ZM405.333 248.455C405.162 248.455 405.01 248.44 404.877 248.412C404.743 248.386 404.651 248.361 404.6 248.335L404.856 247.449C405.1 247.511 405.316 247.534 405.503 247.517C405.691 247.5 405.857 247.416 406.002 247.266C406.15 247.118 406.285 246.878 406.407 246.545L406.594 246.034L404.174 239.455H405.265L407.071 244.67H407.14L408.946 239.455H410.037L407.259 246.955C407.134 247.293 406.979 247.572 406.794 247.794C406.61 248.018 406.395 248.185 406.151 248.293C405.91 248.401 405.637 248.455 405.333 248.455Z" fill="#737373"/>
<path d="M448.415 246H447.307L450.511 237.273H451.602L454.807 246H453.699L451.091 238.653H451.023L448.415 246ZM448.824 242.591H453.29V243.528H448.824V242.591ZM460.155 243.324V239.455H461.161V246H460.155V244.892H460.087C459.933 245.224 459.695 245.507 459.371 245.74C459.047 245.97 458.638 246.085 458.143 246.085C457.734 246.085 457.371 245.996 457.053 245.817C456.734 245.635 456.484 245.362 456.303 244.999C456.121 244.632 456.03 244.17 456.03 243.614V239.455H457.036V243.545C457.036 244.023 457.169 244.403 457.436 244.688C457.706 244.972 458.05 245.114 458.467 245.114C458.717 245.114 458.972 245.05 459.23 244.922C459.491 244.794 459.71 244.598 459.886 244.334C460.065 244.07 460.155 243.733 460.155 243.324ZM465.645 248.591C465.159 248.591 464.741 248.528 464.392 248.403C464.042 248.281 463.751 248.119 463.518 247.918C463.288 247.719 463.105 247.506 462.968 247.278L463.77 246.716C463.86 246.835 463.975 246.972 464.115 247.125C464.254 247.281 464.444 247.416 464.686 247.53C464.93 247.646 465.25 247.705 465.645 247.705C466.173 247.705 466.609 247.577 466.953 247.321C467.297 247.065 467.468 246.665 467.468 246.119V244.79H467.383C467.309 244.909 467.204 245.057 467.068 245.233C466.934 245.406 466.741 245.561 466.488 245.697C466.238 245.831 465.9 245.898 465.474 245.898C464.946 245.898 464.471 245.773 464.051 245.523C463.633 245.273 463.302 244.909 463.058 244.432C462.816 243.955 462.696 243.375 462.696 242.693C462.696 242.023 462.814 241.439 463.049 240.942C463.285 240.442 463.613 240.055 464.034 239.783C464.454 239.507 464.94 239.369 465.491 239.369C465.917 239.369 466.255 239.44 466.505 239.582C466.758 239.722 466.951 239.881 467.085 240.06C467.221 240.236 467.326 240.381 467.4 240.494H467.502V239.455H468.474V246.188C468.474 246.75 468.346 247.207 468.091 247.56C467.838 247.915 467.497 248.175 467.068 248.339C466.642 248.507 466.167 248.591 465.645 248.591ZM465.61 244.994C466.014 244.994 466.355 244.902 466.633 244.717C466.912 244.533 467.123 244.267 467.268 243.92C467.413 243.574 467.485 243.159 467.485 242.676C467.485 242.205 467.414 241.788 467.272 241.428C467.13 241.067 466.92 240.784 466.642 240.58C466.363 240.375 466.02 240.273 465.61 240.273C465.184 240.273 464.829 240.381 464.545 240.597C464.264 240.812 464.052 241.102 463.91 241.466C463.771 241.83 463.701 242.233 463.701 242.676C463.701 243.131 463.772 243.533 463.914 243.882C464.059 244.229 464.272 244.501 464.554 244.7C464.838 244.896 465.19 244.994 465.61 244.994Z" fill="#737373"/>
<path d="M21.6989 91.1193C21.1136 91.1193 20.5966 91.0156 20.1477 90.8082C19.7017 90.598 19.3537 90.3097 19.1037 89.9432C18.8537 89.5739 18.7301 89.1534 18.733 88.6818C18.7301 88.3125 18.8026 87.9716 18.9503 87.6591C19.098 87.3437 19.2997 87.081 19.5554 86.8707C19.8139 86.6577 20.1023 86.5227 20.4205 86.4659V86.4148C20.0028 86.3068 19.6705 86.0724 19.4233 85.7116C19.1761 85.348 19.054 84.9347 19.0568 84.4716C19.054 84.0284 19.1662 83.6321 19.3935 83.2827C19.6207 82.9332 19.9332 82.6577 20.331 82.456C20.7315 82.2543 21.1875 82.1534 21.6989 82.1534C22.2045 82.1534 22.6563 82.2543 23.054 82.456C23.4517 82.6577 23.7642 82.9332 23.9915 83.2827C24.2216 83.6321 24.3381 84.0284 24.3409 84.4716C24.3381 84.9347 24.2116 85.348 23.9616 85.7116C23.7145 86.0724 23.3864 86.3068 22.9773 86.4148V86.4659C23.2926 86.5227 23.5767 86.6577 23.8295 86.8707C24.0824 87.081 24.2841 87.3437 24.4347 87.6591C24.5852 87.9716 24.6619 88.3125 24.6648 88.6818C24.6619 89.1534 24.5341 89.5739 24.2812 89.9432C24.0312 90.3097 23.6832 90.598 23.2372 90.8082C22.794 91.0156 22.2813 91.1193 21.6989 91.1193ZM21.6989 90.1818C22.0938 90.1818 22.4347 90.1179 22.7216 89.9901C23.0085 89.8622 23.2301 89.6818 23.3864 89.4489C23.5426 89.2159 23.6222 88.9432 23.625 88.6307C23.6222 88.3011 23.5369 88.0099 23.3693 87.7571C23.2017 87.5043 22.973 87.3054 22.6832 87.1605C22.3963 87.0156 22.0682 86.9432 21.6989 86.9432C21.3267 86.9432 20.9943 87.0156 20.7017 87.1605C20.4119 87.3054 20.1832 87.5043 20.0156 87.7571C19.8509 88.0099 19.7699 88.3011 19.7727 88.6307C19.7699 88.9432 19.8452 89.2159 19.9986 89.4489C20.1548 89.6818 20.3778 89.8622 20.6676 89.9901C20.9574 90.1179 21.3011 90.1818 21.6989 90.1818ZM21.6989 86.0398C22.0114 86.0398 22.2884 85.9773 22.5298 85.8523C22.7741 85.7273 22.9659 85.5526 23.1051 85.3281C23.2443 85.1037 23.3153 84.8409 23.3182 84.5398C23.3153 84.2443 23.2457 83.9872 23.1094 83.7685C22.973 83.5469 22.7841 83.3764 22.5426 83.2571C22.3011 83.1349 22.0199 83.0739 21.6989 83.0739C21.3722 83.0739 21.0866 83.1349 20.8423 83.2571C20.598 83.3764 20.4091 83.5469 20.2756 83.7685C20.142 83.9872 20.0767 84.2443 20.0795 84.5398C20.0767 84.8409 20.1435 85.1037 20.2798 85.3281C20.419 85.5526 20.6108 85.7273 20.8551 85.8523C21.0994 85.9773 21.3807 86.0398 21.6989 86.0398ZM26.4513 91V82.2727H27.5082V86.6023H27.6104L31.5309 82.2727H32.9116L29.2468 86.2102L32.9116 91H31.6332L28.5991 86.9432L27.5082 88.1705V91H26.4513Z" fill="#737373"/>
<path d="M21.8011 122.119C21.4432 122.114 21.0852 122.045 20.7273 121.915C20.3693 121.784 20.0426 121.564 19.7472 121.254C19.4517 120.942 19.2145 120.52 19.0355 119.989C18.8565 119.455 18.767 118.784 18.767 117.977C18.767 117.205 18.8395 116.52 18.9844 115.923C19.1293 115.324 19.3395 114.82 19.6151 114.411C19.8906 113.999 20.223 113.686 20.6122 113.473C21.0043 113.26 21.446 113.153 21.9375 113.153C22.4261 113.153 22.8608 113.251 23.2415 113.447C23.625 113.641 23.9375 113.911 24.179 114.257C24.4205 114.604 24.5767 115.003 24.6477 115.455H23.608C23.5114 115.062 23.3239 114.737 23.0455 114.479C22.767 114.22 22.3977 114.091 21.9375 114.091C21.2614 114.091 20.7287 114.385 20.3395 114.973C19.9531 115.561 19.7585 116.386 19.7557 117.449H19.8239C19.983 117.207 20.1719 117.001 20.3906 116.831C20.6122 116.658 20.8565 116.524 21.1236 116.43C21.3906 116.337 21.6733 116.29 21.9716 116.29C22.4716 116.29 22.929 116.415 23.3438 116.665C23.7585 116.912 24.0909 117.254 24.3409 117.692C24.5909 118.126 24.7159 118.625 24.7159 119.188C24.7159 119.727 24.5952 120.222 24.3537 120.67C24.1122 121.116 23.7727 121.472 23.3352 121.736C22.9006 121.997 22.3892 122.125 21.8011 122.119ZM21.8011 121.182C22.1591 121.182 22.4801 121.092 22.7642 120.913C23.0511 120.734 23.277 120.494 23.4418 120.193C23.6094 119.892 23.6932 119.557 23.6932 119.188C23.6932 118.827 23.6122 118.499 23.4503 118.203C23.2912 117.905 23.071 117.668 22.7898 117.491C22.5114 117.315 22.1932 117.227 21.8352 117.227C21.5653 117.227 21.3139 117.281 21.081 117.389C20.848 117.494 20.6435 117.639 20.4673 117.824C20.294 118.009 20.1577 118.22 20.0582 118.459C19.9588 118.695 19.9091 118.943 19.9091 119.205C19.9091 119.551 19.9901 119.875 20.152 120.176C20.3168 120.477 20.5412 120.72 20.8253 120.905C21.1122 121.089 21.4375 121.182 21.8011 121.182ZM26.5451 122V113.273H27.6019V117.602H27.7042L31.6246 113.273H33.0053L29.3406 117.21L33.0053 122H31.7269L28.6928 117.943L27.6019 119.17V122H26.5451Z" fill="#737373"/>
<path d="M18.6989 151.21V150.341L22.5341 144.273H23.1648V145.619H22.7386L19.8409 150.205V150.273H25.0057V151.21H18.6989ZM22.8068 153V150.946V150.541V144.273H23.8125V153H22.8068ZM26.756 153V144.273H27.8129V148.602H27.9151L31.8356 144.273H33.2163L29.5515 148.21L33.2163 153H31.9379L28.9038 148.943L27.8129 150.17V153H26.756Z" fill="#737373"/>
<path d="M18.9034 184V183.233L21.7841 180.08C22.1222 179.71 22.4006 179.389 22.6193 179.116C22.8381 178.841 23 178.582 23.1051 178.341C23.2131 178.097 23.267 177.841 23.267 177.574C23.267 177.267 23.1932 177.001 23.0455 176.777C22.9006 176.553 22.7017 176.379 22.4489 176.257C22.196 176.135 21.9119 176.074 21.5966 176.074C21.2614 176.074 20.9688 176.143 20.7188 176.283C20.4716 176.419 20.2798 176.611 20.1435 176.858C20.0099 177.105 19.9432 177.395 19.9432 177.727H18.9375C18.9375 177.216 19.0554 176.767 19.2912 176.381C19.527 175.994 19.848 175.693 20.2543 175.477C20.6634 175.261 21.1222 175.153 21.6307 175.153C22.142 175.153 22.5952 175.261 22.9901 175.477C23.3849 175.693 23.6946 175.984 23.919 176.351C24.1435 176.717 24.2557 177.125 24.2557 177.574C24.2557 177.895 24.1974 178.209 24.081 178.516C23.9673 178.82 23.7685 179.159 23.4844 179.534C23.2031 179.906 22.8125 180.361 22.3125 180.898L20.3523 182.994V183.062H24.4091V184H18.9034ZM26.3224 184V175.273H27.3793V179.602H27.4815L31.402 175.273H32.7827L29.1179 179.21L32.7827 184H31.5043L28.4702 179.943L27.3793 181.17V184H26.3224Z" fill="#737373"/>
<path d="M21.75 215.119C21.108 215.119 20.5611 214.945 20.1094 214.595C19.6577 214.243 19.3125 213.733 19.0739 213.065C18.8352 212.395 18.7159 211.585 18.7159 210.636C18.7159 209.693 18.8352 208.888 19.0739 208.22C19.3153 207.55 19.6619 207.038 20.1136 206.686C20.5682 206.331 21.1136 206.153 21.75 206.153C22.3864 206.153 22.9304 206.331 23.3821 206.686C23.8366 207.038 24.1832 207.55 24.4219 208.22C24.6634 208.888 24.7841 209.693 24.7841 210.636C24.7841 211.585 24.6648 212.395 24.4261 213.065C24.1875 213.733 23.8423 214.243 23.3906 214.595C22.9389 214.945 22.392 215.119 21.75 215.119ZM21.75 214.182C22.3864 214.182 22.8807 213.875 23.233 213.261C23.5852 212.648 23.7614 211.773 23.7614 210.636C23.7614 209.881 23.6804 209.237 23.5185 208.706C23.3594 208.175 23.1293 207.77 22.8281 207.491C22.5298 207.213 22.1705 207.074 21.75 207.074C21.1193 207.074 20.6264 207.385 20.2713 208.007C19.9162 208.626 19.7386 209.503 19.7386 210.636C19.7386 211.392 19.8182 212.034 19.9773 212.562C20.1364 213.091 20.3651 213.493 20.6634 213.768C20.9645 214.044 21.3267 214.182 21.75 214.182ZM26.5568 215V206.273H27.6136V210.602H27.7159L31.6364 206.273H33.017L29.3523 210.21L33.017 215H31.7386L28.7045 210.943L27.6136 212.17V215H26.5568Z" fill="#737373"/>
<rect x="18" y="277.5" width="16" height="6" rx="3" fill="#818CF8"/>
<path d="M44.5795 277.21V276.273H51.125V277.21H48.3807V285H47.3239V277.21H44.5795ZM53.6254 281.062V285H52.6197V276.273H53.6254V279.477H53.7106C53.864 279.139 54.0941 278.871 54.4009 278.672C54.7106 278.47 55.1225 278.369 55.6367 278.369C56.0827 278.369 56.4734 278.459 56.8086 278.638C57.1438 278.814 57.4038 279.085 57.5884 279.452C57.7759 279.815 57.8697 280.278 57.8697 280.841V285H56.864V280.909C56.864 280.389 56.729 279.987 56.4592 279.703C56.1921 279.416 55.8214 279.273 55.3469 279.273C55.0174 279.273 54.7219 279.342 54.4606 279.482C54.2021 279.621 53.9975 279.824 53.8469 280.091C53.6992 280.358 53.6254 280.682 53.6254 281.062ZM59.7095 285V278.455H60.7152V285H59.7095ZM60.2209 277.364C60.0249 277.364 59.8558 277.297 59.7138 277.163C59.5746 277.03 59.505 276.869 59.505 276.682C59.505 276.494 59.5746 276.334 59.7138 276.2C59.8558 276.067 60.0249 276 60.2209 276C60.4169 276 60.5845 276.067 60.7237 276.2C60.8658 276.334 60.9368 276.494 60.9368 276.682C60.9368 276.869 60.8658 277.03 60.7237 277.163C60.5845 277.297 60.4169 277.364 60.2209 277.364ZM67.1935 279.92L66.2901 280.176C66.2333 280.026 66.1495 279.879 66.0387 279.737C65.9308 279.592 65.783 279.473 65.5955 279.379C65.408 279.286 65.168 279.239 64.8754 279.239C64.4748 279.239 64.141 279.331 63.8739 279.516C63.6097 279.697 63.4776 279.929 63.4776 280.21C63.4776 280.46 63.5685 280.658 63.7504 280.803C63.9322 280.947 64.2163 281.068 64.6026 281.165L65.5742 281.403C66.1594 281.545 66.5955 281.763 66.8825 282.055C67.1694 282.345 67.3129 282.719 67.3129 283.176C67.3129 283.551 67.2049 283.886 66.989 284.182C66.7759 284.477 66.4776 284.71 66.0941 284.881C65.7106 285.051 65.2646 285.136 64.756 285.136C64.0884 285.136 63.5359 284.991 63.0984 284.702C62.6609 284.412 62.3839 283.989 62.2674 283.432L63.2219 283.193C63.3129 283.545 63.4847 283.81 63.7376 283.986C63.9933 284.162 64.3271 284.25 64.739 284.25C65.2077 284.25 65.5799 284.151 65.8555 283.952C66.1339 283.75 66.2731 283.509 66.2731 283.227C66.2731 283 66.1935 282.81 66.0344 282.656C65.8754 282.5 65.631 282.384 65.3015 282.307L64.2106 282.051C63.6112 281.909 63.1708 281.689 62.8896 281.391C62.6112 281.089 62.4719 280.713 62.4719 280.261C62.4719 279.892 62.5756 279.565 62.783 279.281C62.9933 278.997 63.2788 278.774 63.6396 278.612C64.0032 278.45 64.4151 278.369 64.8754 278.369C65.5231 278.369 66.0316 278.511 66.4009 278.795C66.7731 279.08 67.0373 279.455 67.1935 279.92ZM72.8494 287.455C72.679 287.455 72.527 287.44 72.3935 287.412C72.2599 287.386 72.1676 287.361 72.1165 287.335L72.3722 286.449C72.6165 286.511 72.8324 286.534 73.0199 286.517C73.2074 286.5 73.3736 286.416 73.5185 286.266C73.6662 286.118 73.8011 285.878 73.9233 285.545L74.1108 285.034L71.6903 278.455H72.7812L74.5881 283.67H74.6562L76.4631 278.455H77.554L74.7756 285.955C74.6506 286.293 74.4957 286.572 74.3111 286.794C74.1264 287.018 73.9119 287.185 73.6676 287.293C73.4261 287.401 73.1534 287.455 72.8494 287.455ZM81.3913 285.136C80.7607 285.136 80.2166 284.997 79.7592 284.719C79.3047 284.438 78.9538 284.045 78.7067 283.543C78.4624 283.037 78.3402 282.449 78.3402 281.778C78.3402 281.108 78.4624 280.517 78.7067 280.006C78.9538 279.491 79.2976 279.091 79.7379 278.804C80.1811 278.514 80.6982 278.369 81.2891 278.369C81.63 278.369 81.9666 278.426 82.299 278.54C82.6314 278.653 82.9339 278.838 83.2067 279.094C83.4794 279.347 83.6967 279.682 83.8587 280.099C84.0206 280.517 84.1016 281.031 84.1016 281.642V282.068H79.0561V281.199H83.0788C83.0788 280.83 83.005 280.5 82.8572 280.21C82.7124 279.92 82.505 279.692 82.2351 279.524C81.968 279.357 81.6527 279.273 81.2891 279.273C80.8885 279.273 80.5419 279.372 80.2493 279.571C79.9595 279.767 79.7365 280.023 79.5803 280.338C79.424 280.653 79.3459 280.991 79.3459 281.352V281.932C79.3459 282.426 79.4311 282.845 79.6016 283.189C79.7749 283.53 80.0149 283.79 80.3217 283.969C80.6286 284.145 80.9851 284.233 81.3913 284.233C81.6555 284.233 81.8942 284.196 82.1072 284.122C82.3232 284.045 82.5092 283.932 82.6655 283.781C82.8217 283.628 82.9425 283.437 83.0277 283.21L83.9993 283.483C83.897 283.812 83.7251 284.102 83.4837 284.352C83.2422 284.599 82.9439 284.793 82.5888 284.932C82.2337 285.068 81.8345 285.136 81.3913 285.136ZM87.5575 285.153C87.1428 285.153 86.7663 285.075 86.4283 284.919C86.0902 284.76 85.8217 284.531 85.6229 284.233C85.424 283.932 85.3246 283.568 85.3246 283.142C85.3246 282.767 85.3984 282.463 85.5462 282.23C85.6939 281.994 85.8913 281.81 86.1385 281.676C86.3857 281.543 86.6584 281.443 86.9567 281.378C87.2578 281.31 87.5604 281.256 87.8643 281.216C88.2621 281.165 88.5845 281.126 88.8317 281.101C89.0817 281.072 89.2635 281.026 89.3771 280.96C89.4936 280.895 89.5518 280.781 89.5518 280.619V280.585C89.5518 280.165 89.4368 279.838 89.2067 279.605C88.9794 279.372 88.6342 279.256 88.1712 279.256C87.6911 279.256 87.3146 279.361 87.0419 279.571C86.7692 279.781 86.5774 280.006 86.4666 280.244L85.5121 279.903C85.6825 279.506 85.9098 279.196 86.1939 278.974C86.4808 278.75 86.7933 278.594 87.1314 278.506C87.4723 278.415 87.8075 278.369 88.1371 278.369C88.3473 278.369 88.5888 278.395 88.8615 278.446C89.1371 278.494 89.4027 278.595 89.6584 278.749C89.9169 278.902 90.1314 279.134 90.3018 279.443C90.4723 279.753 90.5575 280.168 90.5575 280.688V285H89.5518V284.114H89.5007C89.4325 284.256 89.3189 284.408 89.1598 284.57C89.0007 284.732 88.7891 284.869 88.5249 284.983C88.2607 285.097 87.9382 285.153 87.5575 285.153ZM87.7109 284.25C88.1087 284.25 88.4439 284.172 88.7166 284.016C88.9922 283.859 89.1996 283.658 89.3388 283.411C89.4808 283.163 89.5518 282.903 89.5518 282.631V281.71C89.5092 281.761 89.4155 281.808 89.2706 281.851C89.1286 281.891 88.9638 281.926 88.7763 281.957C88.5916 281.986 88.4112 282.011 88.2351 282.034C88.0618 282.054 87.9212 282.071 87.8132 282.085C87.5518 282.119 87.3075 282.175 87.0803 282.251C86.8558 282.325 86.674 282.437 86.5348 282.588C86.3984 282.736 86.3303 282.937 86.3303 283.193C86.3303 283.543 86.4595 283.807 86.718 283.986C86.9794 284.162 87.3104 284.25 87.7109 284.25ZM92.3931 285V278.455H93.3647V279.443H93.4329C93.5522 279.119 93.7681 278.857 94.0806 278.655C94.3931 278.453 94.7454 278.352 95.1374 278.352C95.2113 278.352 95.3036 278.354 95.4144 278.357C95.5252 278.359 95.609 278.364 95.6658 278.369V279.392C95.6317 279.384 95.5536 279.371 95.4315 279.354C95.3121 279.334 95.1857 279.324 95.0522 279.324C94.734 279.324 94.4499 279.391 94.1999 279.524C93.9528 279.655 93.7567 279.837 93.6119 280.07C93.4698 280.3 93.3988 280.562 93.3988 280.858V285H92.3931Z" fill="#525252"/>
<rect x="112" y="277.5" width="16" height="6" rx="3" fill="#FB923C"/>
<path d="M139.057 285V276.273H140.114V284.062H144.17V285H139.057ZM147.597 285.153C147.182 285.153 146.805 285.075 146.467 284.919C146.129 284.76 145.861 284.531 145.662 284.233C145.463 283.932 145.364 283.568 145.364 283.142C145.364 282.767 145.438 282.463 145.585 282.23C145.733 281.994 145.93 281.81 146.178 281.676C146.425 281.543 146.697 281.443 146.996 281.378C147.297 281.31 147.599 281.256 147.903 281.216C148.301 281.165 148.624 281.126 148.871 281.101C149.121 281.072 149.303 281.026 149.416 280.96C149.533 280.895 149.591 280.781 149.591 280.619V280.585C149.591 280.165 149.476 279.838 149.246 279.605C149.018 279.372 148.673 279.256 148.21 279.256C147.73 279.256 147.354 279.361 147.081 279.571C146.808 279.781 146.616 280.006 146.506 280.244L145.551 279.903C145.722 279.506 145.949 279.196 146.233 278.974C146.52 278.75 146.832 278.594 147.17 278.506C147.511 278.415 147.847 278.369 148.176 278.369C148.386 278.369 148.628 278.395 148.901 278.446C149.176 278.494 149.442 278.595 149.697 278.749C149.956 278.902 150.17 279.134 150.341 279.443C150.511 279.753 150.597 280.168 150.597 280.688V285H149.591V284.114H149.54C149.472 284.256 149.358 284.408 149.199 284.57C149.04 284.732 148.828 284.869 148.564 284.983C148.3 285.097 147.977 285.153 147.597 285.153ZM147.75 284.25C148.148 284.25 148.483 284.172 148.756 284.016C149.031 283.859 149.239 283.658 149.378 283.411C149.52 283.163 149.591 282.903 149.591 282.631V281.71C149.548 281.761 149.455 281.808 149.31 281.851C149.168 281.891 149.003 281.926 148.815 281.957C148.631 281.986 148.45 282.011 148.274 282.034C148.101 282.054 147.96 282.071 147.852 282.085C147.591 282.119 147.347 282.175 147.119 282.251C146.895 282.325 146.713 282.437 146.574 282.588C146.438 282.736 146.369 282.937 146.369 283.193C146.369 283.543 146.499 283.807 146.757 283.986C147.018 284.162 147.349 284.25 147.75 284.25ZM157.069 279.92L156.165 280.176C156.108 280.026 156.025 279.879 155.914 279.737C155.806 279.592 155.658 279.473 155.471 279.379C155.283 279.286 155.043 279.239 154.75 279.239C154.35 279.239 154.016 279.331 153.749 279.516C153.485 279.697 153.353 279.929 153.353 280.21C153.353 280.46 153.444 280.658 153.625 280.803C153.807 280.947 154.091 281.068 154.478 281.165L155.449 281.403C156.034 281.545 156.471 281.763 156.757 282.055C157.044 282.345 157.188 282.719 157.188 283.176C157.188 283.551 157.08 283.886 156.864 284.182C156.651 284.477 156.353 284.71 155.969 284.881C155.586 285.051 155.14 285.136 154.631 285.136C153.963 285.136 153.411 284.991 152.973 284.702C152.536 284.412 152.259 283.989 152.142 283.432L153.097 283.193C153.188 283.545 153.36 283.81 153.613 283.986C153.868 284.162 154.202 284.25 154.614 284.25C155.083 284.25 155.455 284.151 155.73 283.952C156.009 283.75 156.148 283.509 156.148 283.227C156.148 283 156.069 282.81 155.909 282.656C155.75 282.5 155.506 282.384 155.176 282.307L154.086 282.051C153.486 281.909 153.046 281.689 152.765 281.391C152.486 281.089 152.347 280.713 152.347 280.261C152.347 279.892 152.451 279.565 152.658 279.281C152.868 278.997 153.154 278.774 153.515 278.612C153.878 278.45 154.29 278.369 154.75 278.369C155.398 278.369 155.907 278.511 156.276 278.795C156.648 279.08 156.912 279.455 157.069 279.92ZM161.548 278.455V279.307H158.156V278.455H161.548ZM159.145 276.886H160.151V283.125C160.151 283.409 160.192 283.622 160.274 283.764C160.359 283.903 160.467 283.997 160.598 284.045C160.732 284.091 160.872 284.114 161.02 284.114C161.131 284.114 161.222 284.108 161.293 284.097C161.364 284.082 161.42 284.071 161.463 284.062L161.668 284.966C161.599 284.991 161.504 285.017 161.382 285.043C161.26 285.071 161.105 285.085 160.918 285.085C160.634 285.085 160.355 285.024 160.082 284.902C159.813 284.78 159.588 284.594 159.409 284.344C159.233 284.094 159.145 283.778 159.145 283.398V276.886ZM167.084 287.455C166.913 287.455 166.761 287.44 166.628 287.412C166.494 287.386 166.402 287.361 166.351 287.335L166.607 286.449C166.851 286.511 167.067 286.534 167.254 286.517C167.442 286.5 167.608 286.416 167.753 286.266C167.901 286.118 168.036 285.878 168.158 285.545L168.345 285.034L165.925 278.455H167.016L168.822 283.67H168.891L170.697 278.455H171.788L169.01 285.955C168.885 286.293 168.73 286.572 168.545 286.794C168.361 287.018 168.146 287.185 167.902 287.293C167.661 287.401 167.388 287.455 167.084 287.455ZM175.626 285.136C174.995 285.136 174.451 284.997 173.994 284.719C173.539 284.438 173.188 284.045 172.941 283.543C172.697 283.037 172.575 282.449 172.575 281.778C172.575 281.108 172.697 280.517 172.941 280.006C173.188 279.491 173.532 279.091 173.972 278.804C174.415 278.514 174.933 278.369 175.523 278.369C175.864 278.369 176.201 278.426 176.533 278.54C176.866 278.653 177.168 278.838 177.441 279.094C177.714 279.347 177.931 279.682 178.093 280.099C178.255 280.517 178.336 281.031 178.336 281.642V282.068H173.29V281.199H177.313C177.313 280.83 177.239 280.5 177.092 280.21C176.947 279.92 176.739 279.692 176.469 279.524C176.202 279.357 175.887 279.273 175.523 279.273C175.123 279.273 174.776 279.372 174.484 279.571C174.194 279.767 173.971 280.023 173.815 280.338C173.658 280.653 173.58 280.991 173.58 281.352V281.932C173.58 282.426 173.665 282.845 173.836 283.189C174.009 283.53 174.249 283.79 174.556 283.969C174.863 284.145 175.219 284.233 175.626 284.233C175.89 284.233 176.129 284.196 176.342 284.122C176.558 284.045 176.744 283.932 176.9 283.781C177.056 283.628 177.177 283.437 177.262 283.21L178.234 283.483C178.131 283.812 177.96 284.102 177.718 284.352C177.477 284.599 177.178 284.793 176.823 284.932C176.468 285.068 176.069 285.136 175.626 285.136ZM181.792 285.153C181.377 285.153 181.001 285.075 180.663 284.919C180.325 284.76 180.056 284.531 179.857 284.233C179.658 283.932 179.559 283.568 179.559 283.142C179.559 282.767 179.633 282.463 179.781 282.23C179.928 281.994 180.126 281.81 180.373 281.676C180.62 281.543 180.893 281.443 181.191 281.378C181.492 281.31 181.795 281.256 182.099 281.216C182.496 281.165 182.819 281.126 183.066 281.101C183.316 281.072 183.498 281.026 183.612 280.96C183.728 280.895 183.786 280.781 183.786 280.619V280.585C183.786 280.165 183.671 279.838 183.441 279.605C183.214 279.372 182.869 279.256 182.406 279.256C181.925 279.256 181.549 279.361 181.276 279.571C181.004 279.781 180.812 280.006 180.701 280.244L179.746 279.903C179.917 279.506 180.144 279.196 180.428 278.974C180.715 278.75 181.028 278.594 181.366 278.506C181.707 278.415 182.042 278.369 182.371 278.369C182.582 278.369 182.823 278.395 183.096 278.446C183.371 278.494 183.637 278.595 183.893 278.749C184.151 278.902 184.366 279.134 184.536 279.443C184.707 279.753 184.792 280.168 184.792 280.688V285H183.786V284.114H183.735C183.667 284.256 183.553 284.408 183.394 284.57C183.235 284.732 183.023 284.869 182.759 284.983C182.495 285.097 182.173 285.153 181.792 285.153ZM181.945 284.25C182.343 284.25 182.678 284.172 182.951 284.016C183.227 283.859 183.434 283.658 183.573 283.411C183.715 283.163 183.786 282.903 183.786 282.631V281.71C183.744 281.761 183.65 281.808 183.505 281.851C183.363 281.891 183.198 281.926 183.011 281.957C182.826 281.986 182.646 282.011 182.469 282.034C182.296 282.054 182.156 282.071 182.048 282.085C181.786 282.119 181.542 282.175 181.315 282.251C181.09 282.325 180.908 282.437 180.769 282.588C180.633 282.736 180.565 282.937 180.565 283.193C180.565 283.543 180.694 283.807 180.952 283.986C181.214 284.162 181.545 284.25 181.945 284.25ZM186.627 285V278.455H187.599V279.443H187.667C187.787 279.119 188.002 278.857 188.315 278.655C188.627 278.453 188.98 278.352 189.372 278.352C189.446 278.352 189.538 278.354 189.649 278.357C189.76 278.359 189.843 278.364 189.9 278.369V279.392C189.866 279.384 189.788 279.371 189.666 279.354C189.547 279.334 189.42 279.324 189.287 279.324C188.968 279.324 188.684 279.391 188.434 279.524C188.187 279.655 187.991 279.837 187.846 280.07C187.704 280.3 187.633 280.562 187.633 280.858V285H186.627Z" fill="#525252"/>
<g filter="url(#filter1_d_16_180)">
<rect x="184" y="77" width="78" height="51" rx="4" fill="white"/>
<path d="M197.805 90.1534C198.223 90.1562 198.629 90.2301 199.024 90.375C199.422 90.517 199.78 90.75 200.098 91.0739C200.416 91.3949 200.669 91.8253 200.857 92.3651C201.044 92.9048 201.138 93.5724 201.138 94.3679C201.141 95.1179 201.061 95.7884 200.899 96.3793C200.74 96.9673 200.511 97.4645 200.213 97.8707C199.915 98.277 199.555 98.5866 199.135 98.7997C198.714 99.0128 198.241 99.1193 197.716 99.1193C197.165 99.1193 196.676 99.0114 196.25 98.7955C195.827 98.5795 195.484 98.2841 195.223 97.9091C194.962 97.5341 194.801 97.1051 194.741 96.6222H196.297C196.376 96.9687 196.538 97.2443 196.783 97.4489C197.03 97.6506 197.341 97.7514 197.716 97.7514C198.321 97.7514 198.787 97.4886 199.114 96.9631C199.44 96.4375 199.604 95.7074 199.604 94.7727H199.544C199.405 95.0227 199.224 95.2386 199.003 95.4205C198.781 95.5994 198.53 95.7372 198.249 95.8338C197.97 95.9304 197.675 95.9787 197.362 95.9787C196.851 95.9787 196.391 95.8565 195.982 95.6122C195.575 95.3679 195.253 95.0327 195.014 94.6065C194.778 94.1804 194.659 93.6932 194.656 93.1449C194.656 92.5767 194.787 92.0668 195.048 91.6151C195.313 91.1605 195.68 90.8026 196.152 90.5412C196.624 90.277 197.175 90.1477 197.805 90.1534ZM197.81 91.4318C197.503 91.4318 197.226 91.5071 196.979 91.6577C196.734 91.8054 196.541 92.0071 196.399 92.2628C196.26 92.5156 196.19 92.7983 196.19 93.1108C196.193 93.4205 196.263 93.7017 196.399 93.9545C196.538 94.2074 196.727 94.4077 196.966 94.5554C197.207 94.7031 197.483 94.777 197.793 94.777C198.023 94.777 198.237 94.733 198.436 94.6449C198.635 94.5568 198.808 94.4347 198.956 94.2784C199.107 94.1193 199.223 93.9389 199.305 93.7372C199.391 93.5355 199.432 93.3224 199.429 93.098C199.429 92.7997 199.358 92.5241 199.216 92.2713C199.077 92.0185 198.885 91.8153 198.641 91.6619C198.399 91.5085 198.122 91.4318 197.81 91.4318ZM205.659 99.1193C205.026 99.1193 204.463 99.0128 203.972 98.7997C203.483 98.5866 203.099 98.2955 202.821 97.9261C202.545 97.554 202.409 97.1321 202.412 96.6605C202.409 96.294 202.489 95.9574 202.651 95.6506C202.813 95.3438 203.031 95.0881 203.307 94.8835C203.585 94.6761 203.895 94.544 204.236 94.4872V94.4276C203.787 94.3281 203.423 94.0994 203.145 93.7415C202.869 93.3807 202.733 92.9645 202.736 92.4929C202.733 92.044 202.858 91.6435 203.111 91.2912C203.364 90.9389 203.71 90.6619 204.151 90.4602C204.591 90.2557 205.094 90.1534 205.659 90.1534C206.219 90.1534 206.717 90.2557 207.155 90.4602C207.595 90.6619 207.942 90.9389 208.195 91.2912C208.45 91.6435 208.578 92.044 208.578 92.4929C208.578 92.9645 208.438 93.3807 208.156 93.7415C207.878 94.0994 207.518 94.3281 207.078 94.4276V94.4872C207.419 94.544 207.726 94.6761 207.999 94.8835C208.274 95.0881 208.493 95.3438 208.655 95.6506C208.82 95.9574 208.902 96.294 208.902 96.6605C208.902 97.1321 208.763 97.554 208.484 97.9261C208.206 98.2955 207.822 98.5866 207.334 98.7997C206.848 99.0128 206.29 99.1193 205.659 99.1193ZM205.659 97.9006C205.986 97.9006 206.27 97.8452 206.511 97.7344C206.753 97.6207 206.94 97.4616 207.074 97.2571C207.207 97.0526 207.276 96.8168 207.278 96.5497C207.276 96.2713 207.203 96.0256 207.061 95.8125C206.922 95.5966 206.73 95.4276 206.486 95.3054C206.244 95.1832 205.969 95.1222 205.659 95.1222C205.347 95.1222 205.068 95.1832 204.824 95.3054C204.58 95.4276 204.386 95.5966 204.244 95.8125C204.105 96.0256 204.037 96.2713 204.04 96.5497C204.037 96.8168 204.102 97.0526 204.236 97.2571C204.369 97.4588 204.557 97.6165 204.798 97.7301C205.043 97.8437 205.33 97.9006 205.659 97.9006ZM205.659 93.9247C205.926 93.9247 206.162 93.8707 206.366 93.7628C206.574 93.6548 206.737 93.5043 206.857 93.3111C206.976 93.1179 207.037 92.8949 207.04 92.642C207.037 92.392 206.977 92.1733 206.861 91.9858C206.744 91.7955 206.582 91.6491 206.375 91.5469C206.168 91.4418 205.929 91.3892 205.659 91.3892C205.384 91.3892 205.141 91.4418 204.93 91.5469C204.723 91.6491 204.561 91.7955 204.445 91.9858C204.331 92.1733 204.276 92.392 204.278 92.642C204.276 92.8949 204.332 93.1179 204.449 93.3111C204.568 93.5014 204.732 93.652 204.939 93.7628C205.149 93.8707 205.389 93.9247 205.659 93.9247ZM214.969 97.3636V96.9034C214.969 96.5653 215.04 96.2543 215.182 95.9702C215.327 95.6861 215.537 95.4574 215.813 95.2841C216.088 95.1108 216.422 95.0241 216.814 95.0241C217.218 95.0241 217.556 95.1108 217.828 95.2841C218.101 95.4545 218.307 95.6818 218.446 95.9659C218.588 96.25 218.659 96.5625 218.659 96.9034V97.3636C218.659 97.7017 218.588 98.0128 218.446 98.2969C218.304 98.581 218.096 98.8097 217.82 98.983C217.547 99.1563 217.212 99.2429 216.814 99.2429C216.417 99.2429 216.08 99.1563 215.804 98.983C215.529 98.8097 215.32 98.581 215.178 98.2969C215.039 98.0128 214.969 97.7017 214.969 97.3636ZM216.081 96.9034V97.3636C216.081 97.5881 216.135 97.794 216.243 97.9815C216.351 98.169 216.542 98.2628 216.814 98.2628C217.09 98.2628 217.279 98.1705 217.381 97.9858C217.486 97.7983 217.539 97.5909 217.539 97.3636V96.9034C217.539 96.6761 217.489 96.4688 217.39 96.2812C217.29 96.0909 217.098 95.9957 216.814 95.9957C216.547 95.9957 216.358 96.0909 216.248 96.2812C216.137 96.4688 216.081 96.6761 216.081 96.9034ZM210.533 92.3693V91.9091C210.533 91.5682 210.605 91.2557 210.75 90.9716C210.895 90.6875 211.105 90.4602 211.381 90.2898C211.657 90.1165 211.99 90.0298 212.382 90.0298C212.783 90.0298 213.12 90.1165 213.392 90.2898C213.668 90.4602 213.875 90.6875 214.015 90.9716C214.154 91.2557 214.223 91.5682 214.223 91.9091V92.3693C214.223 92.7102 214.152 93.0227 214.01 93.3068C213.871 93.5881 213.664 93.8139 213.388 93.9844C213.113 94.1548 212.777 94.2401 212.382 94.2401C211.982 94.2401 211.644 94.1548 211.368 93.9844C211.096 93.8139 210.888 93.5866 210.746 93.3026C210.604 93.0185 210.533 92.7074 210.533 92.3693ZM211.654 91.9091V92.3693C211.654 92.5966 211.706 92.804 211.811 92.9915C211.919 93.1761 212.11 93.2685 212.382 93.2685C212.655 93.2685 212.843 93.1761 212.945 92.9915C213.05 92.804 213.103 92.5966 213.103 92.3693V91.9091C213.103 91.6818 213.053 91.4744 212.953 91.2869C212.854 91.0966 212.664 91.0014 212.382 91.0014C212.113 91.0014 211.924 91.0966 211.816 91.2869C211.708 91.4773 211.654 91.6847 211.654 91.9091ZM211.019 99L217.019 90.2727H218.084L212.084 99H211.019ZM223.106 91.598V90.2727H230.069V91.598H227.372V99H225.804V91.598H223.106ZM233.249 99.1278C232.61 99.1278 232.056 98.9872 231.587 98.706C231.119 98.4247 230.755 98.0312 230.496 97.5256C230.241 97.0199 230.113 96.429 230.113 95.7528C230.113 95.0767 230.241 94.4844 230.496 93.9759C230.755 93.4673 231.119 93.0724 231.587 92.7912C232.056 92.5099 232.61 92.3693 233.249 92.3693C233.888 92.3693 234.442 92.5099 234.911 92.7912C235.38 93.0724 235.742 93.4673 235.998 93.9759C236.256 94.4844 236.386 95.0767 236.386 95.7528C236.386 96.429 236.256 97.0199 235.998 97.5256C235.742 98.0312 235.38 98.4247 234.911 98.706C234.442 98.9872 233.888 99.1278 233.249 99.1278ZM233.258 97.892C233.604 97.892 233.894 97.7969 234.127 97.6065C234.36 97.4134 234.533 97.1548 234.647 96.831C234.763 96.5071 234.822 96.1463 234.822 95.7486C234.822 95.348 234.763 94.9858 234.647 94.6619C234.533 94.3352 234.36 94.0753 234.127 93.8821C233.894 93.6889 233.604 93.5923 233.258 93.5923C232.903 93.5923 232.607 93.6889 232.371 93.8821C232.138 94.0753 231.964 94.3352 231.847 94.6619C231.734 94.9858 231.677 95.348 231.677 95.7486C231.677 96.1463 231.734 96.5071 231.847 96.831C231.964 97.1548 232.138 97.4134 232.371 97.6065C232.607 97.7969 232.903 97.892 233.258 97.892ZM240.963 92.4545V93.6477H237.201V92.4545H240.963ZM238.13 90.8864H239.672V97.0312C239.672 97.2386 239.703 97.3977 239.766 97.5085C239.831 97.6165 239.917 97.6903 240.022 97.7301C240.127 97.7699 240.243 97.7898 240.371 97.7898C240.468 97.7898 240.556 97.7827 240.635 97.7685C240.718 97.7543 240.78 97.7415 240.823 97.7301L241.083 98.9361C241 98.9645 240.882 98.9957 240.729 99.0298C240.578 99.0639 240.394 99.0838 240.175 99.0895C239.789 99.1009 239.441 99.0426 239.131 98.9148C238.821 98.7841 238.576 98.5824 238.394 98.3097C238.215 98.0369 238.127 97.696 238.13 97.2869V90.8864ZM244.137 99.1321C243.722 99.1321 243.349 99.0582 243.016 98.9105C242.687 98.7599 242.425 98.5384 242.232 98.2457C242.042 97.9531 241.947 97.5923 241.947 97.1634C241.947 96.794 242.015 96.4886 242.151 96.2472C242.288 96.0057 242.474 95.8125 242.71 95.6676C242.945 95.5227 243.211 95.4134 243.506 95.3395C243.805 95.2628 244.113 95.2074 244.431 95.1733C244.815 95.1335 245.126 95.098 245.364 95.0668C245.603 95.0327 245.776 94.9815 245.884 94.9134C245.995 94.8423 246.05 94.733 246.05 94.5852V94.5597C246.05 94.2386 245.955 93.9901 245.765 93.8139C245.575 93.6378 245.3 93.5497 244.942 93.5497C244.565 93.5497 244.265 93.6321 244.043 93.7969C243.825 93.9616 243.677 94.1562 243.6 94.3807L242.16 94.1761C242.273 93.7784 242.461 93.446 242.722 93.179C242.984 92.9091 243.303 92.7074 243.681 92.5739C244.059 92.4375 244.477 92.3693 244.934 92.3693C245.249 92.3693 245.563 92.4062 245.876 92.4801C246.188 92.554 246.474 92.6761 246.732 92.8466C246.991 93.0142 247.198 93.2429 247.354 93.5327C247.513 93.8224 247.593 94.1847 247.593 94.6193V99H246.11V98.1009H246.059C245.965 98.2827 245.833 98.4531 245.663 98.6122C245.495 98.7685 245.283 98.8949 245.028 98.9915C244.775 99.0852 244.478 99.1321 244.137 99.1321ZM244.538 97.9986C244.847 97.9986 245.116 97.9375 245.343 97.8153C245.57 97.6903 245.745 97.5256 245.867 97.321C245.992 97.1165 246.055 96.8935 246.055 96.652V95.8807C246.006 95.9205 245.924 95.9574 245.808 95.9915C245.694 96.0256 245.566 96.0554 245.424 96.081C245.282 96.1065 245.141 96.1293 245.002 96.1491C244.863 96.169 244.742 96.1861 244.64 96.2003C244.41 96.2315 244.204 96.2827 244.022 96.3537C243.84 96.4247 243.697 96.5241 243.592 96.652C243.487 96.777 243.434 96.9389 243.434 97.1378C243.434 97.4219 243.538 97.6364 243.745 97.7812C243.952 97.9261 244.217 97.9986 244.538 97.9986ZM250.687 90.2727V99H249.144V90.2727H250.687Z" fill="#171717"/>
<path d="M203.668 116.099C203.369 116.095 203.071 116.038 202.773 115.929C202.474 115.82 202.202 115.637 201.956 115.379C201.71 115.118 201.512 114.767 201.363 114.324C201.214 113.879 201.139 113.32 201.139 112.648C201.139 112.004 201.2 111.433 201.32 110.936C201.441 110.437 201.616 110.016 201.846 109.675C202.076 109.332 202.353 109.072 202.677 108.894C203.004 108.717 203.372 108.628 203.781 108.628C204.188 108.628 204.551 108.71 204.868 108.873C205.188 109.034 205.448 109.259 205.649 109.548C205.85 109.836 205.981 110.169 206.04 110.545H205.173C205.093 110.219 204.937 109.948 204.705 109.732C204.473 109.517 204.165 109.409 203.781 109.409C203.218 109.409 202.774 109.654 202.45 110.144C202.128 110.634 201.965 111.322 201.963 112.207H202.02C202.152 112.006 202.31 111.835 202.492 111.692C202.677 111.548 202.88 111.437 203.103 111.359C203.326 111.281 203.561 111.241 203.81 111.241C204.226 111.241 204.607 111.346 204.953 111.554C205.299 111.76 205.576 112.045 205.784 112.41C205.992 112.772 206.097 113.188 206.097 113.656C206.097 114.106 205.996 114.518 205.795 114.892C205.594 115.264 205.311 115.56 204.946 115.78C204.584 115.998 204.158 116.104 203.668 116.099ZM203.668 115.318C203.966 115.318 204.233 115.244 204.47 115.094C204.709 114.945 204.897 114.745 205.035 114.494C205.174 114.243 205.244 113.964 205.244 113.656C205.244 113.356 205.177 113.082 205.042 112.836C204.909 112.587 204.726 112.39 204.491 112.243C204.259 112.096 203.994 112.023 203.696 112.023C203.471 112.023 203.262 112.068 203.067 112.158C202.873 112.245 202.703 112.366 202.556 112.52C202.412 112.674 202.298 112.85 202.215 113.049C202.132 113.246 202.091 113.453 202.091 113.67C202.091 113.959 202.158 114.229 202.293 114.48C202.431 114.731 202.618 114.933 202.854 115.087C203.094 115.241 203.365 115.318 203.668 115.318ZM209.865 116.099C209.33 116.099 208.874 115.954 208.498 115.663C208.122 115.369 207.834 114.944 207.635 114.388C207.436 113.829 207.337 113.154 207.337 112.364C207.337 111.578 207.436 110.906 207.635 110.35C207.836 109.791 208.125 109.365 208.502 109.072C208.88 108.776 209.335 108.628 209.865 108.628C210.396 108.628 210.849 108.776 211.225 109.072C211.604 109.365 211.893 109.791 212.092 110.35C212.293 110.906 212.394 111.578 212.394 112.364C212.394 113.154 212.294 113.829 212.095 114.388C211.896 114.944 211.609 115.369 211.232 115.663C210.856 115.954 210.4 116.099 209.865 116.099ZM209.865 115.318C210.396 115.318 210.807 115.062 211.101 114.551C211.395 114.04 211.541 113.311 211.541 112.364C211.541 111.734 211.474 111.198 211.339 110.755C211.206 110.312 211.015 109.975 210.764 109.743C210.515 109.511 210.216 109.395 209.865 109.395C209.34 109.395 208.929 109.654 208.633 110.173C208.337 110.689 208.189 111.419 208.189 112.364C208.189 112.993 208.255 113.528 208.388 113.969C208.521 114.409 208.711 114.744 208.96 114.974C209.211 115.203 209.512 115.318 209.865 115.318ZM217.45 114.636V114.253C217.45 113.988 217.505 113.745 217.614 113.525C217.725 113.302 217.886 113.125 218.097 112.992C218.31 112.857 218.568 112.79 218.871 112.79C219.179 112.79 219.437 112.857 219.645 112.992C219.853 113.125 220.011 113.302 220.117 113.525C220.224 113.745 220.277 113.988 220.277 114.253V114.636C220.277 114.902 220.223 115.145 220.114 115.368C220.007 115.588 219.849 115.766 219.638 115.901C219.43 116.033 219.174 116.099 218.871 116.099C218.563 116.099 218.304 116.033 218.093 115.901C217.883 115.766 217.723 115.588 217.614 115.368C217.505 115.145 217.45 114.902 217.45 114.636ZM218.175 114.253V114.636C218.175 114.857 218.227 115.054 218.331 115.229C218.435 115.402 218.615 115.489 218.871 115.489C219.119 115.489 219.295 115.402 219.396 115.229C219.501 115.054 219.553 114.857 219.553 114.636V114.253C219.553 114.033 219.503 113.836 219.404 113.663C219.304 113.488 219.127 113.401 218.871 113.401C218.622 113.401 218.444 113.488 218.335 113.663C218.228 113.836 218.175 114.033 218.175 114.253ZM213.828 110.474V110.091C213.828 109.826 213.883 109.583 213.992 109.363C214.103 109.14 214.264 108.963 214.475 108.83C214.688 108.695 214.946 108.628 215.249 108.628C215.557 108.628 215.815 108.695 216.023 108.83C216.231 108.963 216.389 109.14 216.495 109.363C216.602 109.583 216.655 109.826 216.655 110.091V110.474C216.655 110.74 216.601 110.983 216.492 111.206C216.385 111.426 216.227 111.604 216.016 111.739C215.807 111.871 215.552 111.938 215.249 111.938C214.941 111.938 214.682 111.871 214.471 111.739C214.26 111.604 214.101 111.426 213.992 111.206C213.883 110.983 213.828 110.74 213.828 110.474ZM214.553 110.091V110.474C214.553 110.695 214.605 110.892 214.709 111.067C214.813 111.24 214.993 111.327 215.249 111.327C215.497 111.327 215.673 111.24 215.774 111.067C215.878 110.892 215.931 110.695 215.931 110.474V110.091C215.931 109.871 215.881 109.674 215.781 109.501C215.682 109.326 215.504 109.239 215.249 109.239C215 109.239 214.821 109.326 214.713 109.501C214.606 109.674 214.553 109.871 214.553 110.091ZM214.098 116L219.098 108.727H219.908L214.908 116H214.098ZM225.107 116H224.183L226.854 108.727H227.763L230.433 116H229.51L227.337 109.878H227.28L225.107 116ZM225.448 113.159H229.169V113.94H225.448V113.159ZM231.453 118.045V110.545H232.262V111.412H232.362C232.423 111.317 232.508 111.196 232.617 111.05C232.729 110.901 232.887 110.768 233.093 110.652C233.302 110.534 233.583 110.474 233.938 110.474C234.398 110.474 234.802 110.589 235.153 110.819C235.503 111.049 235.777 111.374 235.973 111.795C236.17 112.217 236.268 112.714 236.268 113.287C236.268 113.865 236.17 114.365 235.973 114.789C235.777 115.21 235.504 115.537 235.156 115.769C234.808 115.999 234.407 116.114 233.953 116.114C233.602 116.114 233.322 116.056 233.111 115.94C232.9 115.821 232.738 115.687 232.624 115.538C232.511 115.387 232.423 115.261 232.362 115.162H232.291V118.045H231.453ZM232.276 113.273C232.276 113.685 232.337 114.048 232.458 114.363C232.578 114.675 232.755 114.92 232.987 115.098C233.219 115.273 233.503 115.361 233.839 115.361C234.189 115.361 234.482 115.268 234.716 115.084C234.953 114.897 235.13 114.646 235.249 114.331C235.369 114.014 235.43 113.661 235.43 113.273C235.43 112.889 235.371 112.544 235.252 112.236C235.136 111.926 234.96 111.681 234.723 111.501C234.489 111.318 234.194 111.227 233.839 111.227C233.498 111.227 233.212 111.314 232.98 111.487C232.748 111.657 232.572 111.896 232.454 112.204C232.336 112.509 232.276 112.866 232.276 113.273ZM237.546 116V110.545H238.356V111.369H238.413C238.512 111.099 238.692 110.88 238.953 110.712C239.213 110.544 239.507 110.46 239.833 110.46C239.895 110.46 239.972 110.461 240.064 110.464C240.156 110.466 240.226 110.47 240.274 110.474V111.327C240.245 111.32 240.18 111.309 240.078 111.295C239.979 111.278 239.874 111.27 239.762 111.27C239.497 111.27 239.26 111.326 239.052 111.437C238.846 111.546 238.683 111.697 238.562 111.891C238.444 112.083 238.384 112.302 238.384 112.548V116H237.546ZM241.267 116V110.545H242.105V116H241.267ZM241.693 109.636C241.53 109.636 241.389 109.581 241.271 109.469C241.155 109.358 241.097 109.224 241.097 109.068C241.097 108.912 241.155 108.778 241.271 108.667C241.389 108.556 241.53 108.5 241.693 108.5C241.857 108.5 241.996 108.556 242.112 108.667C242.231 108.778 242.29 108.912 242.29 109.068C242.29 109.224 242.231 109.358 242.112 109.469C241.996 109.581 241.857 109.636 241.693 109.636ZM244.478 108.727V116H243.64V108.727H244.478Z" fill="#525252"/>
<path d="M224.974 132.392C224.182 133.256 222.818 133.256 222.026 132.392L218 128L229 128L224.974 132.392Z" fill="white"/>
</g>
<g filter="url(#filter2_d_16_180)">
<circle cx="223" cy="142" r="4" fill="#818CF8"/>
<circle cx="223" cy="142" r="5" stroke="white" stroke-width="2"/>
</g>
</g>
<defs>
<filter id="filter0_d_16_180" x="0" y="0" width="488" height="307" filterUnits="userSpaceOnUse" color-interpolation-filters="sRGB">
<feFlood flood-opacity="0" result="BackgroundImageFix"/>
<feColorMatrix in="SourceAlpha" type="matrix" values="0 0 0 0 0 0 0 0 0 0 0 0 0 0 0 0 0 0 127 0" result="hardAlpha"/>
<feOffset dy="1"/>
<feGaussianBlur stdDeviation="1"/>
<feComposite in2="hardAlpha" operator="out"/>
<feColorMatrix type="matrix" values="0 0 0 0 0 0 0 0 0 0 0 0 0 0 0 0 0 0 0.16 0"/>
<feBlend mode="normal" in2="BackgroundImageFix" result="effect1_dropShadow_16_180"/>
<feBlend mode="normal" in="SourceGraphic" in2="effect1_dropShadow_16_180" result="shape"/>
</filter>
<filter id="filter1_d_16_180" x="176" y="73" width="94" height="72.0402" filterUnits="userSpaceOnUse" color-interpolation-filters="sRGB">
<feFlood flood-opacity="0" result="BackgroundImageFix"/>
<feColorMatrix in="SourceAlpha" type="matrix" values="0 0 0 0 0 0 0 0 0 0 0 0 0 0 0 0 0 0 127 0" result="hardAlpha"/>
<feOffset dy="4"/>
<feGaussianBlur stdDeviation="4"/>
<feComposite in2="hardAlpha" operator="out"/>
<feColorMatrix type="matrix" values="0 0 0 0 0 0 0 0 0 0 0 0 0 0 0 0 0 0 0.08 0"/>
<feBlend mode="normal" in2="BackgroundImageFix" result="effect1_dropShadow_16_180"/>
<feBlend mode="normal" in="SourceGraphic" in2="effect1_dropShadow_16_180" result="shape"/>
</filter>
<filter id="filter2_d_16_180" x="213" y="134" width="20" height="20" filterUnits="userSpaceOnUse" color-interpolation-filters="sRGB">
<feFlood flood-opacity="0" result="BackgroundImageFix"/>
<feColorMatrix in="SourceAlpha" type="matrix" values="0 0 0 0 0 0 0 0 0 0 0 0 0 0 0 0 0 0 127 0" result="hardAlpha"/>
<feOffset dy="2"/>
<feGaussianBlur stdDeviation="2"/>
<feComposite in2="hardAlpha" operator="out"/>
<feColorMatrix type="matrix" values="0 0 0 0 0 0 0 0 0 0 0 0 0 0 0 0 0 0 0.12 0"/>
<feBlend mode="normal" in2="BackgroundImageFix" result="effect1_dropShadow_16_180"/>
<feBlend mode="normal" in="SourceGraphic" in2="effect1_dropShadow_16_180" result="shape"/>
</filter>
</defs>
</svg>
