<svg width="auto" height="auto" viewBox="0 0 550 360" fill="none" xmlns="http://www.w3.org/2000/svg">
<rect width="550" height="360" fill="white"/>
<g filter="url(#filter0_d_2840_3331)">
<rect x="189" y="59" width="172" height="241" rx="16" fill="white"/>
<g filter="url(#filter1_d_2840_3331)">
<rect x="225" y="97" width="100" height="100" rx="50" fill="white"/>
<path opacity="0.4" d="M250.284 119.5V113.9H253.812V114.732H251.148V118.668H253.812V119.5H250.284ZM250.676 117.044V116.212H253.372V117.044H250.676ZM255.006 119.5V113.58H255.83V119.5H255.006ZM258.536 119.58C258.189 119.58 257.872 119.484 257.584 119.292C257.301 119.1 257.074 118.839 256.904 118.508C256.733 118.177 256.648 117.804 256.648 117.388C256.648 116.967 256.733 116.593 256.904 116.268C257.08 115.937 257.314 115.679 257.608 115.492C257.906 115.305 258.24 115.212 258.608 115.212C258.826 115.212 259.026 115.244 259.208 115.308C259.389 115.372 259.546 115.463 259.68 115.58C259.818 115.692 259.93 115.823 260.016 115.972C260.106 116.121 260.162 116.281 260.184 116.452L260 116.388V115.3H260.832V119.5H260V118.5L260.192 118.444C260.16 118.588 260.093 118.729 259.992 118.868C259.896 119.001 259.77 119.121 259.616 119.228C259.466 119.335 259.298 119.42 259.112 119.484C258.93 119.548 258.738 119.58 258.536 119.58ZM258.752 118.82C259.002 118.82 259.224 118.759 259.416 118.636C259.608 118.513 259.757 118.345 259.864 118.132C259.976 117.913 260.032 117.665 260.032 117.388C260.032 117.116 259.976 116.873 259.864 116.66C259.757 116.447 259.608 116.279 259.416 116.156C259.224 116.033 259.002 115.972 258.752 115.972C258.506 115.972 258.288 116.033 258.096 116.156C257.909 116.279 257.76 116.447 257.648 116.66C257.541 116.873 257.488 117.116 257.488 117.388C257.488 117.665 257.541 117.913 257.648 118.132C257.76 118.345 257.909 118.513 258.096 118.636C258.288 118.759 258.506 118.82 258.752 118.82ZM261.982 121.26V115.3H262.814V116.26L262.686 116.188C262.718 116.028 262.809 115.876 262.958 115.732C263.108 115.583 263.289 115.463 263.502 115.372C263.721 115.276 263.945 115.228 264.174 115.228C264.553 115.228 264.889 115.321 265.182 115.508C265.476 115.695 265.708 115.951 265.878 116.276C266.049 116.601 266.134 116.975 266.134 117.396C266.134 117.812 266.049 118.185 265.878 118.516C265.713 118.841 265.484 119.1 265.19 119.292C264.897 119.479 264.566 119.572 264.198 119.572C263.953 119.572 263.716 119.524 263.486 119.428C263.257 119.327 263.062 119.199 262.902 119.044C262.742 118.889 262.644 118.729 262.606 118.564L262.814 118.452V121.26H261.982ZM264.062 118.812C264.308 118.812 264.526 118.751 264.718 118.628C264.91 118.505 265.062 118.337 265.174 118.124C265.286 117.911 265.342 117.668 265.342 117.396C265.342 117.124 265.286 116.884 265.174 116.676C265.068 116.463 264.918 116.295 264.726 116.172C264.534 116.049 264.313 115.988 264.062 115.988C263.812 115.988 263.59 116.049 263.398 116.172C263.206 116.289 263.054 116.455 262.942 116.668C262.83 116.881 262.774 117.124 262.774 117.396C262.774 117.668 262.83 117.911 262.942 118.124C263.054 118.337 263.206 118.505 263.398 118.628C263.59 118.751 263.812 118.812 264.062 118.812ZM268.429 119.58C268.077 119.58 267.76 119.519 267.477 119.396C267.194 119.273 266.96 119.092 266.773 118.852L267.333 118.372C267.493 118.559 267.666 118.695 267.853 118.78C268.045 118.86 268.261 118.9 268.501 118.9C268.597 118.9 268.685 118.889 268.765 118.868C268.85 118.841 268.922 118.804 268.981 118.756C269.045 118.708 269.093 118.652 269.125 118.588C269.157 118.519 269.173 118.444 269.173 118.364C269.173 118.225 269.122 118.113 269.021 118.028C268.968 117.991 268.882 117.951 268.765 117.908C268.653 117.86 268.506 117.812 268.325 117.764C268.016 117.684 267.762 117.593 267.565 117.492C267.368 117.391 267.216 117.276 267.109 117.148C267.029 117.047 266.97 116.937 266.933 116.82C266.896 116.697 266.877 116.564 266.877 116.42C266.877 116.244 266.914 116.084 266.989 115.94C267.069 115.791 267.176 115.663 267.309 115.556C267.448 115.444 267.608 115.359 267.789 115.3C267.976 115.241 268.173 115.212 268.381 115.212C268.578 115.212 268.773 115.239 268.965 115.292C269.162 115.345 269.344 115.423 269.509 115.524C269.674 115.625 269.813 115.745 269.925 115.884L269.453 116.404C269.352 116.303 269.24 116.215 269.117 116.14C269 116.06 268.88 115.999 268.757 115.956C268.634 115.913 268.522 115.892 268.421 115.892C268.309 115.892 268.208 115.903 268.117 115.924C268.026 115.945 267.949 115.977 267.885 116.02C267.826 116.063 267.781 116.116 267.749 116.18C267.717 116.244 267.701 116.316 267.701 116.396C267.706 116.465 267.722 116.532 267.749 116.596C267.781 116.655 267.824 116.705 267.877 116.748C267.936 116.791 268.024 116.836 268.141 116.884C268.258 116.932 268.408 116.977 268.589 117.02C268.856 117.089 269.074 117.167 269.245 117.252C269.421 117.332 269.56 117.425 269.661 117.532C269.768 117.633 269.842 117.751 269.885 117.884C269.928 118.017 269.949 118.167 269.949 118.332C269.949 118.572 269.88 118.788 269.741 118.98C269.608 119.167 269.426 119.313 269.197 119.42C268.968 119.527 268.712 119.58 268.429 119.58ZM272.817 119.58C272.385 119.58 272.001 119.489 271.665 119.308C271.335 119.121 271.073 118.868 270.881 118.548C270.695 118.228 270.601 117.86 270.601 117.444C270.601 117.113 270.655 116.812 270.761 116.54C270.868 116.268 271.015 116.033 271.201 115.836C271.393 115.633 271.62 115.479 271.881 115.372C272.148 115.26 272.436 115.204 272.745 115.204C273.017 115.204 273.271 115.257 273.505 115.364C273.74 115.465 273.943 115.607 274.113 115.788C274.289 115.969 274.423 116.185 274.513 116.436C274.609 116.681 274.655 116.951 274.649 117.244L274.641 117.596H271.209L271.025 116.94H273.929L273.809 117.076V116.884C273.793 116.708 273.735 116.551 273.633 116.412C273.532 116.273 273.404 116.164 273.249 116.084C273.095 116.004 272.927 115.964 272.745 115.964C272.457 115.964 272.215 116.02 272.017 116.132C271.82 116.239 271.671 116.399 271.569 116.612C271.468 116.82 271.417 117.079 271.417 117.388C271.417 117.681 271.479 117.937 271.601 118.156C271.724 118.369 271.897 118.535 272.121 118.652C272.345 118.769 272.604 118.828 272.897 118.828C273.105 118.828 273.297 118.793 273.473 118.724C273.655 118.655 273.849 118.529 274.057 118.348L274.473 118.932C274.345 119.06 274.188 119.172 274.001 119.268C273.82 119.364 273.625 119.441 273.417 119.5C273.215 119.553 273.015 119.58 272.817 119.58ZM277.297 119.58C276.913 119.58 276.569 119.487 276.265 119.3C275.966 119.108 275.729 118.849 275.553 118.524C275.377 118.193 275.289 117.817 275.289 117.396C275.289 116.975 275.374 116.601 275.545 116.276C275.721 115.945 275.958 115.687 276.257 115.5C276.555 115.308 276.894 115.212 277.273 115.212C277.481 115.212 277.681 115.247 277.873 115.316C278.07 115.38 278.246 115.471 278.401 115.588C278.555 115.7 278.675 115.825 278.761 115.964C278.851 116.097 278.897 116.233 278.897 116.372L278.657 116.388V113.58H279.481V119.5H278.657V118.5H278.817C278.817 118.628 278.774 118.756 278.689 118.884C278.603 119.007 278.489 119.121 278.345 119.228C278.206 119.335 278.043 119.42 277.857 119.484C277.675 119.548 277.489 119.58 277.297 119.58ZM277.409 118.868C277.659 118.868 277.881 118.804 278.073 118.676C278.265 118.548 278.414 118.375 278.521 118.156C278.633 117.932 278.689 117.679 278.689 117.396C278.689 117.113 278.633 116.863 278.521 116.644C278.414 116.42 278.265 116.244 278.073 116.116C277.881 115.988 277.659 115.924 277.409 115.924C277.158 115.924 276.937 115.988 276.745 116.116C276.553 116.244 276.401 116.42 276.289 116.644C276.182 116.863 276.129 117.113 276.129 117.396C276.129 117.679 276.182 117.932 276.289 118.156C276.401 118.375 276.553 118.548 276.745 118.676C276.937 118.804 277.158 118.868 277.409 118.868ZM284.129 119.5V114.732H282.561V113.9H286.609V114.732H284.993V119.5H284.129ZM287.603 119.5V115.3H288.427V119.5H287.603ZM288.003 114.372C287.827 114.372 287.691 114.327 287.595 114.236C287.499 114.145 287.451 114.017 287.451 113.852C287.451 113.697 287.499 113.572 287.595 113.476C287.696 113.38 287.832 113.332 288.003 113.332C288.179 113.332 288.315 113.377 288.411 113.468C288.507 113.559 288.555 113.687 288.555 113.852C288.555 114.007 288.504 114.132 288.403 114.228C288.307 114.324 288.173 114.372 288.003 114.372ZM289.677 119.5V115.3H290.509V116.196L290.357 116.292C290.4 116.153 290.467 116.02 290.557 115.892C290.653 115.764 290.768 115.652 290.901 115.556C291.04 115.455 291.187 115.375 291.341 115.316C291.501 115.257 291.664 115.228 291.829 115.228C292.069 115.228 292.28 115.268 292.461 115.348C292.643 115.428 292.792 115.548 292.909 115.708C293.027 115.868 293.112 116.068 293.165 116.308L293.037 116.276L293.093 116.14C293.152 116.017 293.232 115.903 293.333 115.796C293.44 115.684 293.56 115.585 293.693 115.5C293.827 115.415 293.968 115.348 294.117 115.3C294.267 115.252 294.413 115.228 294.557 115.228C294.872 115.228 295.131 115.292 295.333 115.42C295.541 115.548 295.696 115.743 295.797 116.004C295.904 116.265 295.957 116.591 295.957 116.98V119.5H295.125V117.028C295.125 116.788 295.093 116.593 295.029 116.444C294.971 116.289 294.88 116.175 294.757 116.1C294.635 116.025 294.477 115.988 294.285 115.988C294.136 115.988 293.995 116.015 293.861 116.068C293.733 116.116 293.621 116.185 293.525 116.276C293.429 116.367 293.355 116.473 293.301 116.596C293.248 116.713 293.221 116.844 293.221 116.988V119.5H292.389V117.012C292.389 116.793 292.357 116.609 292.293 116.46C292.229 116.305 292.136 116.188 292.013 116.108C291.891 116.028 291.741 115.988 291.565 115.988C291.416 115.988 291.277 116.015 291.149 116.068C291.021 116.116 290.909 116.185 290.813 116.276C290.717 116.361 290.643 116.465 290.589 116.588C290.536 116.705 290.509 116.833 290.509 116.972V119.5H289.677ZM299.02 119.58C298.588 119.58 298.204 119.489 297.868 119.308C297.538 119.121 297.276 118.868 297.084 118.548C296.898 118.228 296.804 117.86 296.804 117.444C296.804 117.113 296.858 116.812 296.964 116.54C297.071 116.268 297.218 116.033 297.404 115.836C297.596 115.633 297.823 115.479 298.084 115.372C298.351 115.26 298.639 115.204 298.948 115.204C299.22 115.204 299.474 115.257 299.708 115.364C299.943 115.465 300.146 115.607 300.316 115.788C300.492 115.969 300.626 116.185 300.716 116.436C300.812 116.681 300.858 116.951 300.852 117.244L300.844 117.596H297.412L297.228 116.94H300.132L300.012 117.076V116.884C299.996 116.708 299.938 116.551 299.836 116.412C299.735 116.273 299.607 116.164 299.452 116.084C299.298 116.004 299.13 115.964 298.948 115.964C298.66 115.964 298.418 116.02 298.22 116.132C298.023 116.239 297.874 116.399 297.772 116.612C297.671 116.82 297.62 117.079 297.62 117.388C297.62 117.681 297.682 117.937 297.804 118.156C297.927 118.369 298.1 118.535 298.324 118.652C298.548 118.769 298.807 118.828 299.1 118.828C299.308 118.828 299.5 118.793 299.676 118.724C299.858 118.655 300.052 118.529 300.26 118.348L300.676 118.932C300.548 119.06 300.391 119.172 300.204 119.268C300.023 119.364 299.828 119.441 299.62 119.5C299.418 119.553 299.218 119.58 299.02 119.58Z" fill="#1F0D40"/>
<path d="M253.78 145.7C252.74 145.7 251.833 145.473 251.06 145.02C250.287 144.553 249.573 143.767 248.92 142.66L250.88 141.42C251.187 141.913 251.5 142.313 251.82 142.62C252.153 142.913 252.487 143.133 252.82 143.28C253.167 143.413 253.533 143.48 253.92 143.48C254.36 143.48 254.76 143.373 255.12 143.16C255.493 142.947 255.787 142.653 256 142.28C256.227 141.907 256.34 141.48 256.34 141C256.34 140.52 256.247 140.113 256.06 139.78C255.887 139.447 255.627 139.193 255.28 139.02C254.947 138.833 254.54 138.74 254.06 138.74C253.847 138.74 253.62 138.767 253.38 138.82C253.14 138.86 252.887 138.927 252.62 139.02C252.353 139.1 252.06 139.2 251.74 139.32L251.1 137.62L255.08 133.22L255.68 133.8L249.78 133.76V131.46H258L258.48 132.42L253.88 137.44L253.28 136.78C253.387 136.727 253.56 136.68 253.8 136.64C254.053 136.587 254.273 136.56 254.46 136.56C255.047 136.56 255.607 136.673 256.14 136.9C256.673 137.113 257.133 137.42 257.52 137.82C257.92 138.22 258.233 138.687 258.46 139.22C258.687 139.74 258.8 140.307 258.8 140.92C258.8 141.84 258.573 142.66 258.12 143.38C257.68 144.087 257.08 144.653 256.32 145.08C255.56 145.493 254.713 145.7 253.78 145.7ZM262.356 145.5L268.096 132.82L268.576 133.8H261.416V131.46H270.236L270.536 132.92L265.056 145.5H262.356ZM274.414 145.7C273.934 145.7 273.56 145.56 273.294 145.28C273.04 145 272.914 144.607 272.914 144.1C272.914 143.633 273.047 143.253 273.314 142.96C273.594 142.653 273.96 142.5 274.414 142.5C274.894 142.5 275.26 142.64 275.514 142.92C275.78 143.187 275.914 143.58 275.914 144.1C275.914 144.567 275.774 144.953 275.494 145.26C275.227 145.553 274.867 145.7 274.414 145.7ZM274.414 137.96C273.934 137.96 273.56 137.82 273.294 137.54C273.04 137.26 272.914 136.867 272.914 136.36C272.914 135.893 273.047 135.513 273.314 135.22C273.594 134.913 273.96 134.76 274.414 134.76C274.894 134.76 275.26 134.9 275.514 135.18C275.78 135.447 275.914 135.84 275.914 136.36C275.914 136.827 275.774 137.213 275.494 137.52C275.227 137.813 274.867 137.96 274.414 137.96ZM284.619 145.5V134.2L285.579 134.3L280.819 140.12L280.599 139.76H289.499V142.02H279.199L278.119 139.94L285.079 131.46H287.119V145.5H284.619ZM295.515 145.5L295.435 145.3L299.675 136.46L299.915 137.96C299.715 138.387 299.468 138.767 299.175 139.1C298.895 139.433 298.568 139.727 298.195 139.98C297.835 140.22 297.461 140.407 297.075 140.54C296.688 140.66 296.301 140.72 295.915 140.72C295.155 140.72 294.455 140.52 293.815 140.12C293.175 139.707 292.661 139.167 292.275 138.5C291.888 137.82 291.695 137.08 291.695 136.28C291.695 135.333 291.915 134.48 292.355 133.72C292.795 132.947 293.388 132.34 294.135 131.9C294.895 131.447 295.748 131.22 296.695 131.22C297.375 131.22 298.015 131.347 298.615 131.6C299.228 131.84 299.755 132.18 300.195 132.62C300.648 133.06 301.001 133.567 301.255 134.14C301.521 134.713 301.655 135.32 301.655 135.96C301.655 136.347 301.615 136.747 301.535 137.16C301.468 137.56 301.355 138 301.195 138.48C301.035 138.96 300.828 139.487 300.575 140.06C300.335 140.633 300.041 141.287 299.695 142.02L297.995 145.5H295.515ZM296.495 138.48C296.975 138.48 297.408 138.373 297.795 138.16C298.181 137.933 298.481 137.64 298.695 137.28C298.908 136.92 299.015 136.507 299.015 136.04C299.015 135.56 298.908 135.127 298.695 134.74C298.481 134.353 298.188 134.053 297.815 133.84C297.441 133.613 297.015 133.5 296.535 133.5C296.081 133.5 295.681 133.607 295.335 133.82C294.988 134.033 294.708 134.333 294.495 134.72C294.295 135.093 294.195 135.533 294.195 136.04C294.195 136.467 294.295 136.867 294.495 137.24C294.708 137.613 294.988 137.913 295.335 138.14C295.695 138.367 296.081 138.48 296.495 138.48Z" fill="#1F0D40"/>
<path opacity="0.4" d="M244.784 162.5V156.9H247.168C247.488 156.9 247.781 156.98 248.048 157.14C248.32 157.295 248.536 157.508 248.696 157.78C248.856 158.047 248.936 158.348 248.936 158.684C248.936 158.988 248.856 159.271 248.696 159.532C248.536 159.793 248.323 160.004 248.056 160.164C247.789 160.319 247.493 160.396 247.168 160.396H245.648V162.5H244.784ZM248.112 162.5L246.688 159.972L247.576 159.772L249.16 162.508L248.112 162.5ZM245.648 159.564H247.248C247.403 159.564 247.541 159.527 247.664 159.452C247.787 159.372 247.883 159.265 247.952 159.132C248.021 158.993 248.056 158.841 248.056 158.676C248.056 158.489 248.011 158.327 247.92 158.188C247.835 158.044 247.712 157.932 247.552 157.852C247.397 157.772 247.221 157.732 247.024 157.732H245.648V159.564ZM251.942 162.58C251.51 162.58 251.126 162.489 250.79 162.308C250.46 162.121 250.198 161.868 250.006 161.548C249.82 161.228 249.726 160.86 249.726 160.444C249.726 160.113 249.78 159.812 249.886 159.54C249.993 159.268 250.14 159.033 250.326 158.836C250.518 158.633 250.745 158.479 251.006 158.372C251.273 158.26 251.561 158.204 251.87 158.204C252.142 158.204 252.396 158.257 252.63 158.364C252.865 158.465 253.068 158.607 253.238 158.788C253.414 158.969 253.548 159.185 253.638 159.436C253.734 159.681 253.78 159.951 253.774 160.244L253.766 160.596H250.334L250.15 159.94H253.054L252.934 160.076V159.884C252.918 159.708 252.86 159.551 252.758 159.412C252.657 159.273 252.529 159.164 252.374 159.084C252.22 159.004 252.052 158.964 251.87 158.964C251.582 158.964 251.34 159.02 251.142 159.132C250.945 159.239 250.796 159.399 250.694 159.612C250.593 159.82 250.542 160.079 250.542 160.388C250.542 160.681 250.604 160.937 250.726 161.156C250.849 161.369 251.022 161.535 251.246 161.652C251.47 161.769 251.729 161.828 252.022 161.828C252.23 161.828 252.422 161.793 252.598 161.724C252.78 161.655 252.974 161.529 253.182 161.348L253.598 161.932C253.47 162.06 253.313 162.172 253.126 162.268C252.945 162.364 252.75 162.441 252.542 162.5C252.34 162.553 252.14 162.58 251.942 162.58ZM254.654 162.5V158.3H255.486V159.196L255.334 159.292C255.376 159.153 255.443 159.02 255.534 158.892C255.63 158.764 255.744 158.652 255.878 158.556C256.016 158.455 256.163 158.375 256.318 158.316C256.478 158.257 256.64 158.228 256.806 158.228C257.046 158.228 257.256 158.268 257.438 158.348C257.619 158.428 257.768 158.548 257.886 158.708C258.003 158.868 258.088 159.068 258.142 159.308L258.014 159.276L258.07 159.14C258.128 159.017 258.208 158.903 258.31 158.796C258.416 158.684 258.536 158.585 258.67 158.5C258.803 158.415 258.944 158.348 259.094 158.3C259.243 158.252 259.39 158.228 259.534 158.228C259.848 158.228 260.107 158.292 260.31 158.42C260.518 158.548 260.672 158.743 260.774 159.004C260.88 159.265 260.934 159.591 260.934 159.98V162.5H260.102V160.028C260.102 159.788 260.07 159.593 260.006 159.444C259.947 159.289 259.856 159.175 259.734 159.1C259.611 159.025 259.454 158.988 259.262 158.988C259.112 158.988 258.971 159.015 258.838 159.068C258.71 159.116 258.598 159.185 258.502 159.276C258.406 159.367 258.331 159.473 258.278 159.596C258.224 159.713 258.198 159.844 258.198 159.988V162.5H257.366V160.012C257.366 159.793 257.334 159.609 257.27 159.46C257.206 159.305 257.112 159.188 256.99 159.108C256.867 159.028 256.718 158.988 256.542 158.988C256.392 158.988 256.254 159.015 256.126 159.068C255.998 159.116 255.886 159.185 255.79 159.276C255.694 159.361 255.619 159.465 255.566 159.588C255.512 159.705 255.486 159.833 255.486 159.972V162.5H254.654ZM263.653 162.58C263.306 162.58 262.989 162.484 262.701 162.292C262.418 162.1 262.192 161.839 262.021 161.508C261.85 161.177 261.765 160.804 261.765 160.388C261.765 159.967 261.85 159.593 262.021 159.268C262.197 158.937 262.432 158.679 262.725 158.492C263.024 158.305 263.357 158.212 263.725 158.212C263.944 158.212 264.144 158.244 264.325 158.308C264.506 158.372 264.664 158.463 264.797 158.58C264.936 158.692 265.048 158.823 265.133 158.972C265.224 159.121 265.28 159.281 265.301 159.452L265.117 159.388V158.3H265.949V162.5H265.117V161.5L265.309 161.444C265.277 161.588 265.21 161.729 265.109 161.868C265.013 162.001 264.888 162.121 264.733 162.228C264.584 162.335 264.416 162.42 264.229 162.484C264.048 162.548 263.856 162.58 263.653 162.58ZM263.869 161.82C264.12 161.82 264.341 161.759 264.533 161.636C264.725 161.513 264.874 161.345 264.981 161.132C265.093 160.913 265.149 160.665 265.149 160.388C265.149 160.116 265.093 159.873 264.981 159.66C264.874 159.447 264.725 159.279 264.533 159.156C264.341 159.033 264.12 158.972 263.869 158.972C263.624 158.972 263.405 159.033 263.213 159.156C263.026 159.279 262.877 159.447 262.765 159.66C262.658 159.873 262.605 160.116 262.605 160.388C262.605 160.665 262.658 160.913 262.765 161.132C262.877 161.345 263.026 161.513 263.213 161.636C263.405 161.759 263.624 161.82 263.869 161.82ZM267.235 162.5V158.3H268.059V162.5H267.235ZM267.635 157.372C267.459 157.372 267.323 157.327 267.227 157.236C267.131 157.145 267.083 157.017 267.083 156.852C267.083 156.697 267.131 156.572 267.227 156.476C267.329 156.38 267.465 156.332 267.635 156.332C267.811 156.332 267.947 156.377 268.043 156.468C268.139 156.559 268.187 156.687 268.187 156.852C268.187 157.007 268.137 157.132 268.035 157.228C267.939 157.324 267.806 157.372 267.635 157.372ZM269.326 162.5V158.3H270.15V159.164L270.006 159.26C270.059 159.073 270.163 158.903 270.318 158.748C270.473 158.588 270.657 158.46 270.87 158.364C271.083 158.263 271.302 158.212 271.526 158.212C271.846 158.212 272.113 158.276 272.326 158.404C272.539 158.527 272.699 158.716 272.806 158.972C272.913 159.228 272.966 159.551 272.966 159.94V162.5H272.142V159.996C272.142 159.756 272.11 159.559 272.046 159.404C271.982 159.244 271.883 159.129 271.75 159.06C271.617 158.985 271.451 158.953 271.254 158.964C271.094 158.964 270.947 158.991 270.814 159.044C270.681 159.092 270.563 159.161 270.462 159.252C270.366 159.343 270.289 159.449 270.23 159.572C270.177 159.689 270.15 159.817 270.15 159.956V162.5H269.742C269.673 162.5 269.603 162.5 269.534 162.5C269.465 162.5 269.395 162.5 269.326 162.5ZM274.22 162.5V158.3H275.044V162.5H274.22ZM274.62 157.372C274.444 157.372 274.308 157.327 274.212 157.236C274.116 157.145 274.068 157.017 274.068 156.852C274.068 156.697 274.116 156.572 274.212 156.476C274.313 156.38 274.449 156.332 274.62 156.332C274.796 156.332 274.932 156.377 275.028 156.468C275.124 156.559 275.172 156.687 275.172 156.852C275.172 157.007 275.121 157.132 275.02 157.228C274.924 157.324 274.79 157.372 274.62 157.372ZM276.31 162.5V158.3H277.134V159.164L276.99 159.26C277.044 159.073 277.148 158.903 277.302 158.748C277.457 158.588 277.641 158.46 277.854 158.364C278.068 158.263 278.286 158.212 278.51 158.212C278.83 158.212 279.097 158.276 279.31 158.404C279.524 158.527 279.684 158.716 279.79 158.972C279.897 159.228 279.95 159.551 279.95 159.94V162.5H279.126V159.996C279.126 159.756 279.094 159.559 279.03 159.404C278.966 159.244 278.868 159.129 278.734 159.06C278.601 158.985 278.436 158.953 278.238 158.964C278.078 158.964 277.932 158.991 277.798 159.044C277.665 159.092 277.548 159.161 277.446 159.252C277.35 159.343 277.273 159.449 277.214 159.572C277.161 159.689 277.134 159.817 277.134 159.956V162.5H276.726C276.657 162.5 276.588 162.5 276.518 162.5C276.449 162.5 276.38 162.5 276.31 162.5ZM282.948 164.34C282.65 164.34 282.351 164.292 282.052 164.196C281.759 164.105 281.522 163.985 281.34 163.836L281.644 163.196C281.751 163.276 281.876 163.345 282.02 163.404C282.164 163.468 282.316 163.516 282.476 163.548C282.636 163.585 282.794 163.604 282.948 163.604C283.242 163.604 283.487 163.556 283.684 163.46C283.882 163.364 284.031 163.223 284.132 163.036C284.234 162.849 284.284 162.617 284.284 162.34V161.532L284.372 161.588C284.346 161.753 284.258 161.913 284.108 162.068C283.964 162.217 283.783 162.34 283.564 162.436C283.346 162.532 283.122 162.58 282.892 162.58C282.492 162.58 282.135 162.487 281.82 162.3C281.511 162.108 281.266 161.849 281.084 161.524C280.903 161.193 280.812 160.817 280.812 160.396C280.812 159.975 280.9 159.601 281.076 159.276C281.258 158.945 281.503 158.687 281.812 158.5C282.127 158.308 282.479 158.212 282.868 158.212C283.028 158.212 283.183 158.233 283.332 158.276C283.482 158.313 283.62 158.369 283.748 158.444C283.876 158.513 283.991 158.591 284.092 158.676C284.194 158.761 284.276 158.852 284.34 158.948C284.404 159.044 284.444 159.135 284.46 159.22L284.284 159.284V158.3H285.108V162.244C285.108 162.58 285.058 162.876 284.956 163.132C284.86 163.393 284.719 163.612 284.532 163.788C284.346 163.969 284.119 164.105 283.852 164.196C283.586 164.292 283.284 164.34 282.948 164.34ZM282.98 161.82C283.242 161.82 283.474 161.759 283.676 161.636C283.879 161.513 284.036 161.345 284.148 161.132C284.26 160.919 284.316 160.673 284.316 160.396C284.316 160.119 284.258 159.873 284.14 159.66C284.028 159.441 283.871 159.271 283.668 159.148C283.471 159.025 283.242 158.964 282.98 158.964C282.724 158.964 282.495 159.028 282.292 159.156C282.095 159.279 281.938 159.449 281.82 159.668C281.708 159.881 281.652 160.124 281.652 160.396C281.652 160.668 281.708 160.913 281.82 161.132C281.938 161.345 282.095 161.513 282.292 161.636C282.495 161.759 282.724 161.82 282.98 161.82ZM289.778 162.5V157.732H288.21V156.9H292.258V157.732H290.642V162.5H289.778ZM293.251 162.5V158.3H294.075V162.5H293.251ZM293.651 157.372C293.475 157.372 293.339 157.327 293.243 157.236C293.147 157.145 293.099 157.017 293.099 156.852C293.099 156.697 293.147 156.572 293.243 156.476C293.344 156.38 293.48 156.332 293.651 156.332C293.827 156.332 293.963 156.377 294.059 156.468C294.155 156.559 294.203 156.687 294.203 156.852C294.203 157.007 294.152 157.132 294.051 157.228C293.955 157.324 293.822 157.372 293.651 157.372ZM295.326 162.5V158.3H296.158V159.196L296.006 159.292C296.048 159.153 296.115 159.02 296.206 158.892C296.302 158.764 296.416 158.652 296.55 158.556C296.688 158.455 296.835 158.375 296.99 158.316C297.15 158.257 297.312 158.228 297.478 158.228C297.718 158.228 297.928 158.268 298.11 158.348C298.291 158.428 298.44 158.548 298.558 158.708C298.675 158.868 298.76 159.068 298.814 159.308L298.686 159.276L298.742 159.14C298.8 159.017 298.88 158.903 298.982 158.796C299.088 158.684 299.208 158.585 299.342 158.5C299.475 158.415 299.616 158.348 299.766 158.3C299.915 158.252 300.062 158.228 300.206 158.228C300.52 158.228 300.779 158.292 300.982 158.42C301.19 158.548 301.344 158.743 301.446 159.004C301.552 159.265 301.606 159.591 301.606 159.98V162.5H300.774V160.028C300.774 159.788 300.742 159.593 300.678 159.444C300.619 159.289 300.528 159.175 300.406 159.1C300.283 159.025 300.126 158.988 299.934 158.988C299.784 158.988 299.643 159.015 299.51 159.068C299.382 159.116 299.27 159.185 299.174 159.276C299.078 159.367 299.003 159.473 298.95 159.596C298.896 159.713 298.87 159.844 298.87 159.988V162.5H298.038V160.012C298.038 159.793 298.006 159.609 297.942 159.46C297.878 159.305 297.784 159.188 297.662 159.108C297.539 159.028 297.39 158.988 297.214 158.988C297.064 158.988 296.926 159.015 296.798 159.068C296.67 159.116 296.558 159.185 296.462 159.276C296.366 159.361 296.291 159.465 296.238 159.588C296.184 159.705 296.158 159.833 296.158 159.972V162.5H295.326ZM304.669 162.58C304.237 162.58 303.853 162.489 303.517 162.308C303.186 162.121 302.925 161.868 302.733 161.548C302.546 161.228 302.453 160.86 302.453 160.444C302.453 160.113 302.506 159.812 302.613 159.54C302.719 159.268 302.866 159.033 303.053 158.836C303.245 158.633 303.471 158.479 303.733 158.372C303.999 158.26 304.287 158.204 304.597 158.204C304.869 158.204 305.122 158.257 305.357 158.364C305.591 158.465 305.794 158.607 305.965 158.788C306.141 158.969 306.274 159.185 306.365 159.436C306.461 159.681 306.506 159.951 306.501 160.244L306.493 160.596H303.061L302.877 159.94H305.781L305.661 160.076V159.884C305.645 159.708 305.586 159.551 305.485 159.412C305.383 159.273 305.255 159.164 305.101 159.084C304.946 159.004 304.778 158.964 304.597 158.964C304.309 158.964 304.066 159.02 303.869 159.132C303.671 159.239 303.522 159.399 303.421 159.612C303.319 159.82 303.269 160.079 303.269 160.388C303.269 160.681 303.33 160.937 303.453 161.156C303.575 161.369 303.749 161.535 303.973 161.652C304.197 161.769 304.455 161.828 304.749 161.828C304.957 161.828 305.149 161.793 305.325 161.724C305.506 161.655 305.701 161.529 305.909 161.348L306.325 161.932C306.197 162.06 306.039 162.172 305.853 162.268C305.671 162.364 305.477 162.441 305.269 162.5C305.066 162.553 304.866 162.58 304.669 162.58Z" fill="#1F0D40"/>
<path d="M264.65 178.01V172.33L265.02 172.81L263.6 173.53L263.31 172.39L265.22 171.4H265.94V178.01H264.65ZM263.48 178.5V177.3H267.14V178.5H263.48ZM268.935 178.5L268.605 177.68L270.705 175.33C270.825 175.21 270.948 175.073 271.075 174.92C271.201 174.76 271.321 174.597 271.435 174.43C271.555 174.257 271.651 174.09 271.725 173.93C271.798 173.763 271.835 173.61 271.835 173.47C271.835 173.29 271.795 173.133 271.715 173C271.641 172.867 271.535 172.763 271.395 172.69C271.255 172.617 271.081 172.58 270.875 172.58C270.695 172.58 270.518 172.633 270.345 172.74C270.178 172.84 270.021 172.987 269.875 173.18C269.735 173.367 269.618 173.59 269.525 173.85L268.545 173.27C268.665 172.883 268.845 172.55 269.085 172.27C269.331 171.983 269.618 171.763 269.945 171.61C270.278 171.457 270.638 171.38 271.025 171.38C271.425 171.38 271.781 171.463 272.095 171.63C272.408 171.797 272.655 172.027 272.835 172.32C273.021 172.613 273.115 172.957 273.115 173.35C273.115 173.497 273.098 173.65 273.065 173.81C273.031 173.963 272.978 174.127 272.905 174.3C272.838 174.467 272.748 174.643 272.635 174.83C272.521 175.01 272.385 175.2 272.225 175.4C272.071 175.6 271.895 175.81 271.695 176.03L270.105 177.76L269.905 177.3H273.365V178.5H268.935ZM275.193 178.6C274.953 178.6 274.766 178.53 274.633 178.39C274.506 178.25 274.443 178.053 274.443 177.8C274.443 177.567 274.51 177.377 274.643 177.23C274.783 177.077 274.966 177 275.193 177C275.433 177 275.616 177.07 275.743 177.21C275.876 177.343 275.943 177.54 275.943 177.8C275.943 178.033 275.873 178.227 275.733 178.38C275.6 178.527 275.42 178.6 275.193 178.6ZM275.193 174.73C274.953 174.73 274.766 174.66 274.633 174.52C274.506 174.38 274.443 174.183 274.443 173.93C274.443 173.697 274.51 173.507 274.643 173.36C274.783 173.207 274.966 173.13 275.193 173.13C275.433 173.13 275.616 173.2 275.743 173.34C275.876 173.473 275.943 173.67 275.943 173.93C275.943 174.163 275.873 174.357 275.733 174.51C275.6 174.657 275.42 174.73 275.193 174.73ZM279.446 178.57C278.959 178.57 278.519 178.467 278.126 178.26C277.733 178.047 277.406 177.74 277.146 177.34L277.866 176.56C278.159 176.887 278.423 177.113 278.656 177.24C278.889 177.36 279.146 177.42 279.426 177.42C279.679 177.42 279.906 177.367 280.106 177.26C280.306 177.147 280.466 176.997 280.586 176.81C280.706 176.617 280.766 176.407 280.766 176.18C280.766 175.933 280.709 175.717 280.596 175.53C280.483 175.337 280.329 175.183 280.136 175.07C279.943 174.957 279.723 174.9 279.476 174.9C279.343 174.9 279.216 174.91 279.096 174.93C278.976 174.95 278.836 174.99 278.676 175.05C278.523 175.11 278.326 175.203 278.086 175.33L277.466 174.49L277.876 171.48H281.746V172.63H278.606L278.896 172.31L278.566 174.53L278.196 174.27C278.283 174.19 278.409 174.113 278.576 174.04C278.749 173.967 278.936 173.907 279.136 173.86C279.336 173.813 279.533 173.79 279.726 173.79C280.159 173.79 280.546 173.89 280.886 174.09C281.226 174.29 281.496 174.567 281.696 174.92C281.896 175.267 281.996 175.667 281.996 176.12C281.996 176.58 281.883 176.997 281.656 177.37C281.436 177.737 281.133 178.03 280.746 178.25C280.359 178.463 279.926 178.57 279.446 178.57ZM285.117 178.01V172.33L285.487 172.81L284.067 173.53L283.777 172.39L285.687 171.4H286.407V178.01H285.117ZM283.947 178.5V177.3H287.607V178.5H283.947Z" fill="#1F0D40"/>
</g>
<path d="M274.962 87C263.099 87.0075 251.503 90.5318 241.642 97.1275C231.781 103.723 224.097 113.094 219.56 124.056C215.023 135.018 213.838 147.079 216.155 158.715C218.471 170.35 224.185 181.038 232.574 189.426" stroke="url(#paint0_linear_2840_3331)" stroke-width="4" stroke-linecap="round"/>
<g filter="url(#filter2_d_2840_3331)">
<circle cx="275.098" cy="87.0981" r="3" transform="rotate(-150 275.098 87.0981)" fill="white"/>
<circle cx="275.098" cy="87.0981" r="5" transform="rotate(-150 275.098 87.0981)" stroke="#FF8B33" stroke-width="4"/>
</g>
<path d="M234.976 219L237.846 212.66L238.086 213.15H234.506V211.98H238.916L239.066 212.71L236.326 219H234.976ZM242.075 219.07C241.588 219.07 241.148 218.967 240.755 218.76C240.362 218.547 240.035 218.24 239.775 217.84L240.495 217.06C240.788 217.387 241.052 217.613 241.285 217.74C241.518 217.86 241.775 217.92 242.055 217.92C242.308 217.92 242.535 217.867 242.735 217.76C242.935 217.647 243.095 217.497 243.215 217.31C243.335 217.117 243.395 216.907 243.395 216.68C243.395 216.433 243.338 216.217 243.225 216.03C243.112 215.837 242.958 215.683 242.765 215.57C242.572 215.457 242.352 215.4 242.105 215.4C241.972 215.4 241.845 215.41 241.725 215.43C241.605 215.45 241.465 215.49 241.305 215.55C241.152 215.61 240.955 215.703 240.715 215.83L240.095 214.99L240.505 211.98H244.375V213.13H241.235L241.525 212.81L241.195 215.03L240.825 214.77C240.912 214.69 241.038 214.613 241.205 214.54C241.378 214.467 241.565 214.407 241.765 214.36C241.965 214.313 242.162 214.29 242.355 214.29C242.788 214.29 243.175 214.39 243.515 214.59C243.855 214.79 244.125 215.067 244.325 215.42C244.525 215.767 244.625 216.167 244.625 216.62C244.625 217.08 244.512 217.497 244.285 217.87C244.065 218.237 243.762 218.53 243.375 218.75C242.988 218.963 242.555 219.07 242.075 219.07ZM246.636 219L251.266 212H252.456L247.776 219H246.636ZM247.206 215.71C246.893 215.71 246.613 215.627 246.366 215.46C246.126 215.293 245.936 215.067 245.796 214.78C245.663 214.493 245.596 214.167 245.596 213.8C245.596 213.427 245.663 213.097 245.796 212.81C245.936 212.517 246.126 212.287 246.366 212.12C246.613 211.953 246.896 211.87 247.216 211.87C247.53 211.87 247.806 211.953 248.046 212.12C248.293 212.287 248.483 212.517 248.616 212.81C248.756 213.097 248.826 213.427 248.826 213.8C248.826 214.16 248.756 214.487 248.616 214.78C248.476 215.067 248.283 215.293 248.036 215.46C247.79 215.627 247.513 215.71 247.206 215.71ZM247.216 214.86C247.343 214.86 247.453 214.817 247.546 214.73C247.64 214.643 247.713 214.523 247.766 214.37C247.82 214.21 247.846 214.02 247.846 213.8C247.846 213.58 247.82 213.39 247.766 213.23C247.713 213.07 247.64 212.947 247.546 212.86C247.453 212.773 247.34 212.73 247.206 212.73C247.08 212.73 246.966 212.777 246.866 212.87C246.773 212.957 246.7 213.08 246.646 213.24C246.593 213.393 246.566 213.58 246.566 213.8C246.566 214.02 246.59 214.21 246.636 214.37C246.69 214.523 246.766 214.643 246.866 214.73C246.966 214.817 247.083 214.86 247.216 214.86ZM251.956 219.09C251.643 219.09 251.363 219.007 251.116 218.84C250.876 218.673 250.686 218.447 250.546 218.16C250.406 217.873 250.336 217.547 250.336 217.18C250.336 216.807 250.403 216.477 250.536 216.19C250.676 215.897 250.87 215.667 251.116 215.5C251.363 215.333 251.643 215.25 251.956 215.25C252.276 215.25 252.556 215.333 252.796 215.5C253.036 215.667 253.223 215.897 253.356 216.19C253.496 216.477 253.566 216.807 253.566 217.18C253.566 217.54 253.496 217.867 253.356 218.16C253.216 218.447 253.023 218.673 252.776 218.84C252.536 219.007 252.263 219.09 251.956 219.09ZM251.956 218.25C252.083 218.25 252.193 218.207 252.286 218.12C252.386 218.027 252.463 217.903 252.516 217.75C252.57 217.59 252.596 217.4 252.596 217.18C252.596 216.967 252.57 216.78 252.516 216.62C252.463 216.46 252.386 216.337 252.286 216.25C252.193 216.157 252.083 216.11 251.956 216.11C251.823 216.11 251.706 216.153 251.606 216.24C251.513 216.327 251.44 216.453 251.386 216.62C251.333 216.78 251.306 216.967 251.306 217.18C251.306 217.4 251.333 217.59 251.386 217.75C251.44 217.903 251.513 218.027 251.606 218.12C251.706 218.207 251.823 218.25 251.956 218.25Z" fill="#1F0D40"/>
<path opacity="0.4" d="M227.742 228.06C227.438 228.06 227.16 228.008 226.908 227.904C226.656 227.8 226.438 227.652 226.254 227.46C226.07 227.264 225.926 227.034 225.822 226.77C225.722 226.502 225.672 226.21 225.672 225.894C225.672 225.59 225.726 225.308 225.834 225.048C225.942 224.788 226.092 224.56 226.284 224.364C226.476 224.168 226.7 224.016 226.956 223.908C227.212 223.8 227.49 223.746 227.79 223.746C227.994 223.746 228.192 223.776 228.384 223.836C228.576 223.896 228.752 223.98 228.912 224.088C229.072 224.192 229.206 224.314 229.314 224.454L228.816 225C228.712 224.892 228.604 224.802 228.492 224.73C228.384 224.654 228.27 224.598 228.15 224.562C228.034 224.522 227.914 224.502 227.79 224.502C227.606 224.502 227.432 224.536 227.268 224.604C227.108 224.672 226.968 224.768 226.848 224.892C226.732 225.016 226.64 225.164 226.572 225.336C226.504 225.504 226.47 225.692 226.47 225.9C226.47 226.112 226.502 226.304 226.566 226.476C226.634 226.648 226.728 226.796 226.848 226.92C226.972 227.044 227.118 227.14 227.286 227.208C227.458 227.272 227.646 227.304 227.85 227.304C227.982 227.304 228.11 227.286 228.234 227.25C228.358 227.214 228.472 227.164 228.576 227.1C228.684 227.032 228.782 226.954 228.87 226.866L229.254 227.484C229.158 227.592 229.03 227.69 228.87 227.778C228.71 227.866 228.53 227.936 228.33 227.988C228.134 228.036 227.938 228.06 227.742 228.06ZM231.874 228.06C231.574 228.06 231.296 228.006 231.04 227.898C230.784 227.79 230.56 227.64 230.368 227.448C230.18 227.252 230.034 227.022 229.93 226.758C229.826 226.494 229.774 226.206 229.774 225.894C229.774 225.582 229.826 225.294 229.93 225.03C230.034 224.766 230.18 224.538 230.368 224.346C230.56 224.15 230.784 223.998 231.04 223.89C231.296 223.782 231.574 223.728 231.874 223.728C232.178 223.728 232.458 223.782 232.714 223.89C232.97 223.998 233.192 224.15 233.38 224.346C233.568 224.542 233.714 224.772 233.818 225.036C233.922 225.296 233.974 225.582 233.974 225.894C233.974 226.202 233.922 226.488 233.818 226.752C233.714 227.016 233.568 227.246 233.38 227.442C233.192 227.638 232.97 227.79 232.714 227.898C232.458 228.006 232.178 228.06 231.874 228.06ZM231.874 227.316C232.066 227.316 232.24 227.282 232.396 227.214C232.556 227.142 232.694 227.042 232.81 226.914C232.926 226.782 233.016 226.63 233.08 226.458C233.148 226.286 233.182 226.098 233.182 225.894C233.182 225.69 233.148 225.502 233.08 225.33C233.016 225.158 232.926 225.008 232.81 224.88C232.694 224.748 232.556 224.648 232.396 224.58C232.24 224.508 232.066 224.472 231.874 224.472C231.686 224.472 231.512 224.508 231.352 224.58C231.192 224.648 231.054 224.746 230.938 224.874C230.822 225.002 230.732 225.152 230.668 225.324C230.604 225.496 230.572 225.686 230.572 225.894C230.572 226.098 230.604 226.288 230.668 226.464C230.732 226.636 230.822 226.786 230.938 226.914C231.054 227.042 231.192 227.142 231.352 227.214C231.512 227.282 231.686 227.316 231.874 227.316ZM234.82 228V223.8H235.558L237.088 226.29L236.656 226.284L238.204 223.8H238.906V228H238.132V226.422C238.132 226.062 238.14 225.738 238.156 225.45C238.176 225.162 238.208 224.876 238.252 224.592L238.348 224.85L237.046 226.86H236.65L235.39 224.868L235.474 224.592C235.518 224.86 235.548 225.136 235.564 225.42C235.584 225.7 235.594 226.034 235.594 226.422V228H234.82ZM240.035 228V223.8H241.781C242.021 223.8 242.237 223.858 242.429 223.974C242.625 224.09 242.781 224.248 242.897 224.448C243.013 224.648 243.071 224.872 243.071 225.12C243.071 225.372 243.013 225.6 242.897 225.804C242.781 226.004 242.625 226.164 242.429 226.284C242.237 226.404 242.021 226.464 241.781 226.464H240.815V228H240.035ZM240.815 225.744H241.727C241.827 225.744 241.917 225.716 241.997 225.66C242.081 225.604 242.147 225.53 242.195 225.438C242.247 225.346 242.273 225.242 242.273 225.126C242.273 225.01 242.247 224.908 242.195 224.82C242.147 224.728 242.081 224.656 241.997 224.604C241.917 224.548 241.827 224.52 241.727 224.52H240.815V225.744ZM243.896 228V223.8H244.676V227.28H246.614V228H243.896ZM247.505 228V223.8H250.253V224.508H248.273V227.292H250.277V228H247.505ZM247.865 226.2V225.504H249.947V226.2H247.865ZM252.095 228V224.52H250.895V223.8H254.111V224.52H252.875V228H252.095ZM254.877 228V223.8H257.625V224.508H255.645V227.292H257.649V228H254.877ZM255.237 226.2V225.504H257.319V226.2H255.237ZM258.627 228V223.8H260.313C260.617 223.8 260.891 223.85 261.135 223.95C261.383 224.05 261.595 224.194 261.771 224.382C261.951 224.57 262.087 224.792 262.179 225.048C262.275 225.304 262.323 225.588 262.323 225.9C262.323 226.212 262.275 226.498 262.179 226.758C262.087 227.014 261.953 227.236 261.777 227.424C261.601 227.608 261.389 227.75 261.141 227.85C260.893 227.95 260.617 228 260.313 228H258.627ZM259.407 227.394L259.347 227.28H260.283C260.479 227.28 260.653 227.248 260.805 227.184C260.961 227.12 261.093 227.028 261.201 226.908C261.309 226.788 261.391 226.644 261.447 226.476C261.503 226.304 261.531 226.112 261.531 225.9C261.531 225.688 261.503 225.498 261.447 225.33C261.391 225.158 261.307 225.012 261.195 224.892C261.087 224.772 260.957 224.68 260.805 224.616C260.653 224.552 260.479 224.52 260.283 224.52H259.329L259.407 224.418V227.394Z" fill="#1F0D40"/>
<path opacity="0.08" d="M275 209L275 230" stroke="#1F0D40" stroke-linecap="round" stroke-linejoin="round"/>
<path d="M296.756 219L296.426 218.18L298.526 215.83C298.646 215.71 298.77 215.573 298.896 215.42C299.023 215.26 299.143 215.097 299.256 214.93C299.376 214.757 299.473 214.59 299.546 214.43C299.62 214.263 299.656 214.11 299.656 213.97C299.656 213.79 299.616 213.633 299.536 213.5C299.463 213.367 299.356 213.263 299.216 213.19C299.076 213.117 298.903 213.08 298.696 213.08C298.516 213.08 298.34 213.133 298.166 213.24C298 213.34 297.843 213.487 297.696 213.68C297.556 213.867 297.44 214.09 297.346 214.35L296.366 213.77C296.486 213.383 296.666 213.05 296.906 212.77C297.153 212.483 297.44 212.263 297.766 212.11C298.1 211.957 298.46 211.88 298.846 211.88C299.246 211.88 299.603 211.963 299.916 212.13C300.23 212.297 300.476 212.527 300.656 212.82C300.843 213.113 300.936 213.457 300.936 213.85C300.936 213.997 300.92 214.15 300.886 214.31C300.853 214.463 300.8 214.627 300.726 214.8C300.66 214.967 300.57 215.143 300.456 215.33C300.343 215.51 300.206 215.7 300.046 215.9C299.893 216.1 299.716 216.31 299.516 216.53L297.926 218.26L297.726 217.8H301.186V219H296.756ZM304.085 219.07C303.598 219.07 303.158 218.967 302.765 218.76C302.371 218.547 302.045 218.24 301.785 217.84L302.505 217.06C302.798 217.387 303.061 217.613 303.295 217.74C303.528 217.86 303.785 217.92 304.065 217.92C304.318 217.92 304.545 217.867 304.745 217.76C304.945 217.647 305.105 217.497 305.225 217.31C305.345 217.117 305.405 216.907 305.405 216.68C305.405 216.433 305.348 216.217 305.235 216.03C305.121 215.837 304.968 215.683 304.775 215.57C304.581 215.457 304.361 215.4 304.115 215.4C303.981 215.4 303.855 215.41 303.735 215.43C303.615 215.45 303.475 215.49 303.315 215.55C303.161 215.61 302.965 215.703 302.725 215.83L302.105 214.99L302.515 211.98H306.385V213.13H303.245L303.535 212.81L303.205 215.03L302.835 214.77C302.921 214.69 303.048 214.613 303.215 214.54C303.388 214.467 303.575 214.407 303.775 214.36C303.975 214.313 304.171 214.29 304.365 214.29C304.798 214.29 305.185 214.39 305.525 214.59C305.865 214.79 306.135 215.067 306.335 215.42C306.535 215.767 306.635 216.167 306.635 216.62C306.635 217.08 306.521 217.497 306.295 217.87C306.075 218.237 305.771 218.53 305.385 218.75C304.998 218.963 304.565 219.07 304.085 219.07ZM308.646 219L313.276 212H314.466L309.786 219H308.646ZM309.216 215.71C308.903 215.71 308.623 215.627 308.376 215.46C308.136 215.293 307.946 215.067 307.806 214.78C307.673 214.493 307.606 214.167 307.606 213.8C307.606 213.427 307.673 213.097 307.806 212.81C307.946 212.517 308.136 212.287 308.376 212.12C308.623 211.953 308.906 211.87 309.226 211.87C309.539 211.87 309.816 211.953 310.056 212.12C310.303 212.287 310.493 212.517 310.626 212.81C310.766 213.097 310.836 213.427 310.836 213.8C310.836 214.16 310.766 214.487 310.626 214.78C310.486 215.067 310.293 215.293 310.046 215.46C309.799 215.627 309.523 215.71 309.216 215.71ZM309.226 214.86C309.353 214.86 309.463 214.817 309.556 214.73C309.649 214.643 309.723 214.523 309.776 214.37C309.829 214.21 309.856 214.02 309.856 213.8C309.856 213.58 309.829 213.39 309.776 213.23C309.723 213.07 309.649 212.947 309.556 212.86C309.463 212.773 309.349 212.73 309.216 212.73C309.089 212.73 308.976 212.777 308.876 212.87C308.783 212.957 308.709 213.08 308.656 213.24C308.603 213.393 308.576 213.58 308.576 213.8C308.576 214.02 308.599 214.21 308.646 214.37C308.699 214.523 308.776 214.643 308.876 214.73C308.976 214.817 309.093 214.86 309.226 214.86ZM313.966 219.09C313.653 219.09 313.373 219.007 313.126 218.84C312.886 218.673 312.696 218.447 312.556 218.16C312.416 217.873 312.346 217.547 312.346 217.18C312.346 216.807 312.413 216.477 312.546 216.19C312.686 215.897 312.879 215.667 313.126 215.5C313.373 215.333 313.653 215.25 313.966 215.25C314.286 215.25 314.566 215.333 314.806 215.5C315.046 215.667 315.233 215.897 315.366 216.19C315.506 216.477 315.576 216.807 315.576 217.18C315.576 217.54 315.506 217.867 315.366 218.16C315.226 218.447 315.033 218.673 314.786 218.84C314.546 219.007 314.273 219.09 313.966 219.09ZM313.966 218.25C314.093 218.25 314.203 218.207 314.296 218.12C314.396 218.027 314.473 217.903 314.526 217.75C314.579 217.59 314.606 217.4 314.606 217.18C314.606 216.967 314.579 216.78 314.526 216.62C314.473 216.46 314.396 216.337 314.296 216.25C314.203 216.157 314.093 216.11 313.966 216.11C313.833 216.11 313.716 216.153 313.616 216.24C313.523 216.327 313.449 216.453 313.396 216.62C313.343 216.78 313.316 216.967 313.316 217.18C313.316 217.4 313.343 217.59 313.396 217.75C313.449 217.903 313.523 218.027 313.616 218.12C313.716 218.207 313.833 218.25 313.966 218.25Z" fill="#1F0D40"/>
<path opacity="0.4" d="M287.764 228V223.8H289.588C289.84 223.8 290.07 223.86 290.278 223.98C290.486 224.096 290.65 224.256 290.77 224.46C290.894 224.66 290.956 224.886 290.956 225.138C290.956 225.378 290.894 225.6 290.77 225.804C290.65 226.004 290.486 226.164 290.278 226.284C290.074 226.4 289.844 226.458 289.588 226.458H288.526V228H287.764ZM290.2 228L289.132 226.104L289.936 225.954L291.124 228.006L290.2 228ZM288.526 225.78H289.594C289.71 225.78 289.81 225.754 289.894 225.702C289.982 225.646 290.05 225.57 290.098 225.474C290.146 225.378 290.17 225.272 290.17 225.156C290.17 225.024 290.14 224.91 290.08 224.814C290.02 224.718 289.936 224.642 289.828 224.586C289.72 224.53 289.596 224.502 289.456 224.502H288.526V225.78ZM291.948 228V223.8H294.696V224.508H292.716V227.292H294.72V228H291.948ZM292.308 226.2V225.504H294.39V226.2H292.308ZM295.698 228V223.8H296.436L297.966 226.29L297.534 226.284L299.082 223.8H299.784V228H299.01V226.422C299.01 226.062 299.018 225.738 299.034 225.45C299.054 225.162 299.086 224.876 299.13 224.592L299.226 224.85L297.924 226.86H297.528L296.268 224.868L296.352 224.592C296.396 224.86 296.426 225.136 296.442 225.42C296.462 225.7 296.472 226.034 296.472 226.422V228H295.698ZM300.445 228L302.083 223.8H302.815L304.441 228H303.631L302.731 225.612C302.711 225.564 302.683 225.488 302.647 225.384C302.615 225.28 302.579 225.168 302.539 225.048C302.499 224.924 302.463 224.81 302.431 224.706C302.399 224.598 302.375 224.52 302.359 224.472L302.509 224.466C302.485 224.546 302.457 224.636 302.425 224.736C302.393 224.836 302.359 224.94 302.323 225.048C302.287 225.156 302.251 225.26 302.215 225.36C302.183 225.46 302.153 225.55 302.125 225.63L301.225 228H300.445ZM301.189 227.04L301.459 226.362H303.373L303.661 227.04H301.189ZM304.976 228V227.31H305.666V224.49H304.976V223.8H307.136V224.49H306.446V227.31H307.136V228H304.976ZM308.131 228V223.8H308.833L311.269 227.082L311.137 227.106C311.121 226.994 311.107 226.88 311.095 226.764C311.083 226.644 311.071 226.52 311.059 226.392C311.051 226.264 311.043 226.13 311.035 225.99C311.031 225.85 311.027 225.704 311.023 225.552C311.019 225.396 311.017 225.232 311.017 225.06V223.8H311.791V228H311.077L308.629 224.766L308.785 224.724C308.805 224.948 308.821 225.14 308.833 225.3C308.849 225.456 308.861 225.592 308.869 225.708C308.877 225.82 308.883 225.914 308.887 225.99C308.895 226.066 308.899 226.136 308.899 226.2C308.903 226.26 308.905 226.318 308.905 226.374V228H308.131ZM312.792 228V227.31H313.482V224.49H312.792V223.8H314.952V224.49H314.262V227.31H314.952V228H312.792ZM315.948 228V223.8H316.65L319.086 227.082L318.954 227.106C318.938 226.994 318.924 226.88 318.912 226.764C318.9 226.644 318.888 226.52 318.876 226.392C318.868 226.264 318.86 226.13 318.852 225.99C318.848 225.85 318.844 225.704 318.84 225.552C318.836 225.396 318.834 225.232 318.834 225.06V223.8H319.608V228H318.894L316.446 224.766L316.602 224.724C316.622 224.948 316.638 225.14 316.65 225.3C316.666 225.456 316.678 225.592 316.686 225.708C316.694 225.82 316.7 225.914 316.704 225.99C316.712 226.066 316.716 226.136 316.716 226.2C316.72 226.26 316.722 226.318 316.722 226.374V228H315.948ZM322.643 228.06C322.327 228.06 322.035 228.006 321.767 227.898C321.499 227.786 321.265 227.632 321.065 227.436C320.869 227.24 320.717 227.012 320.609 226.752C320.501 226.488 320.447 226.202 320.447 225.894C320.447 225.59 320.501 225.308 320.609 225.048C320.721 224.784 320.877 224.556 321.077 224.364C321.277 224.168 321.511 224.016 321.779 223.908C322.051 223.8 322.343 223.746 322.655 223.746C322.875 223.746 323.087 223.776 323.291 223.836C323.495 223.896 323.679 223.98 323.843 224.088C324.007 224.196 324.143 224.318 324.251 224.454L323.759 224.97C323.647 224.862 323.531 224.772 323.411 224.7C323.295 224.628 323.173 224.572 323.045 224.532C322.917 224.492 322.785 224.472 322.649 224.472C322.449 224.472 322.263 224.508 322.091 224.58C321.923 224.652 321.775 224.752 321.647 224.88C321.523 225.008 321.425 225.158 321.353 225.33C321.281 225.502 321.245 225.69 321.245 225.894C321.245 226.09 321.281 226.276 321.353 226.452C321.429 226.628 321.533 226.782 321.665 226.914C321.797 227.046 321.949 227.15 322.121 227.226C322.297 227.298 322.483 227.334 322.679 227.334C322.827 227.334 322.965 227.312 323.093 227.268C323.221 227.224 323.335 227.164 323.435 227.088C323.535 227.008 323.611 226.916 323.663 226.812C323.719 226.708 323.747 226.596 323.747 226.476V226.344L323.855 226.47H322.613V225.774H324.515C324.523 225.818 324.529 225.868 324.533 225.924C324.537 225.976 324.539 226.028 324.539 226.08C324.543 226.128 324.545 226.17 324.545 226.206C324.545 226.482 324.497 226.734 324.401 226.962C324.305 227.186 324.169 227.38 323.993 227.544C323.821 227.708 323.619 227.836 323.387 227.928C323.159 228.016 322.911 228.06 322.643 228.06Z" fill="#1F0D40"/>
<path d="M228 259.5H230V252.5H228M224 259.5H226V252.5H224V259.5Z" fill="#1F0D40"/>
<rect x="217.25" y="246.25" width="19.5" height="19.5" rx="9.75" stroke="#1F0D40" stroke-width="0.5"/>
<path opacity="0.4" d="M218.699 274V269.8H220.445C220.685 269.8 220.901 269.858 221.093 269.974C221.289 270.09 221.445 270.248 221.561 270.448C221.677 270.648 221.735 270.872 221.735 271.12C221.735 271.372 221.677 271.6 221.561 271.804C221.445 272.004 221.289 272.164 221.093 272.284C220.901 272.404 220.685 272.464 220.445 272.464H219.479V274H218.699ZM219.479 271.744H220.391C220.491 271.744 220.581 271.716 220.661 271.66C220.745 271.604 220.811 271.53 220.859 271.438C220.911 271.346 220.937 271.242 220.937 271.126C220.937 271.01 220.911 270.908 220.859 270.82C220.811 270.728 220.745 270.656 220.661 270.604C220.581 270.548 220.491 270.52 220.391 270.52H219.479V271.744ZM223.564 274.06C223.304 274.06 223.068 273.988 222.856 273.844C222.644 273.7 222.474 273.504 222.346 273.256C222.218 273.008 222.154 272.726 222.154 272.41C222.154 272.094 222.218 271.812 222.346 271.564C222.474 271.316 222.648 271.122 222.868 270.982C223.088 270.842 223.336 270.772 223.612 270.772C223.772 270.772 223.918 270.796 224.05 270.844C224.182 270.888 224.298 270.952 224.398 271.036C224.498 271.12 224.58 271.216 224.644 271.324C224.712 271.432 224.758 271.548 224.782 271.672L224.62 271.63V270.838H225.364V274H224.614V273.244L224.788 273.214C224.76 273.322 224.708 273.428 224.632 273.532C224.56 273.632 224.468 273.722 224.356 273.802C224.248 273.878 224.126 273.94 223.99 273.988C223.858 274.036 223.716 274.06 223.564 274.06ZM223.768 273.406C223.94 273.406 224.092 273.364 224.224 273.28C224.356 273.196 224.458 273.08 224.53 272.932C224.606 272.78 224.644 272.606 224.644 272.41C224.644 272.218 224.606 272.048 224.53 271.9C224.458 271.752 224.356 271.636 224.224 271.552C224.092 271.468 223.94 271.426 223.768 271.426C223.596 271.426 223.444 271.468 223.312 271.552C223.184 271.636 223.084 271.752 223.012 271.9C222.94 272.048 222.904 272.218 222.904 272.41C222.904 272.606 222.94 272.78 223.012 272.932C223.084 273.08 223.184 273.196 223.312 273.28C223.444 273.364 223.596 273.406 223.768 273.406ZM227.259 274.06C227.031 274.06 226.833 274.01 226.665 273.91C226.497 273.806 226.369 273.66 226.281 273.472C226.193 273.28 226.149 273.052 226.149 272.788V270.838H226.887V272.632C226.887 272.8 226.913 272.944 226.965 273.064C227.017 273.18 227.093 273.27 227.193 273.334C227.293 273.398 227.413 273.43 227.553 273.43C227.657 273.43 227.751 273.414 227.835 273.382C227.923 273.346 227.999 273.298 228.063 273.238C228.127 273.174 228.177 273.1 228.213 273.016C228.249 272.928 228.267 272.834 228.267 272.734V270.838H229.005V274H228.285L228.273 273.34L228.405 273.268C228.357 273.42 228.275 273.556 228.159 273.676C228.047 273.792 227.913 273.886 227.757 273.958C227.601 274.026 227.435 274.06 227.259 274.06ZM230.926 274.06C230.646 274.06 230.394 274.014 230.17 273.922C229.95 273.826 229.77 273.69 229.63 273.514L230.11 273.1C230.23 273.236 230.364 273.334 230.512 273.394C230.66 273.454 230.816 273.484 230.979 273.484C231.048 273.484 231.108 273.476 231.16 273.46C231.216 273.444 231.264 273.42 231.304 273.388C231.344 273.356 231.374 273.32 231.394 273.28C231.418 273.236 231.43 273.188 231.43 273.136C231.43 273.04 231.394 272.964 231.322 272.908C231.282 272.88 231.218 272.85 231.13 272.818C231.046 272.786 230.936 272.754 230.8 272.722C230.584 272.666 230.404 272.602 230.26 272.53C230.116 272.454 230.004 272.37 229.924 272.278C229.856 272.202 229.804 272.116 229.768 272.02C229.736 271.924 229.72 271.82 229.72 271.708C229.72 271.568 229.75 271.442 229.81 271.33C229.874 271.214 229.96 271.114 230.068 271.03C230.176 270.946 230.302 270.882 230.446 270.838C230.59 270.794 230.74 270.772 230.896 270.772C231.056 270.772 231.21 270.792 231.358 270.832C231.51 270.872 231.65 270.93 231.778 271.006C231.91 271.078 232.022 271.166 232.114 271.27L231.706 271.72C231.63 271.648 231.546 271.584 231.454 271.528C231.366 271.472 231.276 271.428 231.184 271.396C231.092 271.36 231.006 271.342 230.926 271.342C230.85 271.342 230.782 271.35 230.722 271.366C230.662 271.378 230.612 271.398 230.572 271.426C230.532 271.454 230.5 271.49 230.476 271.534C230.456 271.574 230.446 271.622 230.446 271.678C230.45 271.726 230.462 271.772 230.482 271.816C230.506 271.856 230.538 271.89 230.578 271.918C230.622 271.946 230.688 271.978 230.776 272.014C230.864 272.05 230.978 272.084 231.118 272.116C231.314 272.168 231.478 272.226 231.61 272.29C231.742 272.354 231.846 272.428 231.922 272.512C231.998 272.584 232.052 272.668 232.084 272.764C232.116 272.86 232.132 272.966 232.132 273.082C232.132 273.27 232.078 273.438 231.97 273.586C231.866 273.734 231.722 273.85 231.538 273.934C231.358 274.018 231.154 274.06 230.926 274.06ZM234.264 274.06C233.932 274.06 233.638 273.99 233.382 273.85C233.13 273.71 232.932 273.52 232.788 273.28C232.648 273.036 232.578 272.758 232.578 272.446C232.578 272.198 232.618 271.972 232.698 271.768C232.778 271.564 232.888 271.388 233.028 271.24C233.172 271.088 233.342 270.972 233.538 270.892C233.738 270.808 233.956 270.766 234.192 270.766C234.4 270.766 234.594 270.806 234.774 270.886C234.954 270.966 235.11 271.076 235.242 271.216C235.374 271.352 235.474 271.516 235.542 271.708C235.614 271.896 235.648 272.102 235.644 272.326L235.638 272.584H233.076L232.938 272.08H235.02L234.924 272.182V272.05C234.912 271.926 234.872 271.818 234.804 271.726C234.736 271.63 234.648 271.556 234.54 271.504C234.436 271.448 234.32 271.42 234.192 271.42C233.996 271.42 233.83 271.458 233.694 271.534C233.562 271.61 233.462 271.72 233.394 271.864C233.326 272.004 233.292 272.18 233.292 272.392C233.292 272.596 233.334 272.774 233.418 272.926C233.506 273.078 233.628 273.196 233.784 273.28C233.944 273.36 234.13 273.4 234.342 273.4C234.49 273.4 234.626 273.376 234.75 273.328C234.874 273.28 235.008 273.194 235.152 273.07L235.518 273.58C235.41 273.68 235.286 273.766 235.146 273.838C235.01 273.906 234.866 273.96 234.714 274C234.562 274.04 234.412 274.06 234.264 274.06Z" fill="#1F0D40"/>
<rect x="248.5" y="246" width="53" height="20" rx="10" fill="#1F0D40"/>
<path d="M266.5 259C266.5 259.552 266.052 260 265.5 260H259.5C258.948 260 258.5 259.552 258.5 259V253C258.5 252.448 258.948 252 259.5 252H265.5C266.052 252 266.5 252.448 266.5 253V259Z" fill="white"/>
<path d="M273.337 259.08C272.99 259.08 272.673 259.037 272.385 258.952C272.102 258.867 271.849 258.741 271.625 258.576C271.406 258.411 271.209 258.211 271.033 257.976L271.785 257.12C272.046 257.483 272.305 257.731 272.561 257.864C272.822 257.992 273.105 258.056 273.409 258.056C273.574 258.056 273.721 258.035 273.849 257.992C273.982 257.944 274.086 257.877 274.161 257.792C274.236 257.707 274.273 257.605 274.273 257.488C274.273 257.403 274.254 257.325 274.217 257.256C274.18 257.181 274.126 257.117 274.057 257.064C273.988 257.005 273.905 256.955 273.809 256.912C273.713 256.864 273.606 256.824 273.489 256.792C273.372 256.755 273.244 256.725 273.105 256.704C272.806 256.635 272.545 256.552 272.321 256.456C272.097 256.355 271.91 256.232 271.761 256.088C271.612 255.939 271.5 255.771 271.425 255.584C271.356 255.397 271.321 255.187 271.321 254.952C271.321 254.712 271.374 254.491 271.481 254.288C271.588 254.08 271.734 253.901 271.921 253.752C272.113 253.603 272.332 253.488 272.577 253.408C272.828 253.328 273.092 253.288 273.369 253.288C273.71 253.288 274.009 253.328 274.265 253.408C274.521 253.483 274.742 253.592 274.929 253.736C275.121 253.88 275.281 254.056 275.409 254.264L274.649 255C274.537 254.851 274.414 254.725 274.281 254.624C274.153 254.523 274.012 254.448 273.857 254.4C273.708 254.347 273.553 254.32 273.393 254.32C273.217 254.32 273.065 254.344 272.937 254.392C272.809 254.435 272.708 254.499 272.633 254.584C272.564 254.669 272.529 254.773 272.529 254.896C272.529 254.992 272.553 255.077 272.601 255.152C272.649 255.227 272.718 255.293 272.809 255.352C272.9 255.405 273.009 255.453 273.137 255.496C273.265 255.539 273.406 255.576 273.561 255.608C273.854 255.667 274.118 255.744 274.353 255.84C274.588 255.936 274.788 256.053 274.953 256.192C275.124 256.325 275.254 256.485 275.345 256.672C275.436 256.853 275.481 257.059 275.481 257.288C275.481 257.667 275.39 257.989 275.209 258.256C275.028 258.523 274.777 258.728 274.457 258.872C274.137 259.011 273.764 259.08 273.337 259.08ZM276.816 259V253.696H277.952V259H276.816ZM276.024 255.784V254.768H278.816V255.784H276.024ZM281.485 259.08C281.053 259.08 280.667 258.987 280.325 258.8C279.989 258.608 279.723 258.347 279.525 258.016C279.333 257.685 279.237 257.307 279.237 256.88C279.237 256.453 279.333 256.077 279.525 255.752C279.723 255.421 279.989 255.16 280.325 254.968C280.667 254.776 281.053 254.68 281.485 254.68C281.912 254.68 282.293 254.776 282.629 254.968C282.971 255.16 283.237 255.421 283.429 255.752C283.621 256.077 283.717 256.453 283.717 256.88C283.717 257.307 283.621 257.685 283.429 258.016C283.237 258.347 282.971 258.608 282.629 258.8C282.293 258.987 281.912 259.08 281.485 259.08ZM281.485 258.088C281.693 258.088 281.88 258.037 282.045 257.936C282.211 257.829 282.339 257.685 282.429 257.504C282.525 257.317 282.573 257.109 282.573 256.88C282.573 256.645 282.525 256.437 282.429 256.256C282.339 256.069 282.211 255.925 282.045 255.824C281.88 255.717 281.693 255.664 281.485 255.664C281.272 255.664 281.083 255.717 280.917 255.824C280.752 255.931 280.621 256.075 280.525 256.256C280.429 256.437 280.384 256.645 280.389 256.88C280.384 257.109 280.429 257.317 280.525 257.504C280.621 257.685 280.752 257.829 280.917 257.936C281.083 258.037 281.272 258.088 281.485 258.088ZM284.572 260.76V254.768H285.668L285.7 255.72L285.492 255.648C285.529 255.477 285.62 255.32 285.764 255.176C285.913 255.032 286.097 254.915 286.316 254.824C286.535 254.733 286.764 254.688 287.004 254.688C287.372 254.688 287.697 254.784 287.98 254.976C288.268 255.163 288.495 255.421 288.66 255.752C288.831 256.077 288.916 256.453 288.916 256.88C288.916 257.301 288.833 257.677 288.668 258.008C288.503 258.339 288.276 258.6 287.988 258.792C287.7 258.979 287.372 259.072 287.004 259.072C286.759 259.072 286.524 259.027 286.3 258.936C286.081 258.84 285.895 258.715 285.74 258.56C285.585 258.405 285.489 258.24 285.452 258.064L285.716 257.952V260.76H284.572ZM286.748 258.096C286.956 258.096 287.14 258.045 287.3 257.944C287.46 257.843 287.585 257.701 287.676 257.52C287.767 257.333 287.812 257.12 287.812 256.88C287.812 256.64 287.767 256.429 287.676 256.248C287.585 256.067 287.46 255.925 287.3 255.824C287.145 255.723 286.961 255.672 286.748 255.672C286.535 255.672 286.348 255.723 286.188 255.824C286.028 255.92 285.903 256.061 285.812 256.248C285.721 256.429 285.676 256.64 285.676 256.88C285.676 257.12 285.721 257.333 285.812 257.52C285.903 257.701 286.028 257.843 286.188 257.944C286.348 258.045 286.535 258.096 286.748 258.096Z" fill="white"/>
<path d="M325.825 253.175C325.1 252.45 324.105 252 323 252C321.939 252 320.922 252.421 320.172 253.172C319.421 253.922 319 254.939 319 256C319 257.061 319.421 258.078 320.172 258.828C320.922 259.579 321.939 260 323 260C324.865 260 326.42 258.725 326.865 257H325.825C325.415 258.165 324.305 259 323 259C322.204 259 321.441 258.684 320.879 258.121C320.316 257.559 320 256.796 320 256C320 255.204 320.316 254.441 320.879 253.879C321.441 253.316 322.204 253 323 253C323.83 253 324.57 253.345 325.11 253.89L323.5 255.5H327V252L325.825 253.175Z" fill="#1F0D40"/>
<rect x="313.25" y="246.25" width="19.5" height="19.5" rx="9.75" stroke="#1F0D40" stroke-width="0.5"/>
<path opacity="0.4" d="M312.753 274V269.8H314.577C314.829 269.8 315.059 269.86 315.267 269.98C315.475 270.096 315.639 270.256 315.759 270.46C315.883 270.66 315.945 270.886 315.945 271.138C315.945 271.378 315.883 271.6 315.759 271.804C315.639 272.004 315.475 272.164 315.267 272.284C315.063 272.4 314.833 272.458 314.577 272.458H313.515V274H312.753ZM315.189 274L314.121 272.104L314.925 271.954L316.113 274.006L315.189 274ZM313.515 271.78H314.583C314.699 271.78 314.799 271.754 314.883 271.702C314.971 271.646 315.039 271.57 315.087 271.474C315.135 271.378 315.159 271.272 315.159 271.156C315.159 271.024 315.129 270.91 315.069 270.814C315.009 270.718 314.925 270.642 314.817 270.586C314.709 270.53 314.585 270.502 314.445 270.502H313.515V271.78ZM318.17 274.06C317.838 274.06 317.544 273.99 317.288 273.85C317.036 273.71 316.838 273.52 316.694 273.28C316.554 273.036 316.484 272.758 316.484 272.446C316.484 272.198 316.524 271.972 316.604 271.768C316.684 271.564 316.794 271.388 316.934 271.24C317.078 271.088 317.248 270.972 317.444 270.892C317.644 270.808 317.862 270.766 318.098 270.766C318.306 270.766 318.5 270.806 318.68 270.886C318.86 270.966 319.016 271.076 319.148 271.216C319.28 271.352 319.38 271.516 319.448 271.708C319.52 271.896 319.554 272.102 319.55 272.326L319.544 272.584H316.982L316.844 272.08H318.926L318.83 272.182V272.05C318.818 271.926 318.778 271.818 318.71 271.726C318.642 271.63 318.554 271.556 318.446 271.504C318.342 271.448 318.226 271.42 318.098 271.42C317.902 271.42 317.736 271.458 317.6 271.534C317.468 271.61 317.368 271.72 317.3 271.864C317.232 272.004 317.198 272.18 317.198 272.392C317.198 272.596 317.24 272.774 317.324 272.926C317.412 273.078 317.534 273.196 317.69 273.28C317.85 273.36 318.036 273.4 318.248 273.4C318.396 273.4 318.532 273.376 318.656 273.328C318.78 273.28 318.914 273.194 319.058 273.07L319.424 273.58C319.316 273.68 319.192 273.766 319.052 273.838C318.916 273.906 318.772 273.96 318.62 274C318.468 274.04 318.318 274.06 318.17 274.06ZM321.259 274.06C320.979 274.06 320.727 274.014 320.503 273.922C320.283 273.826 320.103 273.69 319.963 273.514L320.443 273.1C320.563 273.236 320.697 273.334 320.845 273.394C320.993 273.454 321.149 273.484 321.313 273.484C321.381 273.484 321.441 273.476 321.493 273.46C321.549 273.444 321.597 273.42 321.637 273.388C321.677 273.356 321.707 273.32 321.727 273.28C321.751 273.236 321.763 273.188 321.763 273.136C321.763 273.04 321.727 272.964 321.655 272.908C321.615 272.88 321.551 272.85 321.463 272.818C321.379 272.786 321.269 272.754 321.133 272.722C320.917 272.666 320.737 272.602 320.593 272.53C320.449 272.454 320.337 272.37 320.257 272.278C320.189 272.202 320.137 272.116 320.101 272.02C320.069 271.924 320.053 271.82 320.053 271.708C320.053 271.568 320.083 271.442 320.143 271.33C320.207 271.214 320.293 271.114 320.401 271.03C320.509 270.946 320.635 270.882 320.779 270.838C320.923 270.794 321.073 270.772 321.229 270.772C321.389 270.772 321.543 270.792 321.691 270.832C321.843 270.872 321.983 270.93 322.111 271.006C322.243 271.078 322.355 271.166 322.447 271.27L322.039 271.72C321.963 271.648 321.879 271.584 321.787 271.528C321.699 271.472 321.609 271.428 321.517 271.396C321.425 271.36 321.339 271.342 321.259 271.342C321.183 271.342 321.115 271.35 321.055 271.366C320.995 271.378 320.945 271.398 320.905 271.426C320.865 271.454 320.833 271.49 320.809 271.534C320.789 271.574 320.779 271.622 320.779 271.678C320.783 271.726 320.795 271.772 320.815 271.816C320.839 271.856 320.871 271.89 320.911 271.918C320.955 271.946 321.021 271.978 321.109 272.014C321.197 272.05 321.311 272.084 321.451 272.116C321.647 272.168 321.811 272.226 321.943 272.29C322.075 272.354 322.179 272.428 322.255 272.512C322.331 272.584 322.385 272.668 322.417 272.764C322.449 272.86 322.465 272.966 322.465 273.082C322.465 273.27 322.411 273.438 322.303 273.586C322.199 273.734 322.055 273.85 321.871 273.934C321.691 274.018 321.487 274.06 321.259 274.06ZM323.458 274V270.034H324.196V274H323.458ZM322.834 271.522V270.838H324.886V271.522H322.834ZM326.612 274.06C326.352 274.06 326.116 273.988 325.904 273.844C325.692 273.7 325.522 273.504 325.394 273.256C325.266 273.008 325.202 272.726 325.202 272.41C325.202 272.094 325.266 271.812 325.394 271.564C325.522 271.316 325.696 271.122 325.916 270.982C326.136 270.842 326.384 270.772 326.66 270.772C326.82 270.772 326.966 270.796 327.098 270.844C327.23 270.888 327.346 270.952 327.446 271.036C327.546 271.12 327.628 271.216 327.692 271.324C327.76 271.432 327.806 271.548 327.83 271.672L327.668 271.63V270.838H328.412V274H327.662V273.244L327.836 273.214C327.808 273.322 327.756 273.428 327.68 273.532C327.608 273.632 327.516 273.722 327.404 273.802C327.296 273.878 327.174 273.94 327.038 273.988C326.906 274.036 326.764 274.06 326.612 274.06ZM326.816 273.406C326.988 273.406 327.14 273.364 327.272 273.28C327.404 273.196 327.506 273.08 327.578 272.932C327.654 272.78 327.692 272.606 327.692 272.41C327.692 272.218 327.654 272.048 327.578 271.9C327.506 271.752 327.404 271.636 327.272 271.552C327.14 271.468 326.988 271.426 326.816 271.426C326.644 271.426 326.492 271.468 326.36 271.552C326.232 271.636 326.132 271.752 326.06 271.9C325.988 272.048 325.952 272.218 325.952 272.41C325.952 272.606 325.988 272.78 326.06 272.932C326.132 273.08 326.232 273.196 326.36 273.28C326.492 273.364 326.644 273.406 326.816 273.406ZM329.268 274V270.838H329.994L330.006 271.846L329.904 271.618C329.948 271.458 330.024 271.314 330.132 271.186C330.24 271.058 330.364 270.958 330.504 270.886C330.648 270.81 330.798 270.772 330.954 270.772C331.022 270.772 331.086 270.778 331.146 270.79C331.21 270.802 331.262 270.816 331.302 270.832L331.104 271.642C331.06 271.618 331.006 271.598 330.942 271.582C330.878 271.566 330.814 271.558 330.75 271.558C330.65 271.558 330.554 271.578 330.462 271.618C330.374 271.654 330.296 271.706 330.228 271.774C330.16 271.842 330.106 271.922 330.066 272.014C330.03 272.102 330.012 272.202 330.012 272.314V274H329.268ZM332.253 274V270.034H332.991V274H332.253ZM331.629 271.522V270.838H333.681V271.522H331.629Z" fill="#1F0D40"/>
<rect x="187" y="57" width="176" height="245" rx="18" stroke="#F4F4F4" stroke-width="4"/>
</g>
<defs>
<filter id="filter0_d_2840_3331" x="181" y="51" width="192" height="261" filterUnits="userSpaceOnUse" color-interpolation-filters="sRGB">
<feFlood flood-opacity="0" result="BackgroundImageFix"/>
<feColorMatrix in="SourceAlpha" type="matrix" values="0 0 0 0 0 0 0 0 0 0 0 0 0 0 0 0 0 0 127 0" result="hardAlpha"/>
<feOffset dx="2" dy="2"/>
<feGaussianBlur stdDeviation="3"/>
<feComposite in2="hardAlpha" operator="out"/>
<feColorMatrix type="matrix" values="0 0 0 0 0 0 0 0 0 0 0 0 0 0 0 0 0 0 0.16 0"/>
<feBlend mode="normal" in2="BackgroundImageFix" result="effect1_dropShadow_2840_3331"/>
<feBlend mode="normal" in="SourceGraphic" in2="effect1_dropShadow_2840_3331" result="shape"/>
</filter>
<filter id="filter1_d_2840_3331" x="223" y="95" width="104" height="104" filterUnits="userSpaceOnUse" color-interpolation-filters="sRGB">
<feFlood flood-opacity="0" result="BackgroundImageFix"/>
<feColorMatrix in="SourceAlpha" type="matrix" values="0 0 0 0 0 0 0 0 0 0 0 0 0 0 0 0 0 0 127 0" result="hardAlpha"/>
<feOffset/>
<feGaussianBlur stdDeviation="1"/>
<feComposite in2="hardAlpha" operator="out"/>
<feColorMatrix type="matrix" values="0 0 0 0 0 0 0 0 0 0 0 0 0 0 0 0 0 0 0.08 0"/>
<feBlend mode="normal" in2="BackgroundImageFix" result="effect1_dropShadow_2840_3331"/>
<feBlend mode="normal" in="SourceGraphic" in2="effect1_dropShadow_2840_3331" result="shape"/>
</filter>
<filter id="filter2_d_2840_3331" x="266.097" y="78.0969" width="18.0023" height="18.0023" filterUnits="userSpaceOnUse" color-interpolation-filters="sRGB">
<feFlood flood-opacity="0" result="BackgroundImageFix"/>
<feColorMatrix in="SourceAlpha" type="matrix" values="0 0 0 0 0 0 0 0 0 0 0 0 0 0 0 0 0 0 127 0" result="hardAlpha"/>
<feOffset/>
<feGaussianBlur stdDeviation="1"/>
<feComposite in2="hardAlpha" operator="out"/>
<feColorMatrix type="matrix" values="0 0 0 0 0 0 0 0 0 0 0 0 0 0 0 0 0 0 0.16 0"/>
<feBlend mode="normal" in2="BackgroundImageFix" result="effect1_dropShadow_2840_3331"/>
<feBlend mode="normal" in="SourceGraphic" in2="effect1_dropShadow_2840_3331" result="shape"/>
</filter>
<linearGradient id="paint0_linear_2840_3331" x1="275" y1="154" x2="275" y2="85" gradientUnits="userSpaceOnUse">
<stop stop-color="#7E36FD"/>
<stop offset="1" stop-color="#FF8C34"/>
</linearGradient>
</defs>
</svg>
